<?xml version="1.0" standalone="no"?>
<!DOCTYPE svg PUBLIC "-//W3C//DTD SVG 1.1//EN" "http://www.w3.org/Graphics/SVG/1.1/DTD/svg11.dtd" >
<svg xmlns="http://www.w3.org/2000/svg">
<metadata>
Created by FontPrep 20130207 at Thu Aug 25 09:40:19 2016
 By Phillip De Vita
(c) 2014 Adobe Systems Incorporated. All Rights Reserved.
</metadata>
<defs>
<font id="919c10b470e2ecbc958c583a7431d3ba" horiz-adv-x='1024' >
  <font-face 
    font-family="AcuminProSemiCond-BoldItalic"
    font-weight="700"
    font-style="italic"
    font-stretch="semi-condensed"
    units-per-em="2048"
    panose-1="2 11 8 6 2 2 2 9 2 4"
    ascent="1505"
    descent="-543"
    x-height="1061"
    cap-height="1403"
    bbox="-489 -535 2578 2167"
    underline-thickness="102"
    underline-position="-102"
    slope="-12"
    unicode-range="U+0020-FB02"
  />
<missing-glyph horiz-adv-x="1024" 
d="M102 1239v-1044l349 522zM164 102h696l-348 523zM573 717l349 -522v1044zM512 809l348 522h-696zM0 0v1434h1024v-1434h-1024z" />
    <glyph glyph-name="f_f" unicode="ff" horiz-adv-x="1179" 
d="M643 1503q94 0 150 -18l-45 -211q-31 6 -77 6t-72 -30t-40 -91l-20 -98h305l22 100q39 170 118 256t230 86q96 0 152 -18l-47 -211q-31 6 -76 6q-85 0 -113 -121l-20 -98h170l-43 -209h-170l-180 -852h-266l180 852h-305l-183 -852h-266l180 852h-149l43 209h151l23 100
q39 170 117 256t231 86z" />
    <glyph glyph-name=".notdef" horiz-adv-x="1024" 
d="M102 1239v-1044l349 522zM164 102h696l-348 523zM573 717l349 -522v1044zM512 809l348 522h-696zM0 0v1434h1024v-1434h-1024z" />
    <glyph glyph-name=".null" horiz-adv-x="0" 
 />
    <glyph glyph-name="nonmarkingreturn" horiz-adv-x="681" 
 />
    <glyph glyph-name="space" unicode=" " horiz-adv-x="479" 
 />
    <glyph glyph-name="exclam" unicode="!" horiz-adv-x="583" 
d="M352 0h-266l70 324h266zM444 506h-227l109 655l51 242h289l-54 -242z" />
    <glyph glyph-name="quotedbl" unicode="&#x22;" horiz-adv-x="743" 
d="M711 903h-189l58 391l38 189h240l-39 -191zM377 903h-187l58 391l41 189h237l-41 -191z" />
    <glyph glyph-name="numbersign" unicode="#" horiz-adv-x="1067" 
d="M614 573l84 248h-198l-82 -248h196zM424 0l121 362h-197l-119 -362h-184l123 362h-141l30 211h181l84 248h-160l28 207h201l111 330h176l-109 -330h197l111 330h178l-109 -330h141l-30 -207h-180l-82 -248h163l-28 -211h-205l-119 -362h-182z" />
    <glyph glyph-name="dollar" unicode="$" horiz-adv-x="1056" 
d="M489 193q193 0 193 167q0 76 -41 127t-185 125t-220 156t-76 209q0 174 113 279q114 105 317 112l31 137h219l-37 -164q129 -41 193 -136t57 -224h-258q-2 82 -46 138q-43 57 -133 57t-136 -41t-46 -105t41 -111q41 -46 195 -125t223 -169q70 -90 70 -213
q0 -180 -113 -292t-334 -128l-37 -178h-219l41 194q-143 39 -220 147t-71 253h260q4 -100 60 -158t159 -57z" />
    <glyph glyph-name="percent" unicode="%" horiz-adv-x="1871" 
d="M1473 635q-63 1 -107 -63q-75 -107 -78 -281q0 -133 98 -133q66 0 111 66q71 104 74 280q0 131 -98 131zM1493 813q129 0 209 -76t80 -213q0 -300 -176 -456q-98 -88 -236 -88t-218 78q-79 78 -79 233q0 201 115 361t305 161zM530 0h-206l1077 1362h207zM545 1202
q-90 0 -137 -112q-48 -112 -48 -239q0 -126 101 -126q65 0 109 65q74 111 75 281q0 131 -100 131zM565 1380q129 0 210 -76t81 -241q0 -166 -96 -335q-47 -81 -131 -131t-205 -50t-200 78t-79 233q-1 202 111 362t309 160z" />
    <glyph glyph-name="ampersand" unicode="&#x26;" horiz-adv-x="1437" 
d="M658 1225q-66 0 -102 -47t-36 -118t70 -175q92 43 142 89t50 110q0 140 -124 141zM418 -18q-158 0 -268 99t-109 253q0 154 77 250t244 190q-88 133 -88 256q0 160 106 276t284 116t266 -97q88 -96 88 -223t-73 -209t-234 -164l172 -205l241 314h297l-395 -484l297 -354
h-324l-139 162q-92 -94 -188 -137t-254 -43zM317 394q0 -70 46 -122t119 -51q73 0 123 22t114 85l-244 286q-84 -49 -121 -99q-37 -51 -37 -121z" />
    <glyph glyph-name="quotesingle" unicode="'" horiz-adv-x="415" 
d="M387 903h-201l62 391l41 189h241l-38 -191z" />
    <glyph glyph-name="parenleft" unicode="(" horiz-adv-x="706" 
d="M319 302q0 -366 130 -646h-232q-59 113 -98 294t-39 363q0 687 485 1170h271q-268 -275 -392 -545t-125 -636z" />
    <glyph glyph-name="parenright" unicode=")" horiz-adv-x="706" 
d="M385 834q0 364 -127 649h231q57 -111 97 -293t39 -365q-1 -686 -486 -1169h-268q268 276 391 546q123 268 123 632z" />
    <glyph glyph-name="asterisk" unicode="*" horiz-adv-x="788" 
d="M487 1403h179l-88 -258l210 147l72 -145l-256 -117l213 -117l-100 -141l-185 152l-24 -256h-178l88 256l-201 -150l-78 152l250 110l-211 119l103 148l182 -158z" />
    <glyph glyph-name="plus" unicode="+" horiz-adv-x="1208" 
d="M502 1020h211v-397h389v-211h-389v-402h-211v402h-391v211h391v397z" />
    <glyph glyph-name="comma" unicode="," horiz-adv-x="462" 
d="M74 -211h-213q37 53 107 219q71 166 118 318h252q-38 -133 -116 -297t-148 -240z" />
    <glyph glyph-name="hyphen" unicode="-" horiz-adv-x="681" 
d="M109 641h514l-50 -225h-516z" />
    <glyph glyph-name="period" unicode="." horiz-adv-x="411" 
d="M225 0h-264l68 324h264z" />
    <glyph glyph-name="slash" unicode="/" 
d="M166 -20h-221l776 1441h221z" />
    <glyph glyph-name="zero" unicode="0" horiz-adv-x="1163" 
d="M698 1169q-125 0 -200 -154t-101 -294q-46 -239 -29 -381q18 -152 150 -152q199 0 291 482q74 376 -11 462q-36 36 -100 37zM698 1378q116 0 191 -30q131 -53 194 -221q62 -168 2 -484q-49 -238 -169 -429q-67 -105 -173 -170q-106 -64 -233 -64t-212 42t-128 110
q-84 134 -74 365t92 442q108 273 288 377q106 62 222 62z" />
    <glyph glyph-name="one" unicode="1" horiz-adv-x="645" 
d="M362 0h-266l230 1079q-106 -16 -185 -12l41 193q158 12 289 108h182z" />
    <glyph glyph-name="two" unicode="2" horiz-adv-x="1062" 
d="M770 1001q0 162 -158 162t-213 -192h-268q43 184 165 296q122 111 337 111t316 -112t101 -260q0 -146 -77 -246q-78 -100 -254 -215q-303 -195 -379 -322h608l-78 -223h-897q46 230 164 376q119 146 391 326q131 88 187 153q55 65 55 146z" />
    <glyph glyph-name="three" unicode="3" horiz-adv-x="1083" 
d="M648 1378q200 0 301 -96t102 -238q0 -238 -236 -319v-4q76 -37 128 -110t52 -183q0 -188 -134 -318q-135 -130 -371 -130t-349 114t-108 281h264q8 -86 57 -138q49 -53 149 -53q99 0 157 67t59 173q0 190 -230 190h-90l47 220h74q252 0 252 192q0 68 -39 109t-116 41
t-119 -40t-70 -114h-254q39 160 156 258q118 98 318 98z" />
    <glyph glyph-name="four" unicode="4" horiz-adv-x="1124" 
d="M682 547l63 287q66 287 74 319q-61 -92 -251 -328t-222 -278h336zM815 0h-248l70 330h-598l49 235l666 797h352l-176 -815h143l-61 -217h-127z" />
    <glyph glyph-name="five" unicode="5" horiz-adv-x="1134" 
d="M500 -20q-207 0 -320 102t-108 278h264q4 -82 49 -130t129 -48q125 0 183 96q59 96 59 206q1 216 -176 216q-145 0 -209 -125l-236 33q127 381 213 750h780l-55 -223h-532q-51 -199 -80 -289q91 68 241 68t244 -103q94 -102 94 -294t-120 -356q-61 -83 -170 -132
t-250 -49z" />
    <glyph glyph-name="six" unicode="6" horiz-adv-x="1116" 
d="M535 184q115 0 173 96t58 216q0 209 -172 211q-117 0 -174 -87q-58 -86 -58 -200t44 -175t129 -61zM690 913q156 0 254 -105t98 -262t-53 -277q-53 -119 -177 -203t-308 -84t-296 120q-114 120 -114 351q0 230 77 455q44 130 111 232q68 102 180 170q112 69 255 68
q199 0 296 -98t99 -242h-258q-14 139 -158 140q-203 0 -282 -369q120 104 276 104z" />
    <glyph glyph-name="seven" unicode="7" horiz-adv-x="972" 
d="M186 1358h889l-45 -213q-176 -203 -363 -511t-315 -634h-293q115 305 321 630t376 505h-619z" />
    <glyph glyph-name="eight" unicode="8" horiz-adv-x="1124" 
d="M504 180q115 0 176 72t61 172t-50 146q-49 46 -147 46t-158 -72t-60 -167q0 -93 49 -145t129 -52zM813 1012q0 170 -163 170q-83 0 -132 -62t-49 -140q1 -165 161 -165q84 0 134 58q49 57 49 139zM1014 428q0 -204 -142 -326t-368 -122q-228 0 -340 108t-111 254
q0 144 75 242t206 145q-53 37 -88 101t-35 139q0 178 127 294t342 115q174 0 286 -93t112 -233t-66 -225q-66 -84 -156 -118q58 -31 108 -105t50 -176z" />
    <glyph glyph-name="nine" unicode="9" horiz-adv-x="1140" 
d="M635 1171q-106 0 -163 -78q-56 -79 -56 -181q0 -206 172 -205q113 1 168 71t55 178q0 215 -176 215zM514 498q-168 0 -269 104t-102 272q1 205 137 355q136 149 363 149t336 -134t108 -365q-1 -126 -31 -280q-30 -153 -75 -249t-110 -182t-169 -137t-233 -51
q-205 0 -301 98t-102 254h262q18 -147 155 -148q82 0 148 68t99 156q34 88 54 196q-102 -106 -270 -106z" />
    <glyph glyph-name="colon" unicode=":" horiz-adv-x="555" 
d="M297 0h-264l67 324h265zM446 719h-262l70 323h262z" />
    <glyph glyph-name="semicolon" unicode=";" horiz-adv-x="595" 
d="M139 -211h-211q41 71 108 225t116 312h251q-43 -152 -123 -310t-141 -227zM489 719h-264l70 323h264z" />
    <glyph glyph-name="less" unicode="&#x3c;" horiz-adv-x="1011" 
d="M92 418v200l793 416v-227l-576 -289l576 -291v-229z" />
    <glyph glyph-name="equal" unicode="=" horiz-adv-x="1208" 
d="M109 846h989v-211h-989v211zM109 395h989v-211h-989v211z" />
    <glyph glyph-name="greater" unicode="&#x3e;" horiz-adv-x="1011" 
d="M922 614v-200l-793 -416v227l576 289l-576 293v227z" />
    <glyph glyph-name="question" unicode="?" horiz-adv-x="974" 
d="M516 0h-278l69 334h279zM768 1092q0 121 -133 120q-154 0 -201 -219h-250q41 217 155 323t320 105q207 0 291 -95t84 -223t-59 -211t-201 -206q-78 -62 -112 -112t-48 -111l-4 -23h-278l6 29q20 102 76 179t184 183q55 47 83 76t57 80q30 51 30 105z" />
    <glyph glyph-name="at" unicode="@" horiz-adv-x="1851" 
d="M991 760q-102 0 -171 -133q-68 -133 -68 -279t100 -147q63 0 124 70q60 71 93 208q65 281 -78 281zM825 -412q-325 0 -529 211t-204 528t166 585q166 267 458 375q159 58 341 59q317 0 517 -182t200 -492q0 -252 -117 -448q-59 -99 -161 -159t-234 -61q-178 0 -209 146
q-111 -145 -289 -146q-116 0 -186 85t-70 245q0 233 127 427t317 193q86 0 137 -32q50 -33 62 -76l23 88h231l-143 -600q-18 -66 -6 -98t61 -31q121 0 191 137t71 315q0 250 -151 377t-398 127q-334 -1 -528 -239t-195 -584q-1 -238 145 -400t396 -163q250 0 448 94l33 -164
q-178 -117 -504 -117z" />
    <glyph glyph-name="A" unicode="A" horiz-adv-x="1267" 
d="M791 1190h-5q-108 -261 -292 -621h342q-45 569 -45 621zM842 342h-447l-170 -342h-286q705 1384 714 1403h359l139 -1403h-274z" />
    <glyph glyph-name="B" unicode="B" horiz-adv-x="1251" 
d="M680 848q244 0 244 190q0 156 -191 156h-170l-76 -346h193zM573 209q129 0 206 61t77 174q0 195 -233 195h-179l-90 -430h219zM766 1403q219 0 327 -97q107 -98 107 -234t-64 -220t-173 -121q182 -85 182 -281q1 -196 -145 -323t-384 -127h-577l297 1403h430z" />
    <glyph glyph-name="C" unicode="C" horiz-adv-x="1323" 
d="M625 -20q-252 0 -380 146t-128 401t106 477q57 118 138 210t204 150t281 57t270 -69q207 -126 195 -394h-264q-7 89 -55 166q-48 78 -183 77t-230 -111q-175 -202 -173 -535q0 -356 251 -356q117 0 184 54q66 55 113 159h279q-141 -432 -608 -432z" />
    <glyph glyph-name="D" unicode="D" horiz-adv-x="1398" 
d="M586 217q154 0 264 87q206 163 205 507q0 191 -89 281t-233 90h-166l-205 -965h224zM776 1403q276 0 424 -163q148 -164 148 -404t-81 -421t-254 -298t-413 -117h-561l297 1403h440z" />
    <glyph glyph-name="E" unicode="E" horiz-adv-x="1153" 
d="M1067 846l-47 -230h-582l-82 -389h684l-82 -227h-919l297 1403h874l-49 -227h-604l-72 -330h582z" />
    <glyph glyph-name="F" unicode="F" horiz-adv-x="1103" 
d="M39 0l297 1403h872l-49 -227h-600l-74 -349h566l-52 -225h-563l-125 -602h-272z" />
    <glyph glyph-name="G" unicode="G" horiz-adv-x="1372" 
d="M391 539q0 -342 272 -342q140 0 214 94t106 256l2 8h-291l54 229h561q-156 -717 -166 -784h-209q2 41 18 139q-68 -86 -158 -123t-229 -36q-229 0 -345 150t-116 405q0 256 125 497q125 240 354 336q126 53 273 53q233 0 363 -119q129 -120 131 -321h-273
q-10 219 -243 219q-113 0 -202 -62t-139 -162q-102 -206 -102 -437z" />
    <glyph glyph-name="H" unicode="H" horiz-adv-x="1355" 
d="M39 0l297 1403h276l-118 -557h497l119 557h279l-297 -1403h-279l129 616h-498l-129 -616h-276z" />
    <glyph glyph-name="I" unicode="I" horiz-adv-x="581" 
d="M336 1403h276l-297 -1403h-276z" />
    <glyph glyph-name="J" unicode="J" horiz-adv-x="739" 
d="M145 -18q-117 0 -190 24l45 217q53 -12 125 -12t112 42q39 42 64 159l211 991h279l-209 -985q-52 -240 -146 -338t-291 -98z" />
    <glyph glyph-name="K" unicode="K" horiz-adv-x="1251" 
d="M39 0l297 1403h272l-135 -617q330 326 614 617h340l-610 -582l342 -821h-299l-258 649l-188 -164l-103 -485h-272z" />
    <glyph glyph-name="L" unicode="L" horiz-adv-x="1073" 
d="M39 0l297 1403h276l-250 -1176h609l-76 -227h-856z" />
    <glyph glyph-name="M" unicode="M" horiz-adv-x="1681" 
d="M573 0q-34 1175 -34 1210h-13q-33 -236 -133 -710l-104 -500h-250l297 1403h409q45 -801 46 -1028h4q31 88 127 284q95 195 140 281q44 86 128 251t108 212h416l-297 -1403h-268l111 524q104 485 155 682h-10q-109 -256 -574 -1206h-258z" />
    <glyph glyph-name="N" unicode="N" horiz-adv-x="1388" 
d="M293 0h-254l297 1403h348l274 -1032h5q20 164 112 596l92 436h254l-297 -1403h-331l-279 1083h-4q-31 -203 -125 -647z" />
    <glyph glyph-name="O" unicode="O" horiz-adv-x="1421" 
d="M815 1202q-104 0 -187 -66t-129 -168q-96 -215 -96 -436q0 -334 267 -333q106 1 190 67t131 169q96 211 94 431q0 336 -270 336zM842 1421q266 -1 399 -155t133 -408t-103 -472q-56 -118 -139 -207t-209 -144t-282 -55q-264 0 -394 152t-130 400q0 249 103 467
q56 119 137 212t207 151t278 59z" />
    <glyph glyph-name="P" unicode="P" horiz-adv-x="1230" 
d="M702 764q115 0 183 58t67 175q0 186 -211 187h-176l-86 -420h223zM782 1403q203 1 327 -105t124 -300t-142 -323q-142 -128 -407 -128h-254l-115 -547h-276l297 1403h446z" />
    <glyph glyph-name="Q" unicode="Q" horiz-adv-x="1421" 
d="M815 1202q-104 0 -187 -66t-129 -168q-96 -215 -96 -436q0 -334 267 -333q106 1 190 67t131 169q96 211 94 431q0 336 -270 336zM842 1421q266 -1 399 -155t133 -380t-72 -426q-72 -198 -215 -323l293 -203l-161 -192l-371 266q-98 -29 -207 -28q-264 0 -394 152
t-130 400q0 249 103 467q56 119 137 212t207 151t278 59z" />
    <glyph glyph-name="R" unicode="R" horiz-adv-x="1236" 
d="M692 805q270 0 271 215q1 86 -55 125t-140 39h-207l-80 -379h211zM631 586h-197l-123 -586h-272l297 1403h487q201 0 313 -97q112 -98 112 -244t-71 -242q-71 -95 -192 -140q150 -84 92 -369q-41 -190 -47 -311h-274q0 92 49 322q14 80 14 138t-46 92t-142 34z" />
    <glyph glyph-name="S" unicode="S" horiz-adv-x="1173" 
d="M786 375q0 88 -46 138t-173 108q-201 88 -281 173t-79 220q0 178 125 293t351 115t349 -116t121 -294h-270q-14 201 -217 200q-90 0 -136 -44t-45 -112q0 -68 47 -109q47 -40 173 -95q213 -94 293 -192t79 -230q0 -201 -137 -326q-137 -124 -389 -124t-374 118t-128 314
h270q29 -223 250 -224q97 0 157 50t60 137z" />
    <glyph glyph-name="T" unicode="T" horiz-adv-x="1077" 
d="M287 0l248 1176h-367l49 227h1016l-49 -227h-369l-248 -1176h-280z" />
    <glyph glyph-name="U" unicode="U" horiz-adv-x="1325" 
d="M610 199q137 0 200 79q62 79 93 228l193 897h278l-190 -897q-27 -125 -62 -209q-88 -212 -275 -279q-110 -39 -265 -38q-291 0 -398 145q-106 145 -53 399l188 879h279l-192 -899q-68 -305 204 -305z" />
    <glyph glyph-name="V" unicode="V" horiz-adv-x="1234" 
d="M664 0h-330l-144 1403h279l45 -637q33 -416 31 -516h4q45 115 244 508l323 645h295z" />
    <glyph glyph-name="W" unicode="W" horiz-adv-x="1765" 
d="M985 0q0 129 -9 505t-5 494h-2q-46 -130 -227 -535q-180 -405 -207 -464h-287l-23 1403h275q-14 -842 -49 -1096h2q59 151 243 563t236 533h250q18 -786 2 -1081h2q49 137 236 596t198 485h291l-637 -1403h-289z" />
    <glyph glyph-name="X" unicode="X" horiz-adv-x="1136" 
d="M1040 0h-299l-182 492h-2l-367 -492h-309l563 713l-266 690h297l170 -479h2l357 479h303l-545 -696z" />
    <glyph glyph-name="Y" unicode="Y" horiz-adv-x="1138" 
d="M590 0h-277l117 541q4 31 -2 45l-260 817h291q154 -584 159 -608q258 383 416 608h299l-610 -836q-16 -16 -21 -43z" />
    <glyph glyph-name="Z" unicode="Z" horiz-adv-x="1159" 
d="M-45 0l39 197l850 979h-635l49 227h969l-47 -223l-828 -953h699l-82 -227h-1014z" />
    <glyph glyph-name="bracketleft" unicode="[" horiz-adv-x="653" 
d="M399 -344h-440l387 1825h440l-38 -191h-232l-307 -1442h231z" />
    <glyph glyph-name="backslash" unicode="\" horiz-adv-x="802" 
d="M455 1421l161 -1441h-202l-160 1441h201z" />
    <glyph glyph-name="bracketright" unicode="]" horiz-adv-x="653" 
d="M268 1481h445l-387 -1825h-445l39 190h236l305 1442h-236z" />
    <glyph glyph-name="asciicircum" unicode="^" horiz-adv-x="921" 
d="M922 662h-217l-218 485l-206 -485h-218l322 704h217z" />
    <glyph glyph-name="underscore" unicode="_" horiz-adv-x="1019" 
d="M-143 -160h1013l-22 -104h-1014z" />
    <glyph glyph-name="grave" unicode="`" 
d="M209 1501h313l213 -301h-221z" />
    <glyph glyph-name="a" unicode="a" horiz-adv-x="1085" 
d="M303 305q0 -119 125 -119q113 0 165 74t81 205l4 22q-111 0 -168 -8q-207 -29 -207 -174zM590 891q-57 0 -96 -25t-53 -48q-13 -24 -25 -60h-266q72 322 458 321q463 0 371 -428l-86 -399q-41 -188 -51 -252h-260q4 47 16 106q-100 -125 -289 -124q-133 0 -209 78
t-75 206q0 352 471 389q119 10 217 11l8 30q23 92 -5 144t-126 51z" />
    <glyph glyph-name="b" unicode="b" horiz-adv-x="1157" 
d="M530 197q96 0 166 84q129 155 128 367t-165 212q-111 0 -177 -94t-97 -236q-72 -333 145 -333zM788 1079q150 0 232 -103q82 -102 82 -244t-31 -265q-75 -298 -262 -416q-109 -70 -248 -69q-193 0 -254 133q-16 -86 -26 -115h-269q13 52 74 324l246 1165h270l-117 -553
q111 143 303 143z" />
    <glyph glyph-name="c" unicode="c" horiz-adv-x="1050" 
d="M454 -18q-399 0 -401 409q0 192 89 379t264 265q96 44 214 44t202 -39q85 -39 124 -101q77 -122 58 -255h-267q12 186 -135 186q-70 0 -125 -51q-91 -84 -130 -283q-15 -77 -15 -145q0 -201 147 -201q80 0 125 40t80 120h266q-47 -164 -170 -266t-326 -102z" />
    <glyph glyph-name="d" unicode="d" horiz-adv-x="1163" 
d="M642 860q-106 0 -174 -79q-126 -144 -126 -366t158 -222q117 0 177 91t93 246q38 152 8 241t-136 89zM55 370q-1 180 57 332q58 154 184 266t294 111q106 0 173 -37t87 -84l115 531h270l-254 -1194q-6 -25 -59 -295h-265q2 20 19 115q-53 -70 -121 -103t-176 -32
q-152 0 -238 105t-86 285z" />
    <glyph glyph-name="e" unicode="e" horiz-adv-x="1069" 
d="M756 715q0 164 -158 164q-96 0 -152 -72t-75 -166h377q8 35 8 74zM322 385q0 -193 157 -192q57 -1 99 23t59 48q16 24 37 64h270q-123 -346 -487 -346q-403 0 -404 426q0 209 124 425q62 107 178 177t268 69q190 0 290 -105t101 -272q0 -98 -35 -235h-649q-8 -66 -8 -82z
" />
    <glyph glyph-name="f" unicode="f" horiz-adv-x="606" 
d="M647 1503q90 0 146 -18l-45 -211q-31 6 -72 6q-90 0 -117 -123l-20 -96h180l-43 -209h-180l-183 -852h-266l180 852h-149l43 209h151l25 117q37 160 118 242t232 83z" />
    <glyph glyph-name="g" unicode="g" horiz-adv-x="1155" 
d="M621 860q-133 0 -205 -136t-72 -278q0 -213 162 -213q199 0 264 297q68 330 -149 330zM38 -306q-77 99 -71 232h260q6 -145 168 -145q123 1 176 69t93 234l14 55q-96 -125 -287 -125q-156 0 -245 106t-89 319q0 212 133 419q64 98 166 160t218 61q116 0 186 -42t86 -97
q12 51 33 121h264q-31 -113 -76 -320l-139 -657q-27 -123 -61 -205t-94 -157q-117 -146 -380 -146t-355 118z" />
    <glyph glyph-name="h" unicode="h" horiz-adv-x="1138" 
d="M653 858q-184 0 -241 -272l-125 -586h-271l316 1489h270l-119 -559q115 150 308 149q149 0 221 -101t28 -302l-143 -676h-266l139 659q20 94 -4 147q-25 52 -113 52z" />
    <glyph glyph-name="i" unicode="i" horiz-adv-x="532" 
d="M276 1233l54 256h272l-55 -256h-271zM16 0l226 1061h270l-225 -1061h-271z" />
    <glyph glyph-name="j" unicode="j" horiz-adv-x="530" 
d="M-213 -412l47 215q27 -4 68 -4q40 0 62 28t38 110l240 1124h270l-223 -1047q-51 -234 -92 -305t-95 -95q-84 -38 -178 -38t-137 12zM547 1233h-271l54 256h272z" />
    <glyph glyph-name="k" unicode="k" horiz-adv-x="1040" 
d="M420 639l409 422h316q-90 -94 -422 -410q39 -109 116 -331t113 -320h-284q-20 61 -75 234q-54 173 -75 239q-35 -30 -162 -135l-69 -338h-271l316 1489h270z" />
    <glyph glyph-name="l" unicode="l" horiz-adv-x="530" 
d="M287 0h-271l314 1489h272z" />
    <glyph glyph-name="m" unicode="m" horiz-adv-x="1669" 
d="M1200 860q-90 0 -139 -62t-76 -190l-129 -608h-266l143 674q37 184 -106 184q-85 0 -137 -63t-80 -207l-125 -588h-269l156 731q55 270 66 330h262q-6 -59 -21 -133q119 152 298 152t216 -154q127 154 320 153q153 0 227 -93t31 -304l-146 -682h-264l146 680
q39 180 -107 180z" />
    <glyph glyph-name="n" unicode="n" horiz-adv-x="1138" 
d="M647 852q-90 0 -147 -61t-88 -201l-125 -590h-271l156 729q41 190 66 332h264q-6 -66 -21 -135q109 154 299 153q162 0 233 -102t31 -283l-147 -694h-270l135 641q25 87 0 149t-115 62z" />
    <glyph glyph-name="o" unicode="o" horiz-adv-x="1116" 
d="M778 682q0 182 -167 182q-89 0 -157 -79q-123 -144 -121 -366q1 -222 165 -222q72 0 129 48q98 83 136 274q15 77 15 163zM641 1079q203 1 307 -113t104 -310t-83 -365q-98 -195 -276 -269q-99 -42 -220 -42q-211 0 -315 116t-104 325q0 210 132 423q66 104 184 170
t271 65z" />
    <glyph glyph-name="p" unicode="p" horiz-adv-x="1167" 
d="M821 679q0 83 -39 133t-123 50q-206 0 -273 -332t149 -331q76 0 135 51t90 127q31 75 46 147t15 155zM1102 694q0 -244 -128 -469q-62 -109 -170 -177t-243 -66q-201 0 -254 131l-108 -521h-271l248 1162q49 227 62 307h264q-8 -76 -23 -135q104 154 299 153
q154 0 239 -102t85 -283z" />
    <glyph glyph-name="q" unicode="q" horiz-adv-x="1155" 
d="M652 860q-102 0 -175 -80q-133 -148 -133 -385q0 -199 154 -198q102 0 175 92t105 250q74 321 -126 321zM379 -18q-137 0 -228 100t-91 278t60 336q62 158 192 271t296 112q195 0 250 -129q20 84 31 111h264q-53 -215 -80 -344l-239 -1125h-263l111 521
q-106 -131 -303 -131z" />
    <glyph glyph-name="r" unicode="r" horiz-adv-x="747" 
d="M823 1077l-61 -278q-158 4 -247 -72t-126 -246l-102 -481h-271l150 700q57 274 72 361h260q-4 -61 -31 -193q120 209 356 209z" />
    <glyph glyph-name="s" unicode="s" horiz-adv-x="954" 
d="M444 176q139 0 140 113q0 49 -40 82t-164 85t-190 119q-66 68 -65 179q0 147 105 236t301 89t293 -97t94 -234h-263q-6 135 -141 135q-51 0 -86 -24t-35 -69q0 -44 32 -68t162 -80t203 -126q73 -72 72 -188q0 -150 -110 -248t-318 -98t-316 92t-104 258h271
q8 -156 159 -156z" />
    <glyph glyph-name="t" unicode="t" horiz-adv-x="645" 
d="M451 188q12 0 98 13l-39 -185q-70 -27 -176 -26q-152 0 -211 68t-27 214l127 580h-157l47 209h161l66 287h260l-63 -287h190l-45 -209h-190l-123 -559q-12 -57 4 -81t78 -24z" />
    <glyph glyph-name="u" unicode="u" horiz-adv-x="1120" 
d="M1104 1061l-160 -748q-47 -217 -63 -313h-263q10 84 17 115q-59 -76 -130 -105t-173 -28q-150 0 -216 108t-28 285l145 686h269l-140 -660q-39 -201 107 -200q180 0 238 270l124 590h273z" />
    <glyph glyph-name="v" unicode="v" horiz-adv-x="997" 
d="M414 268h2q88 221 375 793h286l-559 -1061h-313l-94 1061h264q39 -618 39 -793z" />
    <glyph glyph-name="w" unicode="w" horiz-adv-x="1531" 
d="M995 1061q0 -163 4 -411t0 -347h2q16 45 124 289t202 469h277l-521 -1061h-292q-6 598 -5 702h-4q-35 -94 -307 -702h-295l-55 1061h270q10 -602 4 -764h4q66 166 328 764h264z" />
    <glyph glyph-name="x" unicode="x" horiz-adv-x="894" 
d="M90 1061h281q106 -307 112 -326h2q86 113 244 326h303l-432 -516l209 -545h-283q-16 49 -44 130t-44 134t-24 78h-4q-150 -213 -246 -342h-305l432 537z" />
    <glyph glyph-name="y" unicode="y" horiz-adv-x="1005" 
d="M426 252h2q289 657 365 809h282l-581 -1141q-58 -120 -110 -188t-112 -103t-113 -44q-55 -9 -137 -9t-133 10l48 226q37 -6 99 -6t102 39q42 40 85 135l-119 1081h275q7 -141 27 -431q20 -289 20 -378z" />
    <glyph glyph-name="z" unicode="z" horiz-adv-x="915" 
d="M-61 0l43 201q332 354 596 651h-463l45 209h776l-49 -207q-270 -307 -574 -645h500l-78 -209h-796z" />
    <glyph glyph-name="braceleft" unicode="{" horiz-adv-x="729" 
d="M479 -154h39l-41 -192h-57q-344 0 -268 356l57 269q20 102 -8 138q-29 36 -162 36l47 225q133 0 178 39t70 151l59 277q50 221 161 282q58 33 114 43t141 11h57l-41 -193h-24q-84 -2 -125 -39t-62 -127l-53 -258q-27 -129 -87 -207t-179 -100q113 -27 139 -109t-6 -204
l-47 -224q-18 -94 2 -134t96 -40z" />
    <glyph glyph-name="bar" unicode="|" horiz-adv-x="526" 
d="M98 1597h226v-2132h-226v2132z" />
    <glyph glyph-name="braceright" unicode="}" horiz-adv-x="729" 
d="M-66 -346h-57l41 192h25q84 2 125 38t59 128l53 258q27 129 88 207t181 101q-113 26 -141 108t5 205l49 223q18 94 -2 133t-96 39h-41l43 195h58q342 0 268 -359l-57 -268q-23 -102 7 -138t163 -36l-48 -223q-133 0 -178 -39t-69 -152l-60 -276q-50 -221 -161 -283
q-58 -33 -114 -43t-141 -10z" />
    <glyph glyph-name="asciitilde" unicode="~" horiz-adv-x="1167" 
d="M317 356h-190v70q0 145 63 212q64 67 164 67t248 -76t185 -76q36 0 52 20q15 20 15 78v41h188v-57q0 -161 -56 -227t-158 -66t-253 78q-150 78 -190 78q-68 0 -68 -92v-50z" />
    <glyph glyph-name="uni00A0" unicode="&#xa0;" horiz-adv-x="479" 
 />
    <glyph glyph-name="exclamdown" unicode="&#xa1;" horiz-adv-x="552" 
d="M221 1061h266l-69 -326h-264zM129 555h229l-110 -657l-51 -242h-287l51 242z" />
    <glyph glyph-name="cent" unicode="&#xa2;" horiz-adv-x="1099" 
d="M674 1008q-98 0 -168 -79q-123 -139 -123 -360q0 -102 38 -169q38 -66 121 -66t128 36t86 113h250q-86 -291 -385 -338l-37 -163h-232l39 168q-129 33 -200 136t-70 255q0 240 126 429t363 222l29 133h231l-30 -143q139 -33 195 -128t42 -220h-250q8 174 -153 174z" />
    <glyph glyph-name="sterling" unicode="&#xa3;" horiz-adv-x="1034" 
d="M674 1182q-68 0 -96 -50t-40 -132q-10 -82 -20 -218h268l-38 -182h-250q-35 -256 -158 -379h631l-84 -221h-916l45 205q184 81 215 395h-174l37 182h156q11 342 137 484q99 112 287 112t274 -95t78 -255h-229q-10 154 -123 154z" />
    <glyph glyph-name="currency" unicode="&#xa4;" horiz-adv-x="1044" 
d="M578 942q-111 0 -171 -93q-61 -93 -61 -199t42 -149q42 -44 110 -44q115 0 173 94q58 93 58 197q0 194 -151 194zM609 1120q120 0 206 -69l174 153l111 -151l-185 -158q16 -59 17 -119q0 -168 -86 -301l106 -141l-155 -139l-101 139q-98 -55 -223 -55t-211 67l-172 -149
l-106 153l176 154q-14 45 -15 108q0 172 93 310l-107 145l154 139l106 -143q98 57 218 57z" />
    <glyph glyph-name="yen" unicode="&#xa5;" horiz-adv-x="952" 
d="M788 360h-231l-76 -360h-270l76 360h-224l31 144h223l23 108h-223l30 142h195l-190 604h270q98 -440 104 -481h2q11 25 137 212q125 187 179 269h289l-461 -604h200l-30 -142h-232l-22 -108h231z" />
    <glyph glyph-name="brokenbar" unicode="&#xa6;" horiz-adv-x="505" 
d="M96 365h207v-730h-207v730zM98 1403h207v-721h-207v721z" />
    <glyph glyph-name="section" unicode="&#xa7;" horiz-adv-x="1124" 
d="M817 1059q0 170 -166 170q-67 0 -109 -40q-42 -39 -42 -95t42 -95t180 -117q290 -163 290 -384q0 -242 -217 -377q47 -78 47 -166q0 -175 -127 -277t-334 -102t-323 99t-97 286h258q-2 -188 182 -188q80 0 128 40q49 40 49 107q0 68 -40 110t-184 114t-226 159
q-81 86 -81 215q0 229 240 369q-47 70 -47 153q0 170 118 276q119 105 323 105q205 -1 303 -111t73 -251h-240zM303 561q0 -57 37 -101q36 -44 158 -110t151 -86q99 76 99 188t-150 201q-160 99 -166 103q-129 -74 -129 -195z" />
    <glyph glyph-name="dieresis" unicode="&#xa8;" 
d="M846 1223h-211l55 256h211zM479 1223h-211l56 256h211z" />
    <glyph glyph-name="copyright" unicode="&#xa9;" horiz-adv-x="1507" 
d="M774 317q-154 1 -244 103t-90 284t94 286t251 104t237 -83t90 -200h-180q-23 127 -144 127q-72 0 -114 -59t-43 -166q0 -242 153 -242q119 0 146 129h182q-18 -131 -101 -207t-237 -76zM776 1282q-234 0 -380 -158t-146 -421t148 -425t380 -163q232 0 382 155
q148 156 148 421t-149 428t-383 163zM780 1409q287 0 476 -198q190 -198 190 -515t-188 -513q-188 -195 -479 -195q-290 0 -479 194t-189 511q0 316 191 516t478 200z" />
    <glyph glyph-name="ordfeminine" unicode="&#xaa;" horiz-adv-x="720" 
d="M299 762q0 -61 72 -62q49 0 89 37t56 113l6 22q-80 0 -123 -6t-71 -34t-29 -70zM461 561q0 10 3 32t3 34q-45 -45 -84 -63t-115 -17q-76 0 -126 52t-50 138q0 193 225 238q86 16 224 20l10 35q16 92 -78 92q-47 0 -69 -22t-35 -72h-195q47 225 305 225q309 0 254 -276
l-53 -238q-18 -92 -33 -178h-186z" />
    <glyph glyph-name="guillemotleft" unicode="&#xab;" horiz-adv-x="1062" 
d="M1073 926l-360 -402l192 -383h-219l-194 394l346 391h235zM653 926l-358 -402l190 -383h-215l-196 394l348 391h231z" />
    <glyph glyph-name="logicalnot" unicode="&#xac;" horiz-adv-x="1204" 
d="M88 739h987v-600h-213v389h-774v211z" />
    <glyph glyph-name="uni00AD" unicode="&#xad;" horiz-adv-x="681" 
d="M109 641h514l-50 -225h-516z" />
    <glyph glyph-name="registered" unicode="&#xae;" horiz-adv-x="587" 
d="M397 1200v-63h54q39 0 38 32q0 31 -40 31h-52zM393 969h-78v293h142q119 0 118 -84q0 -59 -49 -72q37 -18 37 -66t6 -71h-84q-6 18 -6 62t-39 44h-47v-106zM433 1343q-99 0 -158 -65q-58 -66 -58 -170q-1 -104 61 -168t164 -63q102 0 158 61q57 60 57 166t-62 173
q-63 66 -162 66zM437 1419q134 0 219 -87t85 -224t-86 -225t-218 -88t-217 87t-85 225t84 225t218 87z" />
    <glyph glyph-name="macron" unicode="&#xaf;" 
d="M313 1446h586l-45 -215h-588z" />
    <glyph glyph-name="degree" unicode="&#xb0;" horiz-adv-x="675" 
d="M471 1249q-69 0 -107 -55t-38 -127q0 -129 112 -129q66 0 109 53t43 129q0 129 -119 129zM473 1378q129 0 196 -68t66 -173q0 -145 -86 -237t-212 -91q-127 1 -193 65t-66 190t83 220t212 94z" />
    <glyph glyph-name="plusminus" unicode="&#xb1;" horiz-adv-x="1208" 
d="M1098 0h-987v193h987v-193zM510 1231h192v-367h396v-190h-396v-367h-192v367h-401v190h401v367z" />
    <glyph glyph-name="two.sups" unicode="&#xb2;" horiz-adv-x="720" 
d="M627 1462q0 90 -82 88q-92 0 -121 -114h-197q27 130 113 202t222 72t208 -70t72 -171t-56 -160t-189 -132q-132 -73 -159 -114h353l-62 -160h-584l11 47q31 180 276 330q129 80 162 111t33 71z" />
    <glyph glyph-name="three.sups" unicode="&#xb3;" horiz-adv-x="716" 
d="M476 1040q52 0 85 31t33 88q0 90 -100 90h-66l33 158h61q106 0 107 84q0 72 -82 72t-115 -84h-192q17 74 62 129q88 106 259 104q141 0 212 -58t71 -151q0 -61 -40 -109t-106 -67q47 -16 79 -64t32 -108q0 -121 -96 -191t-240 -69q-94 0 -162 28q-67 27 -97 71
q-54 79 -50 157h205q3 -47 29 -79t78 -32z" />
    <glyph glyph-name="acute" unicode="&#xb4;" 
d="M662 1501h327l-395 -301h-258z" />
    <glyph glyph-name="uni00B5" unicode="&#xb5;" horiz-adv-x="1124" 
d="M381 -18q-80 0 -117 49q-12 -109 -74 -439h-270q37 163 166 773l150 696h268l-139 -662q-39 -197 110 -196q88 0 146 61q57 61 88 207l125 590h272l-160 -748q-47 -217 -63 -313h-250q12 98 16 121q-100 -139 -268 -139z" />
    <glyph glyph-name="paragraph" unicode="&#xb6;" horiz-adv-x="1110" 
d="M694 477h47l138 643h-54q-96 0 -148 -61t-93 -250q-41 -168 -20 -250t130 -82zM575 270q-247 0 -363 138t-62 407q54 270 207 382q155 112 405 112h156q37 115 40 123h179q-23 -92 -54 -236l-317 -1495h-188l118 569h-121z" />
    <glyph glyph-name="periodcentered" unicode="&#xb7;" horiz-adv-x="411" 
d="M307 410h-264l68 323h264z" />
    <glyph glyph-name="cedilla" unicode="&#xb8;" 
d="M504 -262q0 -96 -78 -150t-202 -55q-124 0 -204 37l52 149q45 -16 98 -16q80 0 80 55q0 49 -148 68l11 45l116 156l179 -27l-70 -82q166 -43 166 -180z" />
    <glyph glyph-name="one.sups" unicode="&#xb9;" horiz-adv-x="489" 
d="M446 903h-213l121 570q-37 -4 -123 -5l31 154q125 14 207 80h147z" />
    <glyph glyph-name="ordmasculine" unicode="&#xba;" horiz-adv-x="743" 
d="M481 1104q-84 0 -127 -95t-43 -190q0 -123 101 -123q61 0 102 54q67 90 68 222t-101 132zM498 1253q133 -1 210 -73t76 -203q0 -178 -102 -303t-291 -125q-131 0 -205 72t-73 200q0 170 101 301q102 131 284 131z" />
    <glyph glyph-name="guillemotright" unicode="&#xbb;" horiz-adv-x="1062" 
d="M4 143l361 402l-193 383h219l195 -393l-346 -392h-236zM424 143l358 402l-190 383h215l197 -393l-349 -392h-231z" />
    <glyph glyph-name="onequarter" unicode="&#xbc;" horiz-adv-x="1601" 
d="M1028 346h168l23 100q20 106 47 191q-25 -33 -238 -291zM1319 0h-195l41 195h-368l32 153l381 449h277l-98 -451h108l-47 -151h-92zM401 561h-213l121 569q-37 -4 -123 -4l31 154q125 14 207 80h147zM303 0h-188l1120 1366h190z" />
    <glyph glyph-name="onehalf" unicode="&#xbd;" horiz-adv-x="1685" 
d="M1376 561q0 90 -82 88q-92 0 -120 -114h-197q27 131 113 203t222 71q136 0 208 -70t72 -171t-57 -160t-189 -132t-158 -114h352l-61 -160h-584l10 47q31 180 277 330q130 81 162 111t32 71zM401 561h-213l121 569q-37 -4 -123 -4l31 154q125 14 207 80h147zM311 0h-188
l1120 1366h191z" />
    <glyph glyph-name="threequarters" unicode="&#xbe;" horiz-adv-x="1765" 
d="M429 698q52 0 85 31t33 88q0 90 -101 90h-65l33 158h61q106 0 107 84q0 72 -82 72t-115 -84h-192q17 74 62 129q88 106 259 104q141 0 212 -58t71 -151q0 -61 -40 -109t-106 -67q47 -16 79 -64t32 -108q0 -121 -96 -191t-240 -69q-94 0 -162 28q-68 27 -98 71
q-54 79 -49 157h205q2 -47 28 -79t79 -32zM1223 346h168l22 100q20 106 47 191q-24 -33 -237 -291zM1513 0h-194l41 195h-369l33 153l381 449h276l-98 -451h109l-47 -151h-93zM504 0h-189l1121 1366h190z" />
    <glyph glyph-name="questiondown" unicode="&#xbf;" horiz-adv-x="909" 
d="M442 1061h279l-70 -334h-278zM324 -154q156 0 200 222h250q-41 -217 -153 -324q-113 -106 -320 -106t-292 95t-85 224t60 212q58 83 168 177t146 144q36 49 52 128h277l-6 -28q-19 -98 -75 -175t-146 -154t-120 -107q-32 -30 -60 -82q-28 -51 -27 -103q0 -123 131 -123z
" />
    <glyph glyph-name="Agrave" unicode="&#xc0;" horiz-adv-x="1267" 
d="M455 1794h311l213 -285h-246zM791 1190h-5q-108 -261 -292 -621h342q-45 569 -45 621zM842 342h-447l-170 -342h-286q705 1384 714 1403h359l139 -1403h-274z" />
    <glyph glyph-name="Aacute" unicode="&#xc1;" horiz-adv-x="1267" 
d="M1036 1790h367l-422 -285h-279zM791 1190h-5q-108 -261 -292 -621h342q-45 569 -45 621zM842 342h-447l-170 -342h-286q705 1384 714 1403h359l139 -1403h-274z" />
    <glyph glyph-name="Acircumflex" unicode="&#xc2;" horiz-adv-x="1267" 
d="M758 1782h284l181 -285h-252l-88 143l-148 -143h-274zM791 1190h-5q-108 -261 -292 -621h342q-45 569 -45 621zM842 342h-447l-170 -342h-286q705 1384 714 1403h359l139 -1403h-274z" />
    <glyph glyph-name="Atilde" unicode="&#xc3;" horiz-adv-x="1267" 
d="M719 1798q76 0 172 -42t121 -42t36 14t23 72h186l-12 -57q-25 -131 -84 -180t-140 -49t-173 40q-92 41 -115 41q-39 0 -49 -53l-4 -22h-184l14 79q23 113 78 156t131 43zM791 1190h-5q-108 -261 -292 -621h342q-45 569 -45 621zM842 342h-447l-170 -342h-286
q705 1384 714 1403h359l139 -1403h-274z" />
    <glyph glyph-name="Adieresis" unicode="&#xc4;" horiz-adv-x="1267" 
d="M1147 1507h-219l55 262h219zM764 1507h-217l55 262h219zM791 1190h-5q-108 -261 -292 -621h342q-45 569 -45 621zM842 342h-447l-170 -342h-286q705 1384 714 1403h359l139 -1403h-274z" />
    <glyph glyph-name="Aring" unicode="&#xc5;" horiz-adv-x="1267" 
d="M971 1681q1 80 -89 80q-46 1 -77 -27t-31 -67t22 -61t66 -23q43 0 76 29t33 69zM1112 1702q0 -108 -78 -172t-186 -64t-162 50t-53 142q0 91 75 156q75 64 183 64q109 0 165 -50t56 -126zM791 1190h-5q-108 -261 -292 -621h342q-45 569 -45 621zM842 342h-447l-170 -342
h-286q705 1384 714 1403h359l139 -1403h-274z" />
    <glyph glyph-name="AE" unicode="&#xc6;" horiz-adv-x="1867" 
d="M629 651h270l117 533h-6q-66 -96 -195 -274t-186 -259zM885 1403h1052l-51 -227h-606l-72 -328h582l-47 -232h-584l-80 -387h676l-80 -229h-913l90 424h-387l-299 -424h-295z" />
    <glyph glyph-name="Ccedilla" unicode="&#xc7;" horiz-adv-x="1323" 
d="M803 -260q0 -96 -78 -150t-202 -55q-124 0 -204 37l52 149q45 -16 98 -16q80 0 80 55q0 49 -148 68l11 45l88 117q-190 37 -287 178q-96 141 -96 378t106 458q57 118 138 210t204 150t281 57t270 -69q207 -126 195 -394h-264q-7 89 -55 166q-48 78 -183 77t-230 -111
q-175 -202 -173 -535q0 -356 251 -356q117 0 184 54q66 55 113 159h279q-133 -401 -543 -430l-53 -62q166 -43 166 -180z" />
    <glyph glyph-name="Egrave" unicode="&#xc8;" horiz-adv-x="1153" 
d="M416 1806h311l213 -284h-246zM1067 846l-47 -230h-582l-82 -389h684l-82 -227h-919l297 1403h874l-49 -227h-604l-72 -330h582z" />
    <glyph glyph-name="Eacute" unicode="&#xc9;" horiz-adv-x="1153" 
d="M971 1802h366l-422 -284h-278zM1067 846l-47 -230h-582l-82 -389h684l-82 -227h-919l297 1403h874l-49 -227h-604l-72 -330h582z" />
    <glyph glyph-name="Ecircumflex" unicode="&#xca;" horiz-adv-x="1153" 
d="M702 1802h285l180 -284h-252l-88 143l-147 -143h-274zM1067 846l-47 -230h-582l-82 -389h684l-82 -227h-919l297 1403h874l-49 -227h-604l-72 -330h582z" />
    <glyph glyph-name="Edieresis" unicode="&#xcb;" horiz-adv-x="1153" 
d="M1092 1520h-220l56 262h219zM709 1520h-217l55 262h219zM1067 846l-47 -230h-582l-82 -389h684l-82 -227h-919l297 1403h874l-49 -227h-604l-72 -330h582z" />
    <glyph glyph-name="Igrave" unicode="&#xcc;" horiz-adv-x="581" 
d="M113 1806h311l213 -284h-246zM336 1403h276l-297 -1403h-276z" />
    <glyph glyph-name="Iacute" unicode="&#xcd;" horiz-adv-x="581" 
d="M680 1810h367l-422 -284h-279zM336 1403h276l-297 -1403h-276z" />
    <glyph glyph-name="Icircumflex" unicode="&#xce;" horiz-adv-x="581" 
d="M395 1800h285l180 -284h-252l-88 143l-147 -143h-275zM336 1403h276l-297 -1403h-276z" />
    <glyph glyph-name="Idieresis" unicode="&#xcf;" horiz-adv-x="581" 
d="M795 1538h-220l56 262h219zM412 1538h-217l55 262h219zM336 1403h276l-297 -1403h-276z" />
    <glyph glyph-name="Eth" unicode="&#xd0;" horiz-adv-x="1419" 
d="M606 217q154 0 264 87q206 163 205 507q0 191 -89 281t-232 90h-166l-76 -353h309l-41 -198h-309l-88 -414h223zM797 1403q275 0 423 -163q148 -164 148 -404t-81 -421t-254 -298t-412 -117h-562l134 631h-156l43 198h156l120 574h441z" />
    <glyph glyph-name="Ntilde" unicode="&#xd1;" horiz-adv-x="1388" 
d="M760 1810q76 0 172 -42t121 -42t36 14t23 72h186l-12 -57q-25 -131 -84 -180t-140 -49t-173 41t-115 41q-39 0 -49 -54l-4 -22h-184l14 80q23 114 78 156t131 42zM293 0h-254l297 1403h348l274 -1032h5q20 164 112 596l92 436h254l-297 -1403h-331l-279 1083h-4
q-31 -203 -125 -647z" />
    <glyph glyph-name="Ograve" unicode="&#xd2;" horiz-adv-x="1421" 
d="M502 1806h311l213 -284h-246zM815 1202q-104 0 -187 -66t-129 -168q-96 -215 -96 -436q0 -334 267 -333q106 1 190 67t131 169q96 211 94 431q0 336 -270 336zM842 1421q266 -1 399 -155t133 -408t-103 -472q-56 -118 -139 -207t-209 -144t-282 -55q-264 0 -394 152
t-130 400q0 249 103 467q56 119 137 212t207 151t278 59z" />
    <glyph glyph-name="Oacute" unicode="&#xd3;" horiz-adv-x="1421" 
d="M1038 1810h367l-422 -284h-278zM815 1202q-104 0 -187 -66t-129 -168q-96 -215 -96 -436q0 -334 267 -333q106 1 190 67t131 169q96 211 94 431q0 336 -270 336zM842 1421q266 -1 399 -155t133 -408t-103 -472q-56 -118 -139 -207t-209 -144t-282 -55q-264 0 -394 152
t-130 400q0 249 103 467q56 119 137 212t207 151t278 59z" />
    <glyph glyph-name="Ocircumflex" unicode="&#xd4;" horiz-adv-x="1421" 
d="M784 1804h285l180 -284h-252l-88 143l-147 -143h-275zM815 1202q-104 0 -187 -66t-129 -168q-96 -215 -96 -436q0 -334 267 -333q106 1 190 67t131 169q96 211 94 431q0 336 -270 336zM842 1421q266 -1 399 -155t133 -408t-103 -472q-56 -118 -139 -207t-209 -144
t-282 -55q-264 0 -394 152t-130 400q0 249 103 467q56 119 137 212t207 151t278 59z" />
    <glyph glyph-name="Otilde" unicode="&#xd5;" horiz-adv-x="1421" 
d="M748 1802q76 0 172 -42t120 -42t36 15q11 15 24 71h186l-12 -57q-25 -131 -84 -180q-58 -49 -140 -49t-174 41t-114 40q-39 0 -49 -53l-4 -22h-185l15 80q23 114 77 156q56 42 132 42zM815 1202q-104 0 -187 -66t-129 -168q-96 -215 -96 -436q0 -334 267 -333
q106 1 190 67t131 169q96 211 94 431q0 336 -270 336zM842 1421q266 -1 399 -155t133 -408t-103 -472q-56 -118 -139 -207t-209 -144t-282 -55q-264 0 -394 152t-130 400q0 249 103 467q56 119 137 212t207 151t278 59z" />
    <glyph glyph-name="Odieresis" unicode="&#xd6;" horiz-adv-x="1421" 
d="M1174 1526h-220l56 262h219zM791 1526h-218l56 262h219zM815 1202q-104 0 -187 -66t-129 -168q-96 -215 -96 -436q0 -334 267 -333q106 1 190 67t131 169q96 211 94 431q0 336 -270 336zM842 1421q266 -1 399 -155t133 -408t-103 -472q-56 -118 -139 -207t-209 -144
t-282 -55q-264 0 -394 152t-130 400q0 249 103 467q56 119 137 212t207 151t278 59z" />
    <glyph glyph-name="multiply" unicode="&#xd7;" horiz-adv-x="1212" 
d="M1098 160l-142 -150l-348 365l-350 -365l-141 150l350 360l-350 365l137 143l352 -362l352 362l140 -143l-350 -365z" />
    <glyph glyph-name="Oslash" unicode="&#xd8;" horiz-adv-x="1421" 
d="M660 195q116 -1 202 65t134 169q100 215 100 437q0 76 -15 131l-608 -725q71 -77 187 -77zM809 1208q-131 0 -231 -116t-142 -264t-43 -257q0 -109 13 -159l608 723q-74 73 -205 73zM842 1421q203 0 334 -96l67 82h182l-151 -180q100 -145 100 -384t-103 -457
q-56 -118 -139 -207t-209 -144q-127 -55 -307 -55t-309 96l-63 -76h-185l152 178q-94 143 -94 373t103 448q56 119 137 212t207 151t278 59z" />
    <glyph glyph-name="Ugrave" unicode="&#xd9;" horiz-adv-x="1325" 
d="M469 1786h311l213 -285h-245zM610 199q137 0 200 79q62 79 93 228l193 897h278l-190 -897q-27 -125 -62 -209q-88 -212 -275 -279q-110 -39 -265 -38q-291 0 -398 145q-106 145 -53 399l188 879h279l-192 -899q-68 -305 204 -305z" />
    <glyph glyph-name="Uacute" unicode="&#xda;" horiz-adv-x="1325" 
d="M1028 1792h367l-422 -285h-279zM610 199q137 0 200 79q62 79 93 228l193 897h278l-190 -897q-27 -125 -62 -209q-88 -212 -275 -279q-110 -39 -265 -38q-291 0 -398 145q-106 145 -53 399l188 879h279l-192 -899q-68 -305 204 -305z" />
    <glyph glyph-name="Ucircumflex" unicode="&#xdb;" horiz-adv-x="1325" 
d="M760 1798h284l181 -285h-252l-88 144l-148 -144h-274zM610 199q137 0 200 79q62 79 93 228l193 897h278l-190 -897q-27 -125 -62 -209q-88 -212 -275 -279q-110 -39 -265 -38q-291 0 -398 145q-106 145 -53 399l188 879h279l-192 -899q-68 -305 204 -305z" />
    <glyph glyph-name="Udieresis" unicode="&#xdc;" horiz-adv-x="1325" 
d="M1155 1513h-219l55 263h219zM772 1513h-217l55 263h219zM610 199q137 0 200 79q62 79 93 228l193 897h278l-190 -897q-27 -125 -62 -209q-88 -212 -275 -279q-110 -39 -265 -38q-291 0 -398 145q-106 145 -53 399l188 879h279l-192 -899q-68 -305 204 -305z" />
    <glyph glyph-name="Yacute" unicode="&#xdd;" horiz-adv-x="1138" 
d="M915 1772h367l-422 -285h-278zM590 0h-277l117 541q4 31 -2 45l-260 817h291q154 -584 159 -608q258 383 416 608h299l-610 -836q-16 -16 -21 -43z" />
    <glyph glyph-name="Thorn" unicode="&#xde;" horiz-adv-x="1196" 
d="M629 516q268 0 268 215q0 82 -49 130t-148 48h-190l-84 -393h203zM776 1128q192 0 300 -105t108 -259q0 -231 -152 -348t-397 -117h-256l-64 -299h-276l297 1403h276l-57 -275h221z" />
    <glyph glyph-name="germandbls" unicode="&#xdf;" horiz-adv-x="1222" 
d="M694 190q164 0 164 160q0 84 -100 176l-99 97q-96 81 -87 163t145 170l229 154q4 20 4 37q0 55 -50 98t-150 43t-154 -51q-55 -51 -84 -182l-223 -1055h-271l226 1071q51 233 179 333t348 99q220 0 332 -102t111 -248q0 -80 -16 -135l-332 -209l-2 -8l84 -84
q172 -174 172 -333t-86 -272q-45 -60 -130 -96t-199 -36q-201 0 -322 94l57 225q31 -37 105 -73q73 -36 149 -36z" />
    <glyph glyph-name="agrave" unicode="&#xe0;" horiz-adv-x="1085" 
d="M272 1501h314l213 -301h-221zM303 305q0 -119 125 -119q113 0 165 74t81 205l4 22q-111 0 -168 -8q-207 -29 -207 -174zM590 891q-57 0 -96 -25t-53 -48q-13 -24 -25 -60h-266q72 322 458 321q463 0 371 -428l-86 -399q-41 -188 -51 -252h-260q4 47 16 106
q-100 -125 -289 -124q-133 0 -209 78t-75 206q0 352 471 389q119 10 217 11l8 30q23 92 -5 144t-126 51z" />
    <glyph glyph-name="aacute" unicode="&#xe1;" horiz-adv-x="1085" 
d="M811 1501h328l-396 -301h-258zM303 305q0 -119 125 -119q113 0 165 74t81 205l4 22q-111 0 -168 -8q-207 -29 -207 -174zM590 891q-57 0 -96 -25t-53 -48q-13 -24 -25 -60h-266q72 322 458 321q463 0 371 -428l-86 -399q-41 -188 -51 -252h-260q4 47 16 106
q-100 -125 -289 -124q-133 0 -209 78t-75 206q0 352 471 389q119 10 217 11l8 30q23 92 -5 144t-126 51z" />
    <glyph glyph-name="acircumflex" unicode="&#xe2;" horiz-adv-x="1085" 
d="M592 1489h278l131 -303h-241l-62 149l-127 -149h-264zM303 305q0 -119 125 -119q113 0 165 74t81 205l4 22q-111 0 -168 -8q-207 -29 -207 -174zM590 891q-57 0 -96 -25t-53 -48q-13 -24 -25 -60h-266q72 322 458 321q463 0 371 -428l-86 -399q-41 -188 -51 -252h-260
q4 47 16 106q-100 -125 -289 -124q-133 0 -209 78t-75 206q0 352 471 389q119 10 217 11l8 30q23 92 -5 144t-126 51z" />
    <glyph glyph-name="atilde" unicode="&#xe3;" horiz-adv-x="1085" 
d="M537 1497q65 0 155 -43t115 -43q51 0 61 72l2 16h181l-15 -80q-20 -129 -75 -174t-131 -45t-164 41q-86 41 -109 41q-43 0 -53 -51l-4 -25h-185l15 90q33 201 207 201zM303 305q0 -119 125 -119q113 0 165 74t81 205l4 22q-111 0 -168 -8q-207 -29 -207 -174zM590 891
q-57 0 -96 -25t-53 -48q-13 -24 -25 -60h-266q72 322 458 321q463 0 371 -428l-86 -399q-41 -188 -51 -252h-260q4 47 16 106q-100 -125 -289 -124q-133 0 -209 78t-75 206q0 352 471 389q119 10 217 11l8 30q23 92 -5 144t-126 51z" />
    <glyph glyph-name="adieresis" unicode="&#xe4;" horiz-adv-x="1085" 
d="M944 1223h-211l55 256h211zM578 1223h-211l55 256h211zM303 305q0 -119 125 -119q113 0 165 74t81 205l4 22q-111 0 -168 -8q-207 -29 -207 -174zM590 891q-57 0 -96 -25t-53 -48q-13 -24 -25 -60h-266q72 322 458 321q463 0 371 -428l-86 -399q-41 -188 -51 -252h-260
q4 47 16 106q-100 -125 -289 -124q-133 0 -209 78t-75 206q0 352 471 389q119 10 217 11l8 30q23 92 -5 144t-126 51z" />
    <glyph glyph-name="aring" unicode="&#xe5;" horiz-adv-x="1085" 
d="M680 1278q43 0 76 29q32 29 32 69q-1 80 -83 80q-51 0 -82 -28t-31 -66q0 -84 88 -84zM666 1161q-108 0 -162 50q-53 50 -53 141t74 156q75 65 183 65t165 -50q56 -50 57 -126q0 -109 -78 -173t-186 -63zM303 305q0 -119 125 -119q113 0 165 74t81 205l4 22
q-111 0 -168 -8q-207 -29 -207 -174zM590 891q-57 0 -96 -25t-53 -48q-13 -24 -25 -60h-266q72 322 458 321q463 0 371 -428l-86 -399q-41 -188 -51 -252h-260q4 47 16 106q-100 -125 -289 -124q-133 0 -209 78t-75 206q0 352 471 389q119 10 217 11l8 30q23 92 -5 144
t-126 51z" />
    <glyph glyph-name="ae" unicode="&#xe6;" horiz-adv-x="1675" 
d="M1368 715q0 164 -160 164q-192 -1 -241 -228h393q8 31 8 64zM584 477q-279 0 -279 -174q0 -53 32 -85t91 -32q115 0 172 72t82 197l6 22h-104zM1234 1079q198 0 296 -99q96 -99 96 -265q0 -92 -41 -238h-651q-10 -51 -10 -90q0 -195 155 -194q126 0 174 101q10 19 25 54
h268q-57 -180 -174 -273t-319 -93q-242 0 -318 151q-80 -86 -172 -119q-93 -32 -231 -32t-222 84t-83 208q0 377 577 377h113l14 64q37 176 -133 176q-88 0 -125 -38t-59 -116h-267q66 342 455 342q127 1 207 -31t106 -81q121 112 319 112z" />
    <glyph glyph-name="ccedilla" unicode="&#xe7;" horiz-adv-x="1050" 
d="M639 -258q0 -96 -78 -150q-77 -54 -201 -55q-124 0 -204 37l51 150q45 -16 98 -17q80 0 80 55q0 49 -147 68l10 45l88 117q-283 55 -283 399q0 192 89 379t264 265q96 44 214 44t202 -39q85 -39 124 -101q77 -122 58 -255h-267q12 186 -135 186q-70 0 -125 -51
q-91 -84 -130 -283q-15 -77 -15 -145q0 -201 147 -201q80 0 125 40t80 120h266q-41 -144 -144 -244t-278 -120l-55 -64q166 -43 166 -180z" />
    <glyph glyph-name="egrave" unicode="&#xe8;" horiz-adv-x="1069" 
d="M274 1499h314l213 -301h-221zM756 715q0 164 -158 164q-96 0 -152 -72t-75 -166h377q8 35 8 74zM322 385q0 -193 157 -192q57 -1 99 23t59 48q16 24 37 64h270q-123 -346 -487 -346q-403 0 -404 426q0 209 124 425q62 107 178 177t268 69q190 0 290 -105t101 -272
q0 -98 -35 -235h-649q-8 -66 -8 -82z" />
    <glyph glyph-name="eacute" unicode="&#xe9;" horiz-adv-x="1069" 
d="M807 1499h328l-396 -301h-258zM756 715q0 164 -158 164q-96 0 -152 -72t-75 -166h377q8 35 8 74zM322 385q0 -193 157 -192q57 -1 99 23t59 48q16 24 37 64h270q-123 -346 -487 -346q-403 0 -404 426q0 209 124 425q62 107 178 177t268 69q190 0 290 -105t101 -272
q0 -98 -35 -235h-649q-8 -66 -8 -82z" />
    <glyph glyph-name="ecircumflex" unicode="&#xea;" horiz-adv-x="1069" 
d="M586 1489h278l131 -303h-241l-62 149l-127 -149h-264zM756 715q0 164 -158 164q-96 0 -152 -72t-75 -166h377q8 35 8 74zM322 385q0 -193 157 -192q57 -1 99 23t59 48q16 24 37 64h270q-123 -346 -487 -346q-403 0 -404 426q0 209 124 425q62 107 178 177t268 69
q190 0 290 -105t101 -272q0 -98 -35 -235h-649q-8 -66 -8 -82z" />
    <glyph glyph-name="edieresis" unicode="&#xeb;" horiz-adv-x="1069" 
d="M932 1223h-211l55 256h211zM565 1223h-211l56 256h211zM756 715q0 164 -158 164q-96 0 -152 -72t-75 -166h377q8 35 8 74zM322 385q0 -193 157 -192q57 -1 99 23t59 48q16 24 37 64h270q-123 -346 -487 -346q-403 0 -404 426q0 209 124 425q62 107 178 177t268 69
q190 0 290 -105t101 -272q0 -98 -35 -235h-649q-8 -66 -8 -82z" />
    <glyph glyph-name="igrave" unicode="&#xec;" horiz-adv-x="532" 
d="M4 1501h313l213 -301h-221zM16 0l226 1061h270l-225 -1061h-271z" />
    <glyph glyph-name="iacute" unicode="&#xed;" horiz-adv-x="532" 
d="M578 1501h327l-395 -301h-258zM16 0l226 1061h270l-225 -1061h-271z" />
    <glyph glyph-name="icircumflex" unicode="&#xee;" horiz-adv-x="532" 
d="M326 1489h278l131 -303h-241l-62 149l-127 -149h-264zM16 0l226 1061h270l-225 -1061h-271z" />
    <glyph glyph-name="idieresis" unicode="&#xef;" horiz-adv-x="532" 
d="M694 1223h-211l56 256h211zM328 1223h-211l55 256h211zM16 0l226 1061h270l-225 -1061h-271z" />
    <glyph glyph-name="eth" unicode="&#xf0;" horiz-adv-x="1101" 
d="M600 778q-131 0 -201 -116t-69 -265q0 -94 41 -147t116 -53t129 46q54 45 82 115q56 134 58 269q0 71 -38 111t-118 40zM457 -18q-195 0 -301 110t-107 293q-1 252 147 428t394 176q129 0 174 -41q-20 133 -115 213l-239 -145l-52 104l181 111q-104 47 -254 59l47 213
q262 -16 438 -131l225 139l54 -106l-183 -111q186 -190 187 -512q0 -241 -73 -430q-42 -108 -107 -188t-173 -131t-243 -51z" />
    <glyph glyph-name="ntilde" unicode="&#xf1;" horiz-adv-x="1138" 
d="M575 1497q68 0 158 -43t113 -43q51 0 61 72l2 16h181l-15 -80q-19 -129 -75 -174t-132 -45t-162 41t-110 41q-43 0 -53 -51l-4 -25h-185l15 90q33 201 206 201zM647 852q-90 0 -147 -61t-88 -201l-125 -590h-271l156 729q41 190 66 332h264q-6 -66 -21 -135
q109 154 299 153q162 0 233 -102t31 -283l-147 -694h-270l135 641q25 87 0 149t-115 62z" />
    <glyph glyph-name="ograve" unicode="&#xf2;" horiz-adv-x="1116" 
d="M303 1505h313l213 -301h-221zM778 682q0 182 -167 182q-89 0 -157 -79q-123 -144 -121 -366q1 -222 165 -222q72 0 129 48q98 83 136 274q15 77 15 163zM641 1079q203 1 307 -113t104 -310t-83 -365q-98 -195 -276 -269q-99 -42 -220 -42q-211 0 -315 116t-104 325
q0 210 132 423q66 104 184 170t271 65z" />
    <glyph glyph-name="oacute" unicode="&#xf3;" horiz-adv-x="1116" 
d="M827 1499h328l-395 -301h-258zM778 682q0 182 -167 182q-89 0 -157 -79q-123 -144 -121 -366q1 -222 165 -222q72 0 129 48q98 83 136 274q15 77 15 163zM641 1079q203 1 307 -113t104 -310t-83 -365q-98 -195 -276 -269q-99 -42 -220 -42q-211 0 -315 116t-104 325
q0 210 132 423q66 104 184 170t271 65z" />
    <glyph glyph-name="ocircumflex" unicode="&#xf4;" horiz-adv-x="1116" 
d="M614 1489h279l131 -303h-242l-61 149l-127 -149h-264zM778 682q0 182 -167 182q-89 0 -157 -79q-123 -144 -121 -366q1 -222 165 -222q72 0 129 48q98 83 136 274q15 77 15 163zM641 1079q203 1 307 -113t104 -310t-83 -365q-98 -195 -276 -269q-99 -42 -220 -42
q-211 0 -315 116t-104 325q0 210 132 423q66 104 184 170t271 65z" />
    <glyph glyph-name="otilde" unicode="&#xf5;" horiz-adv-x="1116" 
d="M819 1411q53 0 64 88h180l-14 -80q-19 -129 -75 -174t-132 -45t-163 41t-110 41q-43 0 -53 -51l-4 -25h-184l14 90q33 201 207 201q66 0 156 -43t114 -43zM778 682q0 182 -167 182q-89 0 -157 -79q-123 -144 -121 -366q1 -222 165 -222q72 0 129 48q98 83 136 274
q15 77 15 163zM641 1079q203 1 307 -113t104 -310t-83 -365q-98 -195 -276 -269q-99 -42 -220 -42q-211 0 -315 116t-104 325q0 210 132 423q66 104 184 170t271 65z" />
    <glyph glyph-name="odieresis" unicode="&#xf6;" horiz-adv-x="1116" 
d="M969 1223h-211l55 256h211zM602 1223h-211l55 256h211zM778 682q0 182 -167 182q-89 0 -157 -79q-123 -144 -121 -366q1 -222 165 -222q72 0 129 48q98 83 136 274q15 77 15 163zM641 1079q203 1 307 -113t104 -310t-83 -365q-98 -195 -276 -269q-99 -42 -220 -42
q-211 0 -315 116t-104 325q0 210 132 423q66 104 184 170t271 65z" />
    <glyph glyph-name="divide" unicode="&#xf7;" horiz-adv-x="1206" 
d="M711 776h-213v250h213v-250zM1098 412h-989v209h989v-209zM711 8h-213v248h213v-248z" />
    <glyph glyph-name="oslash" unicode="&#xf8;" horiz-adv-x="1116" 
d="M509 186q85 0 156 77q132 143 132 382q0 39 -6 70l-416 -479q49 -50 134 -50zM614 874q-137 0 -218 -145t-81 -313q0 -35 7 -70l415 481q-47 47 -123 47zM642 1079q153 0 253 -69l61 71h152l-133 -153q78 -104 78 -292t-84 -353q-157 -305 -513 -303q-138 0 -241 71
l-61 -71h-150l131 151q-82 115 -82 289q0 104 34 214q83 268 285 380q118 66 270 65z" />
    <glyph glyph-name="ugrave" unicode="&#xf9;" horiz-adv-x="1120" 
d="M297 1501h313l213 -301h-221zM1104 1061l-160 -748q-47 -217 -63 -313h-263q10 84 17 115q-59 -76 -130 -105t-173 -28q-150 0 -216 108t-28 285l145 686h269l-140 -660q-39 -201 107 -200q180 0 238 270l124 590h273z" />
    <glyph glyph-name="uacute" unicode="&#xfa;" horiz-adv-x="1120" 
d="M848 1501h328l-396 -301h-258zM1104 1061l-160 -748q-47 -217 -63 -313h-263q10 84 17 115q-59 -76 -130 -105t-173 -28q-150 0 -216 108t-28 285l145 686h269l-140 -660q-39 -201 107 -200q180 0 238 270l124 590h273z" />
    <glyph glyph-name="ucircumflex" unicode="&#xfb;" horiz-adv-x="1120" 
d="M627 1489h278l131 -303h-241l-62 149l-127 -149h-264zM1104 1061l-160 -748q-47 -217 -63 -313h-263q10 84 17 115q-59 -76 -130 -105t-173 -28q-150 0 -216 108t-28 285l145 686h269l-140 -660q-39 -201 107 -200q180 0 238 270l124 590h273z" />
    <glyph glyph-name="udieresis" unicode="&#xfc;" horiz-adv-x="1120" 
d="M977 1223h-211l55 256h211zM610 1223h-211l56 256h211zM1104 1061l-160 -748q-47 -217 -63 -313h-263q10 84 17 115q-59 -76 -130 -105t-173 -28q-150 0 -216 108t-28 285l145 686h269l-140 -660q-39 -201 107 -200q180 0 238 270l124 590h273z" />
    <glyph glyph-name="yacute" unicode="&#xfd;" horiz-adv-x="1005" 
d="M754 1501h327l-395 -301h-258zM426 252h2q289 657 365 809h282l-581 -1141q-58 -120 -110 -188t-112 -103t-113 -44q-55 -9 -137 -9t-133 10l48 226q37 -6 99 -6t102 39q42 40 85 135l-119 1081h275q7 -141 27 -431q20 -289 20 -378z" />
    <glyph glyph-name="thorn" unicode="&#xfe;" horiz-adv-x="1150" 
d="M813 683q0 85 -39 131t-115 46q-209 0 -272 -332q-68 -330 148 -329q76 0 133 51t87 127q30 77 44 149t14 157zM778 1079q154 0 236 -101t82 -282q0 -248 -125 -471q-61 -109 -167 -177t-243 -66q-199 0 -252 131l-110 -521h-269l404 1897h270l-115 -541q49 61 113 96
t176 35z" />
    <glyph glyph-name="ydieresis" unicode="&#xff;" horiz-adv-x="1005" 
d="M895 1223h-211l55 256h211zM528 1223h-211l56 256h211zM426 252h2q289 657 365 809h282l-581 -1141q-58 -120 -110 -188t-112 -103t-113 -44q-55 -9 -137 -9t-133 10l48 226q37 -6 99 -6t102 39q42 40 85 135l-119 1081h275q7 -141 27 -431q20 -289 20 -378z" />
    <glyph glyph-name="Amacron" unicode="&#x100;" horiz-adv-x="1267" 
d="M592 1749h598l-41 -201h-598zM791 1190h-5q-108 -261 -292 -621h342q-45 569 -45 621zM842 342h-447l-170 -342h-286q705 1384 714 1403h359l139 -1403h-274z" />
    <glyph glyph-name="amacron" unicode="&#x101;" horiz-adv-x="1085" 
d="M420 1446h586l-45 -215h-588zM303 305q0 -119 125 -119q113 0 165 74t81 205l4 22q-111 0 -168 -8q-207 -29 -207 -174zM590 891q-57 0 -96 -25t-53 -48q-13 -24 -25 -60h-266q72 322 458 321q463 0 371 -428l-86 -399q-41 -188 -51 -252h-260q4 47 16 106
q-100 -125 -289 -124q-133 0 -209 78t-75 206q0 352 471 389q119 10 217 11l8 30q23 92 -5 144t-126 51z" />
    <glyph glyph-name="Abreve" unicode="&#x102;" horiz-adv-x="1267" 
d="M743 1786q0 -113 117 -113t164 113h197q-109 -297 -383 -297q-166 0 -238 88q-71 88 -55 209h198zM791 1190h-5q-108 -261 -292 -621h342q-45 569 -45 621zM842 342h-447l-170 -342h-286q705 1384 714 1403h359l139 -1403h-274z" />
    <glyph glyph-name="abreve" unicode="&#x103;" horiz-adv-x="1085" 
d="M594 1473q0 -104 94 -105q59 0 90 28t53 77h193q-98 -301 -365 -302q-152 1 -215 89t-45 213h195zM303 305q0 -119 125 -119q113 0 165 74t81 205l4 22q-111 0 -168 -8q-207 -29 -207 -174zM590 891q-57 0 -96 -25t-53 -48q-13 -24 -25 -60h-266q72 322 458 321
q463 0 371 -428l-86 -399q-41 -188 -51 -252h-260q4 47 16 106q-100 -125 -289 -124q-133 0 -209 78t-75 206q0 352 471 389q119 10 217 11l8 30q23 92 -5 144t-126 51z" />
    <glyph glyph-name="Aogonek" unicode="&#x104;" horiz-adv-x="1267" 
d="M791 1190h-5q-108 -261 -292 -621h342q-45 569 -45 621zM983 -203q0 -35 27 -59t84 -23q57 0 104 15l-39 -179q-68 -33 -175 -33t-176 53q-69 52 -69 159q0 143 156 270h-18l-35 342h-447l-170 -342h-286q705 1384 714 1403h359l139 -1403q-168 -104 -168 -203z" />
    <glyph glyph-name="aogonek" unicode="&#x105;" horiz-adv-x="1085" 
d="M303 305q0 -119 125 -119q113 0 165 74t81 205l4 22q-111 0 -168 -8q-207 -29 -207 -174zM674 -203q0 -35 26 -59t84 -23q58 0 105 15l-39 -179q-68 -33 -175 -33t-176 53q-69 52 -69 159q0 143 156 270h-4q4 47 16 106q-100 -125 -289 -124q-133 0 -209 78t-75 206
q0 352 471 389q119 10 217 11l8 30q23 92 -5 144t-126 51q-57 0 -96 -25t-53 -48q-13 -24 -25 -60h-266q72 322 458 321q463 0 371 -428l-86 -399q-41 -188 -51 -252q-168 -104 -168 -203z" />
    <glyph glyph-name="Cacute" unicode="&#x106;" horiz-adv-x="1323" 
d="M1016 1806h366l-421 -284h-279zM625 -20q-252 0 -380 146t-128 401t106 477q57 118 138 210t204 150t281 57t270 -69q207 -126 195 -394h-264q-7 89 -55 166q-48 78 -183 77t-230 -111q-175 -202 -173 -535q0 -356 251 -356q117 0 184 54q66 55 113 159h279
q-141 -432 -608 -432z" />
    <glyph glyph-name="cacute" unicode="&#x107;" horiz-adv-x="1050" 
d="M811 1501h328l-396 -301h-258zM454 -18q-399 0 -401 409q0 192 89 379t264 265q96 44 214 44t202 -39q85 -39 124 -101q77 -122 58 -255h-267q12 186 -135 186q-70 0 -125 -51q-91 -84 -130 -283q-15 -77 -15 -145q0 -201 147 -201q80 0 125 40t80 120h266
q-47 -164 -170 -266t-326 -102z" />
    <glyph glyph-name="Ccircumflex" unicode="&#x108;" horiz-adv-x="1323" 
d="M791 1802h284l180 -284h-251l-89 143l-147 -143h-274zM625 -20q-252 0 -380 146t-128 401t106 477q57 118 138 210t204 150t281 57t270 -69q207 -126 195 -394h-264q-7 89 -55 166q-48 78 -183 77t-230 -111q-175 -202 -173 -535q0 -356 251 -356q117 0 184 54
q66 55 113 159h279q-141 -432 -608 -432z" />
    <glyph glyph-name="ccircumflex" unicode="&#x109;" horiz-adv-x="1050" 
d="M582 1489h278l131 -303h-241l-62 149l-127 -149h-264zM454 -18q-399 0 -401 409q0 192 89 379t264 265q96 44 214 44t202 -39q85 -39 124 -101q77 -122 58 -255h-267q12 186 -135 186q-70 0 -125 -51q-91 -84 -130 -283q-15 -77 -15 -145q0 -201 147 -201q80 0 125 40
t80 120h266q-47 -164 -170 -266t-326 -102z" />
    <glyph glyph-name="Cdotaccent" unicode="&#x10a;" horiz-adv-x="1323" 
d="M1016 1540h-277l56 262h276zM625 -20q-252 0 -380 146t-128 401t106 477q57 118 138 210t204 150t281 57t270 -69q207 -126 195 -394h-264q-7 89 -55 166q-48 78 -183 77t-230 -111q-175 -202 -173 -535q0 -356 251 -356q117 0 184 54q66 55 113 159h279
q-141 -432 -608 -432z" />
    <glyph glyph-name="cdotaccent" unicode="&#x10b;" horiz-adv-x="1050" 
d="M807 1225h-270l55 256h270zM454 -18q-399 0 -401 409q0 192 89 379t264 265q96 44 214 44t202 -39q85 -39 124 -101q77 -122 58 -255h-267q12 186 -135 186q-70 0 -125 -51q-91 -84 -130 -283q-15 -77 -15 -145q0 -201 147 -201q80 0 125 40t80 120h266
q-47 -164 -170 -266t-326 -102z" />
    <glyph glyph-name="Ccaron" unicode="&#x10c;" horiz-adv-x="1323" 
d="M1016 1518h-283l-180 284h250l90 -145l147 145h275zM625 -20q-252 0 -380 146t-128 401t106 477q57 118 138 210t204 150t281 57t270 -69q207 -126 195 -394h-264q-7 89 -55 166q-48 78 -183 77t-230 -111q-175 -202 -173 -535q0 -356 251 -356q117 0 184 54
q66 55 113 159h279q-141 -432 -608 -432z" />
    <glyph glyph-name="ccaron" unicode="&#x10d;" horiz-adv-x="1050" 
d="M793 1186h-279l-131 305h240l63 -150l127 150h262zM454 -18q-399 0 -401 409q0 192 89 379t264 265q96 44 214 44t202 -39q85 -39 124 -101q77 -122 58 -255h-267q12 186 -135 186q-70 0 -125 -51q-91 -84 -130 -283q-15 -77 -15 -145q0 -201 147 -201q80 0 125 40
t80 120h266q-47 -164 -170 -266t-326 -102z" />
    <glyph glyph-name="Dcaron" unicode="&#x10e;" horiz-adv-x="1398" 
d="M954 1513h-282l-180 285h249l90 -145l148 145h274zM586 217q154 0 264 87q206 163 205 507q0 191 -89 281t-233 90h-166l-205 -965h224zM776 1403q276 0 424 -163q148 -164 148 -404t-81 -421t-254 -298t-413 -117h-561l297 1403h440z" />
    <glyph glyph-name="dcaron" unicode="&#x10f;" horiz-adv-x="1302" 
d="M1333 1493h219l-120 -498h-201zM642 860q-106 0 -174 -79q-126 -144 -126 -366t158 -222q117 0 177 91t93 246q38 152 8 241t-136 89zM55 370q-1 180 57 332q58 154 184 266t294 111q106 0 173 -37t87 -84l115 531h270l-254 -1194q-6 -25 -59 -295h-265q2 20 19 115
q-53 -70 -121 -103t-176 -32q-152 0 -238 105t-86 285z" />
    <glyph glyph-name="Dcroat" unicode="&#x110;" horiz-adv-x="1419" 
d="M606 217q154 0 264 87q206 163 205 507q0 191 -89 281t-232 90h-166l-76 -353h309l-41 -198h-309l-88 -414h223zM797 1403q275 0 423 -163q148 -164 148 -404t-81 -421t-254 -298t-412 -117h-562l134 631h-156l43 198h156l120 574h441z" />
    <glyph glyph-name="dcroat" unicode="&#x111;" horiz-adv-x="1163" 
d="M634 842q-106 0 -173 -78q-121 -139 -121 -352q0 -214 154 -213q201 0 268 340q38 151 8 227t-136 76zM53 369q0 249 132 461q65 103 171 168t238 65q193 0 244 -123l53 248h-422l35 168h422l28 133h271l-29 -133h123l-37 -168h-121l-190 -893q-47 -237 -60 -295h-262
q6 57 19 117q-53 -72 -119 -105t-178 -32q-156 0 -237 102t-81 287z" />
    <glyph glyph-name="Emacron" unicode="&#x112;" horiz-adv-x="1153" 
d="M537 1751h598l-41 -201h-598zM1067 846l-47 -230h-582l-82 -389h684l-82 -227h-919l297 1403h874l-49 -227h-604l-72 -330h582z" />
    <glyph glyph-name="emacron" unicode="&#x113;" horiz-adv-x="1069" 
d="M418 1446h586l-46 -215h-587zM756 715q0 164 -158 164q-96 0 -152 -72t-75 -166h377q8 35 8 74zM322 385q0 -193 157 -192q57 -1 99 23t59 48q16 24 37 64h270q-123 -346 -487 -346q-403 0 -404 426q0 209 124 425q62 107 178 177t268 69q190 0 290 -105t101 -272
q0 -98 -35 -235h-649q-8 -66 -8 -82z" />
    <glyph glyph-name="Ebreve" unicode="&#x114;" horiz-adv-x="1153" 
d="M707 1806q1 -112 117 -112t163 112h197q-109 -297 -383 -297q-166 0 -238 88q-71 88 -55 209h199zM1067 846l-47 -230h-582l-82 -389h684l-82 -227h-919l297 1403h874l-49 -227h-604l-72 -330h582z" />
    <glyph glyph-name="ebreve" unicode="&#x115;" horiz-adv-x="1069" 
d="M590 1479q0 -104 94 -105q59 0 90 28t53 77h193q-98 -301 -365 -301q-152 0 -215 88t-45 213h195zM756 715q0 164 -158 164q-96 0 -152 -72t-75 -166h377q8 35 8 74zM322 385q0 -193 157 -192q57 -1 99 23t59 48q16 24 37 64h270q-123 -346 -487 -346q-403 0 -404 426
q0 209 124 425q62 107 178 177t268 69q190 0 290 -105t101 -272q0 -98 -35 -235h-649q-8 -66 -8 -82z" />
    <glyph glyph-name="Edotaccent" unicode="&#x116;" horiz-adv-x="1153" 
d="M930 1538h-277l56 262h276zM1067 846l-47 -230h-582l-82 -389h684l-82 -227h-919l297 1403h874l-49 -227h-604l-72 -330h582z" />
    <glyph glyph-name="edotaccent" unicode="&#x117;" horiz-adv-x="1069" 
d="M791 1225h-271l55 256h271zM756 715q0 164 -158 164q-96 0 -152 -72t-75 -166h377q8 35 8 74zM322 385q0 -193 157 -192q57 -1 99 23t59 48q16 24 37 64h270q-123 -346 -487 -346q-403 0 -404 426q0 209 124 425q62 107 178 177t268 69q190 0 290 -105t101 -272
q0 -98 -35 -235h-649q-8 -66 -8 -82z" />
    <glyph glyph-name="Eogonek" unicode="&#x118;" horiz-adv-x="1153" 
d="M702 -203q0 -35 27 -59t85 -23q58 0 104 15l-39 -179q-67 -33 -175 -33t-177 53q-69 52 -68 159q0 143 155 270h-575l297 1403h874l-49 -227h-604l-72 -330h582l-47 -230h-582l-82 -389h684l-82 -227h-88q-168 -104 -168 -203z" />
    <glyph glyph-name="eogonek" unicode="&#x119;" horiz-adv-x="1069" 
d="M756 715q0 164 -158 164q-96 0 -152 -72t-75 -166h377q8 35 8 74zM322 385q0 -193 157 -192q57 -1 99 23t59 48q16 24 37 64h270q-86 -242 -282 -314q-162 -104 -162 -198q0 -35 26 -59q26 -23 84 -23t105 14l-39 -178q-68 -33 -175 -33t-176 52t-69 168t119 229
q-322 43 -322 422q0 209 124 425q62 107 178 177t268 69q190 0 290 -105t101 -272q0 -98 -35 -235h-649q-8 -66 -8 -82z" />
    <glyph glyph-name="Ecaron" unicode="&#x11a;" horiz-adv-x="1153" 
d="M930 1518h-283l-180 284h250l90 -145l147 145h275zM1067 846l-47 -230h-582l-82 -389h684l-82 -227h-919l297 1403h874l-49 -227h-604l-72 -330h582z" />
    <glyph glyph-name="ecaron" unicode="&#x11b;" horiz-adv-x="1069" 
d="M801 1186h-279l-131 305h240l63 -150l127 150h262zM756 715q0 164 -158 164q-96 0 -152 -72t-75 -166h377q8 35 8 74zM322 385q0 -193 157 -192q57 -1 99 23t59 48q16 24 37 64h270q-123 -346 -487 -346q-403 0 -404 426q0 209 124 425q62 107 178 177t268 69
q190 0 290 -105t101 -272q0 -98 -35 -235h-649q-8 -66 -8 -82z" />
    <glyph glyph-name="Gcircumflex" unicode="&#x11c;" horiz-adv-x="1372" 
d="M788 1802h285l180 -284h-252l-88 143l-147 -143h-274zM391 539q0 -342 272 -342q140 0 214 94t106 256l2 8h-291l54 229h561q-156 -717 -166 -784h-209q2 41 18 139q-68 -86 -158 -123t-229 -36q-229 0 -345 150t-116 405q0 256 125 497q125 240 354 336q126 53 273 53
q233 0 363 -119q129 -120 131 -321h-273q-10 219 -243 219q-113 0 -202 -62t-139 -162q-102 -206 -102 -437z" />
    <glyph glyph-name="gcircumflex" unicode="&#x11d;" horiz-adv-x="1155" 
d="M633 1507h278l131 -303h-241l-62 150l-127 -150h-264zM621 860q-133 0 -205 -136t-72 -278q0 -213 162 -213q199 0 264 297q68 330 -149 330zM38 -306q-77 99 -71 232h260q6 -145 168 -145q123 1 176 69t93 234l14 55q-96 -125 -287 -125q-156 0 -245 106t-89 319
q0 212 133 419q64 98 166 160t218 61q116 0 186 -42t86 -97q12 51 33 121h264q-31 -113 -76 -320l-139 -657q-27 -123 -61 -205t-94 -157q-117 -146 -380 -146t-355 118z" />
    <glyph glyph-name="Gbreve" unicode="&#x11e;" horiz-adv-x="1372" 
d="M793 1806q1 -112 117 -112t163 112h197q-109 -297 -383 -297q-166 0 -238 88q-71 88 -55 209h199zM391 539q0 -342 272 -342q140 0 214 94t106 256l2 8h-291l54 229h561q-156 -717 -166 -784h-209q2 41 18 139q-68 -86 -158 -123t-229 -36q-229 0 -345 150t-116 405
q0 256 125 497q125 240 354 336q126 53 273 53q233 0 363 -119q129 -120 131 -321h-273q-10 219 -243 219q-113 0 -202 -62t-139 -162q-102 -206 -102 -437z" />
    <glyph glyph-name="gbreve" unicode="&#x11f;" horiz-adv-x="1155" 
d="M610 1481q0 -104 95 -105q59 0 90 28t53 77h192q-98 -301 -364 -301q-152 0 -215 88t-45 213h194zM621 860q-133 0 -205 -136t-72 -278q0 -213 162 -213q199 0 264 297q68 330 -149 330zM38 -306q-77 99 -71 232h260q6 -145 168 -145q123 1 176 69t93 234l14 55
q-96 -125 -287 -125q-156 0 -245 106t-89 319q0 212 133 419q64 98 166 160t218 61q116 0 186 -42t86 -97q12 51 33 121h264q-31 -113 -76 -320l-139 -657q-27 -123 -61 -205t-94 -157q-117 -146 -380 -146t-355 118z" />
    <glyph glyph-name="Gdotaccent" unicode="&#x120;" horiz-adv-x="1372" 
d="M1018 1532h-277l56 262h276zM391 539q0 -342 272 -342q140 0 214 94t106 256l2 8h-291l54 229h561q-156 -717 -166 -784h-209q2 41 18 139q-68 -86 -158 -123t-229 -36q-229 0 -345 150t-116 405q0 256 125 497q125 240 354 336q126 53 273 53q233 0 363 -119
q129 -120 131 -321h-273q-10 219 -243 219q-113 0 -202 -62t-139 -162q-102 -206 -102 -437z" />
    <glyph glyph-name="gdotaccent" unicode="&#x121;" horiz-adv-x="1155" 
d="M805 1225h-270l55 256h270zM621 860q-133 0 -205 -136t-72 -278q0 -213 162 -213q199 0 264 297q68 330 -149 330zM38 -306q-77 99 -71 232h260q6 -145 168 -145q123 1 176 69t93 234l14 55q-96 -125 -287 -125q-156 0 -245 106t-89 319q0 212 133 419q64 98 166 160
t218 61q116 0 186 -42t86 -97q12 51 33 121h264q-31 -113 -76 -320l-139 -657q-27 -123 -61 -205t-94 -157q-117 -146 -380 -146t-355 118z" />
    <glyph glyph-name="uni0122" unicode="&#x122;" horiz-adv-x="1372" 
d="M592 -483h-252q115 174 168 374h264q-57 -231 -180 -374zM391 539q0 -342 272 -342q140 0 214 94t106 256l2 8h-291l54 229h561q-156 -717 -166 -784h-209q2 41 18 139q-68 -86 -158 -123t-229 -36q-229 0 -345 150t-116 405q0 256 125 497q125 240 354 336
q126 53 273 53q233 0 363 -119q129 -120 131 -321h-273q-10 219 -243 219q-113 0 -202 -62t-139 -162q-102 -206 -102 -437z" />
    <glyph glyph-name="uni0123" unicode="&#x123;" horiz-adv-x="1155" 
d="M621 860q-133 0 -205 -136t-72 -278q0 -213 162 -213q199 0 264 297q68 330 -149 330zM38 -306q-77 99 -71 232h260q6 -145 168 -145q123 1 176 69t93 234l14 55q-96 -125 -287 -125q-156 0 -245 106t-89 319q0 212 133 419q64 98 166 160t218 61q116 0 186 -42t86 -97
q12 51 33 121h264q-31 -113 -76 -320l-139 -657q-27 -123 -61 -205t-94 -157q-117 -146 -380 -146t-355 118zM723 1565h246q-133 -207 -174 -377h-273q58 209 201 377z" />
    <glyph glyph-name="Hcircumflex" unicode="&#x124;" horiz-adv-x="1355" 
d="M784 1802h285l180 -284h-252l-88 143l-147 -143h-275zM39 0l297 1403h276l-118 -557h497l119 557h279l-297 -1403h-279l129 616h-498l-129 -616h-276z" />
    <glyph glyph-name="hcircumflex" unicode="&#x125;" horiz-adv-x="1138" 
d="M653 858q-184 0 -241 -272l-125 -586h-271l316 1489h270l-119 -559q115 150 308 149q149 0 221 -101t28 -302l-143 -676h-266l139 659q20 94 -4 147q-25 52 -113 52zM391 1810h277l168 -245h-234l-92 123l-141 -123h-252z" />
    <glyph glyph-name="Hbar" unicode="&#x126;" horiz-adv-x="1355" 
d="M39 0l215 1014h-127l41 188h125l43 201h276l-43 -201h498l43 201h279l-43 -201h127l-39 -188h-127l-215 -1014h-279l127 598h-498l-127 -598h-276zM489 827h498l39 187h-498z" />
    <glyph glyph-name="hbar" unicode="&#x127;" horiz-adv-x="1138" 
d="M786 1059q152 0 225 -92t29 -291l-143 -676h-266l135 641q20 94 -4 145q-25 51 -115 52q-180 0 -239 -273l-121 -565h-271l252 1188h-139l37 168h137l29 133h270l-29 -133h406l-35 -168h-405l-60 -279q115 150 307 150z" />
    <glyph glyph-name="Itilde" unicode="&#x128;" horiz-adv-x="581" 
d="M375 1790q76 0 172 -42t121 -42t36 14t23 72h186l-12 -57q-25 -131 -84 -181t-140 -49q-81 0 -173 41t-115 41q-39 0 -49 -53l-4 -23h-184l14 80q23 113 78 156t131 43zM336 1403h276l-297 -1403h-276z" />
    <glyph glyph-name="itilde" unicode="&#x129;" horiz-adv-x="532" 
d="M565 1411q53 0 64 88h180l-14 -80q-19 -129 -75 -174t-132 -45t-163 41t-110 41q-43 0 -53 -51l-4 -25h-184l14 90q33 201 207 201q66 0 156 -43t114 -43zM16 0l226 1061h270l-225 -1061h-271z" />
    <glyph glyph-name="Imacron" unicode="&#x12a;" horiz-adv-x="581" 
d="M250 1751h598l-41 -201h-598zM336 1403h276l-297 -1403h-276z" />
    <glyph glyph-name="imacron" unicode="&#x12b;" horiz-adv-x="532" 
d="M162 1446h586l-46 -215h-587zM16 0l226 1061h270l-225 -1061h-271z" />
    <glyph glyph-name="Iogonek" unicode="&#x12e;" horiz-adv-x="581" 
d="M147 -203q0 -35 27 -59q26 -24 84 -23q58 0 104 15l-38 -179q-68 -33 -176 -33t-176 53q-69 52 -68 159q0 143 155 270h-20l297 1403h276l-297 -1403q-168 -104 -168 -203z" />
    <glyph glyph-name="iogonek" unicode="&#x12f;" horiz-adv-x="532" 
d="M276 1233l54 256h272l-55 -256h-271zM119 -203q1 -35 27 -59t84 -23q58 0 104 15l-39 -179q-68 -33 -175 -33t-176 53q-69 52 -69 159q0 143 156 270h-15l226 1061h270l-225 -1061q-168 -104 -168 -203z" />
    <glyph glyph-name="Idotaccent" unicode="&#x130;" horiz-adv-x="581" 
d="M643 1540h-276l55 262h276zM336 1403h276l-297 -1403h-276z" />
    <glyph glyph-name="dotlessi" unicode="&#x131;" horiz-adv-x="532" 
d="M16 0l226 1061h270l-225 -1061h-271z" />
    <glyph glyph-name="Jcircumflex" unicode="&#x134;" horiz-adv-x="739" 
d="M561 1786h285l180 -285h-252l-88 144l-147 -144h-275zM145 -18q-117 0 -190 24l45 217q53 -12 125 -12t112 42q39 42 64 159l211 991h279l-209 -985q-52 -240 -146 -338t-291 -98z" />
    <glyph glyph-name="jcircumflex" unicode="&#x135;" horiz-adv-x="530" 
d="M328 1489h278l131 -303h-241l-62 149l-127 -149h-264zM-213 -412l49 215q25 -4 66 -4q40 0 62 28t38 110l240 1124h270l-223 -1047q-51 -234 -92 -305t-95 -95q-84 -38 -178 -38t-137 12z" />
    <glyph glyph-name="uni0136" unicode="&#x136;" horiz-adv-x="1251" 
d="M526 -463h-252q115 174 168 375h265q-58 -232 -181 -375zM39 0l297 1403h272l-135 -617q330 326 614 617h340l-610 -582l342 -821h-299l-258 649l-188 -164l-103 -485h-272z" />
    <glyph glyph-name="uni0137" unicode="&#x137;" horiz-adv-x="1040" 
d="M397 -481h-252q115 174 168 375h265q-58 -232 -181 -375zM420 639l409 422h316q-90 -94 -422 -410q39 -109 116 -331t113 -320h-284q-20 61 -75 234q-54 173 -75 239q-35 -30 -162 -135l-69 -338h-271l316 1489h270z" />
    <glyph glyph-name="kgreenlandic" unicode="&#x138;" horiz-adv-x="1026" 
d="M514 1061l-92 -422q217 225 405 422h316q-184 -190 -424 -416q122 -318 231 -645h-284q-16 45 -72 222q-55 177 -80 245q-147 -125 -156 -133l-69 -334h-271l226 1061h270z" />
    <glyph glyph-name="Lacute" unicode="&#x139;" horiz-adv-x="1073" 
d="M700 1800h367l-422 -284h-278zM39 0l297 1403h276l-250 -1176h609l-76 -227h-856z" />
    <glyph glyph-name="lacute" unicode="&#x13a;" horiz-adv-x="530" 
d="M287 0h-271l314 1489h272zM625 1827h323l-346 -246h-260z" />
    <glyph glyph-name="uni013B" unicode="&#x13b;" horiz-adv-x="1073" 
d="M442 -481h-252q115 174 168 375h265q-58 -232 -181 -375zM39 0l297 1403h276l-250 -1176h609l-76 -227h-856z" />
    <glyph glyph-name="uni013C" unicode="&#x13c;" horiz-adv-x="530" 
d="M80 -492h-252q115 174 168 375h264q-57 -232 -180 -375zM287 0h-271l314 1489h272z" />
    <glyph glyph-name="Lcaron" unicode="&#x13d;" horiz-adv-x="1073" 
d="M862 1403h219l-120 -498h-201zM39 0l297 1403h276l-250 -1176h609l-76 -227h-856z" />
    <glyph glyph-name="lcaron" unicode="&#x13e;" horiz-adv-x="681" 
d="M709 1491h219l-121 -498h-201zM287 0h-271l314 1489h272z" />
    <glyph glyph-name="Ldot" unicode="&#x13f;" horiz-adv-x="1073" 
d="M39 0l297 1403h276l-250 -1176h609l-76 -227h-856zM950 633h-243l63 301h246z" />
    <glyph glyph-name="ldot" unicode="&#x140;" horiz-adv-x="735" 
d="M287 0h-271l314 1489h272zM809 735h-264l67 326h265z" />
    <glyph glyph-name="Lslash" unicode="&#x141;" horiz-adv-x="1093" 
d="M788 784l-313 -125l-92 -432h608l-76 -227h-856l115 541l-178 -70l43 215l180 70l137 647h277l-113 -531l316 123z" />
    <glyph glyph-name="lslash" unicode="&#x142;" horiz-adv-x="550" 
d="M305 0h-270l137 655l-135 -57l47 219l135 57l129 615h273l-103 -488l150 64l-45 -221l-152 -64z" />
    <glyph glyph-name="Nacute" unicode="&#x143;" horiz-adv-x="1388" 
d="M1044 1790h367l-422 -285h-278zM293 0h-254l297 1403h348l274 -1032h5q20 164 112 596l92 436h254l-297 -1403h-331l-279 1083h-4q-31 -203 -125 -647z" />
    <glyph glyph-name="nacute" unicode="&#x144;" horiz-adv-x="1138" 
d="M850 1520h328l-396 -301h-258zM647 852q-90 0 -147 -61t-88 -201l-125 -590h-271l156 729q41 190 66 332h264q-6 -66 -21 -135q109 154 299 153q162 0 233 -102t31 -283l-147 -694h-270l135 641q25 87 0 149t-115 62z" />
    <glyph glyph-name="uni0145" unicode="&#x145;" horiz-adv-x="1388" 
d="M553 -463h-252q115 174 168 375h264q-57 -232 -180 -375zM293 0h-254l297 1403h348l274 -1032h5q20 164 112 596l92 436h254l-297 -1403h-331l-279 1083h-4q-31 -203 -125 -647z" />
    <glyph glyph-name="uni0146" unicode="&#x146;" horiz-adv-x="1138" 
d="M393 -481h-252q115 174 168 375h264q-57 -232 -180 -375zM647 852q-90 0 -147 -61t-88 -201l-125 -590h-271l156 729q41 190 66 332h264q-6 -66 -21 -135q109 154 299 153q162 0 233 -102t31 -283l-147 -694h-270l135 641q25 87 0 149t-115 62z" />
    <glyph glyph-name="Ncaron" unicode="&#x147;" horiz-adv-x="1388" 
d="M1024 1497h-283l-180 285h250l90 -146l148 146h274zM293 0h-254l297 1403h348l274 -1032h5q20 164 112 596l92 436h254l-297 -1403h-331l-279 1083h-4q-31 -203 -125 -647z" />
    <glyph glyph-name="ncaron" unicode="&#x148;" horiz-adv-x="1138" 
d="M815 1186h-278l-131 305h239l64 -150l127 150h262zM647 852q-90 0 -147 -61t-88 -201l-125 -590h-271l156 729q41 190 66 332h264q-6 -66 -21 -135q109 154 299 153q162 0 233 -102t31 -283l-147 -694h-270l135 641q25 87 0 149t-115 62z" />
    <glyph glyph-name="napostrophe" unicode="&#x149;" horiz-adv-x="1138" 
d="M647 852q-90 0 -147 -61t-88 -201l-125 -590h-271l156 729q41 190 66 332h264q-6 -66 -21 -135q109 154 299 153q162 0 233 -102t31 -283l-147 -694h-270l135 641q25 87 0 149t-115 62zM299 1186h-199q115 213 166 428h234q-70 -266 -201 -428z" />
    <glyph glyph-name="Omacron" unicode="&#x14c;" horiz-adv-x="1421" 
d="M639 1749h598l-41 -201h-598zM815 1202q-104 0 -187 -66t-129 -168q-96 -215 -96 -436q0 -334 267 -333q106 1 190 67t131 169q96 211 94 431q0 336 -270 336zM842 1421q266 -1 399 -155t133 -408t-103 -472q-56 -118 -139 -207t-209 -144t-282 -55q-264 0 -394 152
t-130 400q0 249 103 467q56 119 137 212t207 151t278 59z" />
    <glyph glyph-name="omacron" unicode="&#x14d;" horiz-adv-x="1116" 
d="M432 1446h586l-45 -215h-588zM778 682q0 182 -167 182q-89 0 -157 -79q-123 -144 -121 -366q1 -222 165 -222q72 0 129 48q98 83 136 274q15 77 15 163zM641 1079q203 1 307 -113t104 -310t-83 -365q-98 -195 -276 -269q-99 -42 -220 -42q-211 0 -315 116t-104 325
q0 210 132 423q66 104 184 170t271 65z" />
    <glyph glyph-name="Ohungarumlaut" unicode="&#x150;" horiz-adv-x="1421" 
d="M1186 1804h282l-311 -282h-233zM770 1804h285l-314 -282h-231zM815 1202q-104 0 -187 -66t-129 -168q-96 -215 -96 -436q0 -334 267 -333q106 1 190 67t131 169q96 211 94 431q0 336 -270 336zM842 1421q266 -1 399 -155t133 -408t-103 -472q-56 -118 -139 -207
t-209 -144t-282 -55q-264 0 -394 152t-130 400q0 249 103 467q56 119 137 212t207 151t278 59z" />
    <glyph glyph-name="ohungarumlaut" unicode="&#x151;" horiz-adv-x="1116" 
d="M1270 1468l-291 -301h-225l250 301h266zM868 1468l-295 -301h-221l248 301h268zM778 682q0 182 -167 182q-89 0 -157 -79q-123 -144 -121 -366q1 -222 165 -222q72 0 129 48q98 83 136 274q15 77 15 163zM641 1079q203 1 307 -113t104 -310t-83 -365q-98 -195 -276 -269
q-99 -42 -220 -42q-211 0 -315 116t-104 325q0 210 132 423q66 104 184 170t271 65z" />
    <glyph glyph-name="OE" unicode="&#x152;" horiz-adv-x="1964" 
d="M963 1407l268 -4h794l-49 -227h-608l-70 -330h582l-47 -230h-584l-82 -389h684l-79 -227h-828l-219 -6q-301 0 -452 160t-150 424q0 356 224 592t616 237zM412 584q0 -176 92 -270t266 -95q74 0 131 6l197 946q-49 10 -160 11q-254 0 -390 -166t-136 -432z" />
    <glyph glyph-name="oe" unicode="&#x153;" horiz-adv-x="1773" 
d="M614 864q-92 0 -160 -79q-123 -144 -121 -366q1 -222 165 -222q72 0 129 48q98 83 136 274q15 77 15 145q0 200 -164 200zM1460 715q0 164 -157 164q-96 0 -152 -72t-76 -166h377q8 35 8 74zM1161 -18q-225 0 -321 141q-150 -143 -364 -143t-318 116t-104 326
q0 211 133 422q67 104 185 170t269 65q223 0 328 -143q143 143 345 143t304 -105q100 -105 100 -272q0 -98 -35 -235h-649q-6 -49 -6 -72q0 -203 156 -202q92 0 128 41q37 41 66 94h271q-123 -346 -488 -346z" />
    <glyph glyph-name="Racute" unicode="&#x154;" horiz-adv-x="1236" 
d="M961 1810h366l-422 -284h-278zM692 805q270 0 271 215q1 86 -55 125t-140 39h-207l-80 -379h211zM631 586h-197l-123 -586h-272l297 1403h487q201 0 313 -97q112 -98 112 -244t-71 -242q-71 -95 -192 -140q150 -84 92 -369q-41 -190 -47 -311h-274q0 92 49 322
q14 80 14 138t-46 92t-142 34z" />
    <glyph glyph-name="racute" unicode="&#x155;" horiz-adv-x="747" 
d="M670 1501h327l-395 -301h-258zM823 1077l-61 -278q-158 4 -247 -72t-126 -246l-102 -481h-271l150 700q57 274 72 361h260q-4 -61 -31 -193q120 209 356 209z" />
    <glyph glyph-name="uni0156" unicode="&#x156;" horiz-adv-x="1236" 
d="M477 -481h-252q115 174 168 375h264q-57 -232 -180 -375zM692 805q270 0 271 215q1 86 -55 125t-140 39h-207l-80 -379h211zM631 586h-197l-123 -586h-272l297 1403h487q201 0 313 -97q112 -98 112 -244t-71 -242q-71 -95 -192 -140q150 -84 92 -369q-41 -190 -47 -311
h-274q0 92 49 322q14 80 14 138t-46 92t-142 34z" />
    <glyph glyph-name="uni0157" unicode="&#x157;" horiz-adv-x="747" 
d="M82 -496h-252q115 174 168 375h264q-57 -232 -180 -375zM823 1077l-61 -278q-158 4 -247 -72t-126 -246l-102 -481h-271l150 700q57 274 72 361h260q-4 -61 -31 -193q120 209 356 209z" />
    <glyph glyph-name="Rcaron" unicode="&#x158;" horiz-adv-x="1236" 
d="M924 1518h-283l-180 284h250l90 -145l147 145h275zM692 805q270 0 271 215q1 86 -55 125t-140 39h-207l-80 -379h211zM631 586h-197l-123 -586h-272l297 1403h487q201 0 313 -97q112 -98 112 -244t-71 -242q-71 -95 -192 -140q150 -84 92 -369q-41 -190 -47 -311h-274
q0 92 49 322q14 80 14 138t-46 92t-142 34z" />
    <glyph glyph-name="rcaron" unicode="&#x159;" horiz-adv-x="747" 
d="M664 1186h-279l-131 305h240l63 -150l127 150h262zM823 1077l-61 -278q-158 4 -247 -72t-126 -246l-102 -481h-271l150 700q57 274 72 361h260q-4 -61 -31 -193q120 209 356 209z" />
    <glyph glyph-name="Sacute" unicode="&#x15a;" horiz-adv-x="1173" 
d="M913 1810h367l-422 -284h-278zM786 375q0 88 -46 138t-173 108q-201 88 -281 173t-79 220q0 178 125 293t351 115t349 -116t121 -294h-270q-14 201 -217 200q-90 0 -136 -44t-45 -112q0 -68 47 -109q47 -40 173 -95q213 -94 293 -192t79 -230q0 -201 -137 -326
q-137 -124 -389 -124t-374 118t-128 314h270q29 -223 250 -224q97 0 157 50t60 137z" />
    <glyph glyph-name="sacute" unicode="&#x15b;" horiz-adv-x="954" 
d="M727 1497h328l-396 -301h-258zM444 176q139 0 140 113q0 49 -40 82t-164 85t-190 119q-66 68 -65 179q0 147 105 236t301 89t293 -97t94 -234h-263q-6 135 -141 135q-51 0 -86 -24t-35 -69q0 -44 32 -68t162 -80t203 -126q73 -72 72 -188q0 -150 -110 -248t-318 -98
t-316 92t-104 258h271q8 -156 159 -156z" />
    <glyph glyph-name="Scircumflex" unicode="&#x15c;" horiz-adv-x="1173" 
d="M670 1802h284l181 -284h-252l-88 143l-148 -143h-274zM786 375q0 88 -46 138t-173 108q-201 88 -281 173t-79 220q0 178 125 293t351 115t349 -116t121 -294h-270q-14 201 -217 200q-90 0 -136 -44t-45 -112q0 -68 47 -109q47 -40 173 -95q213 -94 293 -192t79 -230
q0 -201 -137 -326q-137 -124 -389 -124t-374 118t-128 314h270q29 -223 250 -224q97 0 157 50t60 137z" />
    <glyph glyph-name="scircumflex" unicode="&#x15d;" horiz-adv-x="954" 
d="M532 1489h279l131 -303h-242l-61 149l-127 -149h-264zM444 176q139 0 140 113q0 49 -40 82t-164 85t-190 119q-66 68 -65 179q0 147 105 236t301 89t293 -97t94 -234h-263q-6 135 -141 135q-51 0 -86 -24t-35 -69q0 -44 32 -68t162 -80t203 -126q73 -72 72 -188
q0 -150 -110 -248t-318 -98t-316 92t-104 258h271q8 -156 159 -156z" />
    <glyph glyph-name="uni015E" unicode="&#x15e;" horiz-adv-x="1173" 
d="M786 375q0 88 -46 138t-173 108q-201 88 -281 173t-79 220q0 178 125 293t351 115t349 -116t121 -294h-270q-14 201 -217 200q-90 0 -136 -44t-45 -112q0 -68 47 -109q47 -40 173 -95q213 -94 293 -192t79 -230q0 -188 -120 -310t-347 -138l-53 -64q166 -43 166 -180
q0 -96 -78 -150q-77 -54 -201 -55q-124 0 -204 37l51 149q45 -16 98 -16q80 0 80 55q0 49 -147 68l10 45l88 119q-182 29 -275 141q-92 113 -96 281h270q29 -223 250 -224q97 0 157 50t60 137z" />
    <glyph glyph-name="uni015F" unicode="&#x15f;" horiz-adv-x="954" 
d="M444 176q139 0 140 113q0 49 -40 82t-164 85t-190 119q-66 68 -65 179q0 147 105 236t301 89t293 -97t94 -234h-263q-6 135 -141 135q-51 0 -86 -24t-35 -69q0 -44 32 -68t162 -80t203 -126q72 -72 72 -198t-92 -222t-276 -112l-58 -66q166 -43 166 -180q0 -96 -78 -150
t-202 -55q-124 0 -203 37l51 149q45 -16 98 -16q80 0 80 55q0 49 -147 68l10 45l90 121q-141 27 -215 115t-72 225h271q8 -156 159 -156z" />
    <glyph glyph-name="Scaron" unicode="&#x160;" horiz-adv-x="1173" 
d="M897 1518h-283l-180 284h250l90 -145l148 145h274zM786 375q0 88 -46 138t-173 108q-201 88 -281 173t-79 220q0 178 125 293t351 115t349 -116t121 -294h-270q-14 201 -217 200q-90 0 -136 -44t-45 -112q0 -68 47 -109q47 -40 173 -95q213 -94 293 -192t79 -230
q0 -201 -137 -326q-137 -124 -389 -124t-374 118t-128 314h270q29 -223 250 -224q97 0 157 50t60 137z" />
    <glyph glyph-name="scaron" unicode="&#x161;" horiz-adv-x="954" 
d="M721 1186h-279l-131 305h240l63 -150l127 150h263zM444 176q139 0 140 113q0 49 -40 82t-164 85t-190 119q-66 68 -65 179q0 147 105 236t301 89t293 -97t94 -234h-263q-6 135 -141 135q-51 0 -86 -24t-35 -69q0 -44 32 -68t162 -80t203 -126q73 -72 72 -188
q0 -150 -110 -248t-318 -98t-316 92t-104 258h271q8 -156 159 -156z" />
    <glyph glyph-name="uni0162" unicode="&#x162;" horiz-adv-x="1077" 
d="M633 -262q0 -96 -78 -150t-202 -55q-124 0 -203 37l51 149q45 -16 98 -16q80 0 80 55q0 49 -148 68l11 45l96 129h-51l248 1176h-367l49 227h1016l-49 -227h-369l-248 -1176h-30l-70 -82q166 -43 166 -180z" />
    <glyph glyph-name="uni0163" unicode="&#x163;" horiz-adv-x="645" 
d="M451 188q12 0 98 13l-39 -185q-51 -20 -131 -24l-62 -72q166 -43 166 -180q0 -96 -77 -151q-78 -54 -202 -54t-204 37l51 149q45 -16 99 -16q80 0 79 55q0 49 -147 68l10 45l103 137q-143 51 -99 262l127 580h-157l47 209h161l66 287h260l-63 -287h190l-45 -209h-190
l-123 -559q-12 -57 4 -81t78 -24z" />
    <glyph glyph-name="Tcaron" unicode="&#x164;" horiz-adv-x="1077" 
d="M872 1507h-282l-180 285h249l91 -145l147 145h274zM287 0l248 1176h-367l49 227h1016l-49 -227h-369l-248 -1176h-280z" />
    <glyph glyph-name="tcaron" unicode="&#x165;" horiz-adv-x="645" 
d="M451 188q12 0 98 13l-39 -185q-70 -27 -176 -26q-152 0 -211 68t-27 214l127 580h-157l47 209h161l66 287h260l-63 -287h190l-45 -209h-190l-123 -559q-12 -57 4 -81t78 -24zM772 1651h197l-142 -477h-155z" />
    <glyph glyph-name="Utilde" unicode="&#x168;" horiz-adv-x="1325" 
d="M727 1798q76 0 172 -42t121 -42t36 14t23 72h187l-13 -57q-25 -131 -84 -180t-140 -49t-173 40q-92 41 -115 41q-39 0 -49 -53l-4 -22h-184l14 79q23 113 78 156t131 43zM610 199q137 0 200 79q62 79 93 228l193 897h278l-190 -897q-27 -125 -62 -209q-88 -212 -275 -279
q-110 -39 -265 -38q-291 0 -398 145q-106 145 -53 399l188 879h279l-192 -899q-68 -305 204 -305z" />
    <glyph glyph-name="utilde" unicode="&#x169;" horiz-adv-x="1120" 
d="M573 1497q66 0 156 -43t115 -43q51 0 61 72l2 16h180l-14 -80q-19 -129 -75 -174t-132 -45t-163 41t-109 41q-43 0 -53 -51l-4 -25h-185l15 90q33 201 206 201zM1104 1061l-160 -748q-47 -217 -63 -313h-263q10 84 17 115q-59 -76 -130 -105t-173 -28q-150 0 -216 108
t-28 285l145 686h269l-140 -660q-39 -201 107 -200q180 0 238 270l124 590h273z" />
    <glyph glyph-name="Umacron" unicode="&#x16a;" horiz-adv-x="1325" 
d="M600 1731h598l-41 -201h-598zM610 199q137 0 200 79q62 79 93 228l193 897h278l-190 -897q-27 -125 -62 -209q-88 -212 -275 -279q-110 -39 -265 -38q-291 0 -398 145q-106 145 -53 399l188 879h279l-192 -899q-68 -305 204 -305z" />
    <glyph glyph-name="umacron" unicode="&#x16b;" horiz-adv-x="1120" 
d="M446 1446h586l-45 -215h-588zM1104 1061l-160 -748q-47 -217 -63 -313h-263q10 84 17 115q-59 -76 -130 -105t-173 -28q-150 0 -216 108t-28 285l145 686h269l-140 -660q-39 -201 107 -200q180 0 238 270l124 590h273z" />
    <glyph glyph-name="Ubreve" unicode="&#x16c;" horiz-adv-x="1325" 
d="M764 1776q0 -113 117 -113t163 113h197q-109 -297 -383 -297q-166 0 -238 88t-55 209h199zM610 199q137 0 200 79q62 79 93 228l193 897h278l-190 -897q-27 -125 -62 -209q-88 -212 -275 -279q-110 -39 -265 -38q-291 0 -398 145q-106 145 -53 399l188 879h279l-192 -899
q-68 -305 204 -305z" />
    <glyph glyph-name="ubreve" unicode="&#x16d;" horiz-adv-x="1120" 
d="M623 1464q0 -104 94 -104q59 0 90 28t53 76h193q-98 -301 -365 -301q-152 0 -215 88t-45 213h195zM1104 1061l-160 -748q-47 -217 -63 -313h-263q10 84 17 115q-59 -76 -130 -105t-173 -28q-150 0 -216 108t-28 285l145 686h269l-140 -660q-39 -201 107 -200
q180 0 238 270l124 590h273z" />
    <glyph glyph-name="Uring" unicode="&#x16e;" horiz-adv-x="1325" 
d="M784 1658q0 -38 22 -60t66 -23q43 0 76 29q33 28 33 68q0 80 -84 81q-51 0 -82 -28q-31 -29 -31 -67zM1122 1694q0 -108 -78 -172t-186 -64t-162 50q-53 50 -53 141t75 156t183 65q109 0 165 -50t56 -126zM610 199q137 0 200 79q62 79 93 228l193 897h278l-190 -897
q-27 -125 -62 -209q-88 -212 -275 -279q-110 -39 -265 -38q-291 0 -398 145q-106 145 -53 399l188 879h279l-192 -899q-68 -305 204 -305z" />
    <glyph glyph-name="uring" unicode="&#x16f;" horiz-adv-x="1120" 
d="M801 1347q1 80 -89 80q-46 1 -77 -27t-31 -67t22 -61t66 -23q43 0 76 29t33 69zM942 1368q0 -109 -78 -172t-186 -63t-162 50q-53 50 -53 141t75 156q75 64 183 64q109 0 165 -50t56 -126zM1104 1061l-160 -748q-47 -217 -63 -313h-263q10 84 17 115q-59 -76 -130 -105
t-173 -28q-150 0 -216 108t-28 285l145 686h269l-140 -660q-39 -201 107 -200q180 0 238 270l124 590h273z" />
    <glyph glyph-name="Uhungarumlaut" unicode="&#x170;" horiz-adv-x="1325" 
d="M1186 1786h282l-311 -283h-233zM770 1786h285l-314 -283h-231zM610 199q137 0 200 79q62 79 93 228l193 897h278l-190 -897q-27 -125 -62 -209q-88 -212 -275 -279q-110 -39 -265 -38q-291 0 -398 145q-106 145 -53 399l188 879h279l-192 -899q-68 -305 204 -305z" />
    <glyph glyph-name="uhungarumlaut" unicode="&#x171;" horiz-adv-x="1120" 
d="M1266 1468l-291 -301h-225l249 301h267zM864 1468l-295 -301h-221l248 301h268zM1104 1061l-160 -748q-47 -217 -63 -313h-263q10 84 17 115q-59 -76 -130 -105t-173 -28q-150 0 -216 108t-28 285l145 686h269l-140 -660q-39 -201 107 -200q180 0 238 270l124 590h273z
" />
    <glyph glyph-name="Uogonek" unicode="&#x172;" horiz-adv-x="1325" 
d="M610 199q137 0 200 79q62 79 93 228l193 897h278l-190 -897q-45 -209 -130 -334t-268 -170q-158 -100 -157 -197q1 -35 27 -59t84 -22q58 0 104 14l-39 -178q-68 -33 -175 -33t-176 52t-69 168t125 235q-250 18 -339 162t-40 380l188 879h279l-192 -899
q-68 -305 204 -305z" />
    <glyph glyph-name="uogonek" unicode="&#x173;" horiz-adv-x="1120" 
d="M713 -203q1 -35 27 -59t84 -23q58 0 104 15l-39 -179q-68 -33 -175 -33t-176 53q-69 52 -69 159q0 143 156 270h-7q10 84 17 115q-59 -76 -130 -105t-173 -28q-150 0 -216 108t-28 285l145 686h269l-140 -660q-39 -201 107 -200q180 0 238 270l124 590h273l-160 -748
q-47 -217 -63 -313q-168 -104 -168 -203z" />
    <glyph glyph-name="Wcircumflex" unicode="&#x174;" horiz-adv-x="1765" 
d="M969 1782h284l181 -285h-252l-88 143l-148 -143h-274zM985 0q0 129 -9 505t-5 494h-2q-46 -130 -227 -535q-180 -405 -207 -464h-287l-23 1403h275q-14 -842 -49 -1096h2q59 151 243 563t236 533h250q18 -786 2 -1081h2q49 137 236 596t198 485h291l-637 -1403h-289z" />
    <glyph glyph-name="wcircumflex" unicode="&#x175;" horiz-adv-x="1531" 
d="M805 1489h278l131 -303h-241l-62 149l-127 -149h-264zM995 1061q0 -163 4 -411t0 -347h2q16 45 124 289t202 469h277l-521 -1061h-292q-6 598 -5 702h-4q-35 -94 -307 -702h-295l-55 1061h270q10 -602 4 -764h4q66 166 328 764h264z" />
    <glyph glyph-name="Ycircumflex" unicode="&#x176;" horiz-adv-x="1138" 
d="M653 1790h285l180 -285h-252l-88 144l-147 -144h-275zM590 0h-277l117 541q4 31 -2 45l-260 817h291q154 -584 159 -608q258 383 416 608h299l-610 -836q-16 -16 -21 -43z" />
    <glyph glyph-name="ycircumflex" unicode="&#x177;" horiz-adv-x="1005" 
d="M528 1489h279l131 -303h-242l-61 149l-127 -149h-264zM426 252h2q289 657 365 809h282l-581 -1141q-58 -120 -110 -188t-112 -103t-113 -44q-55 -9 -137 -9t-133 10l48 226q37 -6 99 -6t102 39q42 40 85 135l-119 1081h275q7 -141 27 -431q20 -289 20 -378z" />
    <glyph glyph-name="Ydieresis" unicode="&#x178;" horiz-adv-x="1138" 
d="M1055 1509h-219l55 263h219zM672 1509h-217l55 263h219zM590 0h-277l117 541q4 31 -2 45l-260 817h291q154 -584 159 -608q258 383 416 608h299l-610 -836q-16 -16 -21 -43z" />
    <glyph glyph-name="Zacute" unicode="&#x179;" horiz-adv-x="1159" 
d="M885 1808h366l-422 -284h-278zM-45 0l39 197l850 979h-635l49 227h969l-47 -223l-828 -953h699l-82 -227h-1014z" />
    <glyph glyph-name="zacute" unicode="&#x17a;" horiz-adv-x="915" 
d="M719 1501h328l-396 -301h-258zM-61 0l43 201q332 354 596 651h-463l45 209h776l-49 -207q-270 -307 -574 -645h500l-78 -209h-796z" />
    <glyph glyph-name="Zdotaccent" unicode="&#x17b;" horiz-adv-x="1159" 
d="M868 1530h-276l55 262h277zM-45 0l39 197l850 979h-635l49 227h969l-47 -223l-828 -953h699l-82 -227h-1014z" />
    <glyph glyph-name="zdotaccent" unicode="&#x17c;" horiz-adv-x="915" 
d="M690 1225h-270l55 256h270zM-61 0l43 201q332 354 596 651h-463l45 209h776l-49 -207q-270 -307 -574 -645h500l-78 -209h-796z" />
    <glyph glyph-name="Zcaron" unicode="&#x17d;" horiz-adv-x="1159" 
d="M887 1518h-283l-180 284h250l90 -145l147 145h275zM-45 0l39 197l850 979h-635l49 227h969l-47 -223l-828 -953h699l-82 -227h-1014z" />
    <glyph glyph-name="zcaron" unicode="&#x17e;" horiz-adv-x="915" 
d="M709 1186h-279l-131 305h240l63 -150l127 150h262zM-61 0l43 201q332 354 596 651h-463l45 209h776l-49 -207q-270 -307 -574 -645h500l-78 -209h-796z" />
    <glyph glyph-name="uni018F" unicode="&#x18f;" horiz-adv-x="1357" 
d="M1040 905q0 135 -60 216t-183 81t-202 -50t-136 -177h-269q160 446 623 446q242 0 372 -133t130 -399t-104 -490q-56 -121 -137 -213t-207 -148t-279 -56q-256 0 -380 133t-124 366q0 152 53 312h893q10 57 10 112zM997 590h-628q-17 -36 -17 -146t68 -177t186 -66
q295 0 391 389z" />
    <glyph glyph-name="florin" unicode="&#x192;" horiz-adv-x="970" 
d="M870 1448q118 0 164 -37l-53 -203q-47 20 -114 20t-95 -36q-28 -37 -53 -148l-31 -149h209l-43 -195h-207l-108 -514q-45 -219 -124 -322t-247 -104q-117 0 -209 41l59 211q50 -24 112 -24t88 40t52 162l113 510h-180l41 195h182l27 117q32 164 114 300t303 136z" />
    <glyph glyph-name="Ohorn" unicode="&#x1a0;" horiz-adv-x="1421" 
d="M815 1202q-104 0 -187 -66t-129 -168q-96 -215 -96 -436q0 -334 267 -333q106 1 190 67t131 169q96 211 94 431q0 336 -270 336zM842 1421q250 0 387 -143q63 16 90 67t14 158h228q2 -14 2 -53q0 -264 -228 -346q39 -104 39 -232t-24 -248t-79 -238q-56 -118 -139 -207
t-209 -144t-282 -55q-264 0 -394 152t-130 400q0 249 103 467q56 119 137 212t207 151t278 59z" />
    <glyph glyph-name="ohorn" unicode="&#x1a1;" horiz-adv-x="1116" 
d="M778 682q0 182 -167 182q-89 0 -157 -79q-123 -144 -121 -366q1 -222 165 -222q72 0 129 48q98 83 136 274q15 77 15 163zM934 979q94 31 94 144q0 44 -4 77h227q2 -14 2 -53q0 -260 -217 -342q34 -150 -5 -341t-173 -332q-66 -68 -165 -110t-220 -42q-211 0 -315 116
t-104 325q0 210 132 423q66 104 184 170t288 65q169 0 276 -100z" />
    <glyph glyph-name="Uhorn" unicode="&#x1af;" horiz-adv-x="1325" 
d="M610 199q137 0 200 79q62 79 93 228l193 897h121q87 10 117 54t30 128q0 16 -4 49h227q2 -14 2 -53q0 -283 -252 -352l-153 -723q-27 -125 -62 -209q-88 -212 -275 -279q-110 -39 -265 -38q-291 0 -398 145q-106 145 -53 399l188 879h279l-192 -899q-68 -305 204 -305z
" />
    <glyph glyph-name="uhorn" unicode="&#x1b0;" horiz-adv-x="1120" 
d="M1063 1241q0 16 -4 49h227q2 -14 2 -53q0 -260 -219 -342l-125 -582q-47 -217 -63 -313h-263q11 84 17 115q-59 -76 -130 -105t-173 -28q-150 0 -216 108t-28 285l145 686h269l-140 -660q-39 -201 107 -200q180 0 238 270l124 590h99q80 12 106 55t27 125z" />
    <glyph glyph-name="uni01CD" unicode="&#x1cd;" horiz-adv-x="1267" 
d="M981 1518h-283l-180 284h250l90 -145l148 145h274zM791 1190h-5q-108 -261 -292 -621h342q-45 569 -45 621zM842 342h-447l-170 -342h-286q705 1384 714 1403h359l139 -1403h-274z" />
    <glyph glyph-name="uni01CE" unicode="&#x1ce;" horiz-adv-x="1085" 
d="M786 1186h-278l-131 305h239l64 -150l127 150h262zM303 305q0 -119 125 -119q113 0 165 74t81 205l4 22q-111 0 -168 -8q-207 -29 -207 -174zM590 891q-57 0 -96 -25t-53 -48q-13 -24 -25 -60h-266q72 322 458 321q463 0 371 -428l-86 -399q-41 -188 -51 -252h-260
q4 47 16 106q-100 -125 -289 -124q-133 0 -209 78t-75 206q0 352 471 389q119 10 217 11l8 30q23 92 -5 144t-126 51z" />
    <glyph glyph-name="uni01CF" unicode="&#x1cf;" horiz-adv-x="581" 
d="M637 1518h-283l-180 284h250l90 -145l148 145h274zM336 1403h276l-297 -1403h-276z" />
    <glyph glyph-name="uni01D0" unicode="&#x1d0;" horiz-adv-x="532" 
d="M532 1186h-278l-131 305h239l64 -150l127 150h262zM16 0l226 1061h270l-225 -1061h-271z" />
    <glyph glyph-name="uni01D1" unicode="&#x1d1;" horiz-adv-x="1421" 
d="M1012 1518h-283l-180 284h250l90 -145l147 145h275zM815 1202q-104 0 -187 -66t-129 -168q-96 -215 -96 -436q0 -334 267 -333q106 1 190 67t131 169q96 211 94 431q0 336 -270 336zM842 1421q266 -1 399 -155t133 -408t-103 -472q-56 -118 -139 -207t-209 -144t-282 -55
q-264 0 -394 152t-130 400q0 249 103 467q56 119 137 212t207 151t278 59z" />
    <glyph glyph-name="uni01D2" unicode="&#x1d2;" horiz-adv-x="1116" 
d="M807 1186h-279l-131 305h240l63 -150l127 150h263zM778 682q0 182 -167 182q-89 0 -157 -79q-123 -144 -121 -366q1 -222 165 -222q72 0 129 48q98 83 136 274q15 77 15 163zM641 1079q203 1 307 -113t104 -310t-83 -365q-98 -195 -276 -269q-99 -42 -220 -42
q-211 0 -315 116t-104 325q0 210 132 423q66 104 184 170t271 65z" />
    <glyph glyph-name="uni01D3" unicode="&#x1d3;" horiz-adv-x="1325" 
d="M987 1493h-282l-181 285h250l90 -146l148 146h274zM610 199q137 0 200 79q62 79 93 228l193 897h278l-190 -897q-27 -125 -62 -209q-88 -212 -275 -279q-110 -39 -265 -38q-291 0 -398 145q-106 145 -53 399l188 879h279l-192 -899q-68 -305 204 -305z" />
    <glyph glyph-name="uni01D4" unicode="&#x1d4;" horiz-adv-x="1120" 
d="M827 1186h-278l-131 305h239l64 -150l127 150h262zM1104 1061l-160 -748q-47 -217 -63 -313h-263q10 84 17 115q-59 -76 -130 -105t-173 -28q-150 0 -216 108t-28 285l145 686h269l-140 -660q-39 -201 107 -200q180 0 238 270l124 590h273z" />
    <glyph glyph-name="uni01D5" unicode="&#x1d5;" horiz-adv-x="1325" 
d="M1161 1495h-225l41 197h227zM756 1495h-224l41 197h226zM1188 1792h-582l39 174h582zM610 199q137 0 200 79q62 79 93 228l193 897h278l-190 -897q-27 -125 -62 -209q-88 -212 -275 -279q-110 -39 -265 -38q-291 0 -398 145q-106 145 -53 399l188 879h279l-192 -899
q-68 -305 204 -305z" />
    <glyph glyph-name="uni01D6" unicode="&#x1d6;" horiz-adv-x="1120" 
d="M987 1157h-223l45 219h225zM594 1157h-225l47 219h225zM1030 1466h-579l36 176h580zM1104 1061l-160 -748q-47 -217 -63 -313h-263q10 84 17 115q-59 -76 -130 -105t-173 -28q-150 0 -216 108t-28 285l145 686h269l-140 -660q-39 -201 107 -200q180 0 238 270l124 590
h273z" />
    <glyph glyph-name="uni01D7" unicode="&#x1d7;" horiz-adv-x="1325" 
d="M1171 1501h-223l47 219h224zM580 1720h225l-47 -219h-226zM1014 1784h-258l254 237h317zM610 199q137 0 200 79q62 79 93 228l193 897h278l-190 -897q-27 -125 -62 -209q-88 -212 -275 -279q-110 -39 -265 -38q-291 0 -398 145q-106 145 -53 399l188 879h279l-192 -899
q-68 -305 204 -305z" />
    <glyph glyph-name="uni01D8" unicode="&#x1d8;" horiz-adv-x="1120" 
d="M995 1157h-223l45 219h225zM422 1376h227l-47 -219h-225zM829 1440h-251l270 237h307zM1104 1061l-160 -748q-47 -217 -63 -313h-263q10 84 17 115q-59 -76 -130 -105t-173 -28q-150 0 -216 108t-28 285l145 686h269l-140 -660q-39 -201 107 -200q180 0 238 270l124 590
h273z" />
    <glyph glyph-name="uni01D9" unicode="&#x1d9;" horiz-adv-x="1325" 
d="M1171 1489h-223l47 203h226zM580 1692h227l-49 -203h-226zM1051 1755h-287l-164 225h244l76 -108l135 108h260zM610 199q137 0 200 79q62 79 93 228l193 897h278l-190 -897q-27 -125 -62 -209q-88 -212 -275 -279q-110 -39 -265 -38q-291 0 -398 145q-106 145 -53 399
l188 879h279l-192 -899q-68 -305 204 -305z" />
    <glyph glyph-name="uni01DA" unicode="&#x1da;" horiz-adv-x="1120" 
d="M993 1161h-223l45 219h225zM420 1380h227l-47 -219h-225zM872 1440h-262l-153 239h221l80 -120l129 120h246zM1104 1061l-160 -748q-47 -217 -63 -313h-263q10 84 17 115q-59 -76 -130 -105t-173 -28q-150 0 -216 108t-28 285l145 686h269l-140 -660q-39 -201 107 -200
q180 0 238 270l124 590h273z" />
    <glyph glyph-name="uni01DB" unicode="&#x1db;" horiz-adv-x="1325" 
d="M1171 1487h-223l47 219h224zM580 1706h225l-47 -219h-226zM1047 1769h-238l-285 238h297zM610 199q137 0 200 79q62 79 93 228l193 897h278l-190 -897q-27 -125 -62 -209q-88 -212 -275 -279q-110 -39 -265 -38q-291 0 -398 145q-106 145 -53 399l188 879h279l-192 -899
q-68 -305 204 -305z" />
    <glyph glyph-name="uni01DC" unicode="&#x1dc;" horiz-adv-x="1120" 
d="M989 1174h-223l45 219h225zM416 1393h227l-47 -219h-225zM403 1694h283l178 -238h-225zM1104 1061l-160 -748q-47 -217 -63 -313h-263q10 84 17 115q-59 -76 -130 -105t-173 -28q-150 0 -216 108t-28 285l145 686h269l-140 -660q-39 -201 107 -200q180 0 238 270l124 590
h273z" />
    <glyph glyph-name="Gcaron" unicode="&#x1e6;" horiz-adv-x="1372" 
d="M1018 1520h-283l-180 284h250l90 -145l147 145h275zM391 539q0 -342 272 -342q140 0 214 94t106 256l2 8h-291l54 229h561q-156 -717 -166 -784h-209q2 41 18 139q-68 -86 -158 -123t-229 -36q-229 0 -345 150t-116 405q0 256 125 497q125 240 354 336q126 53 273 53
q233 0 363 -119q129 -120 131 -321h-273q-10 219 -243 219q-113 0 -202 -62t-139 -162q-102 -206 -102 -437z" />
    <glyph glyph-name="gcaron" unicode="&#x1e7;" horiz-adv-x="1155" 
d="M836 1186h-279l-131 305h240l63 -150l127 150h262zM621 860q-133 0 -205 -136t-72 -278q0 -213 162 -213q199 0 264 297q68 330 -149 330zM38 -306q-77 99 -71 232h260q6 -145 168 -145q123 1 176 69t93 234l14 55q-96 -125 -287 -125q-156 0 -245 106t-89 319
q0 212 133 419q64 98 166 160t218 61q116 0 186 -42t86 -97q12 51 33 121h264q-31 -113 -76 -320l-139 -657q-27 -123 -61 -205t-94 -157q-117 -146 -380 -146t-355 118z" />
    <glyph glyph-name="uni0218" unicode="&#x218;" horiz-adv-x="1173" 
d="M449 -483h-252q115 174 168 374h264q-57 -231 -180 -374zM786 375q0 88 -46 138t-173 108q-201 88 -281 173t-79 220q0 178 125 293t351 115t349 -116t121 -294h-270q-14 201 -217 200q-90 0 -136 -44t-45 -112q0 -68 47 -109q47 -40 173 -95q213 -94 293 -192t79 -230
q0 -201 -137 -326q-137 -124 -389 -124t-374 118t-128 314h270q29 -223 250 -224q97 0 157 50t60 137z" />
    <glyph glyph-name="uni0219" unicode="&#x219;" horiz-adv-x="954" 
d="M338 -481h-252q115 174 168 375h264q-57 -232 -180 -375zM444 176q139 0 140 113q0 49 -40 82t-164 85t-190 119q-66 68 -65 179q0 147 105 236t301 89t293 -97t94 -234h-263q-6 135 -141 135q-51 0 -86 -24t-35 -69q0 -44 32 -68t162 -80t203 -126q73 -72 72 -188
q0 -150 -110 -248t-318 -98t-316 92t-104 258h271q8 -156 159 -156z" />
    <glyph glyph-name="uni021A" unicode="&#x21a;" horiz-adv-x="1077" 
d="M360 -483h-251q115 174 167 374h265q-58 -231 -181 -374zM287 0l248 1176h-367l49 227h1016l-49 -227h-369l-248 -1176h-280z" />
    <glyph glyph-name="uni021B" unicode="&#x21b;" horiz-adv-x="645" 
d="M205 -475h-252q115 174 168 375h264q-57 -232 -180 -375zM451 188q12 0 98 13l-39 -185q-70 -27 -176 -26q-152 0 -211 68t-27 214l127 580h-157l47 209h161l66 287h260l-63 -287h190l-45 -209h-190l-123 -559q-12 -57 4 -81t78 -24z" />
    <glyph glyph-name="uni0237" unicode="&#x237;" horiz-adv-x="530" 
d="M-213 -412l49 215q25 -4 66 -4q40 0 62 28t38 110l240 1124h270l-223 -1047q-51 -234 -92 -305t-95 -95q-84 -38 -178 -38t-137 12z" />
    <glyph glyph-name="uni0251" unicode="&#x251;" horiz-adv-x="1163" 
d="M637 860q-96 0 -166 -79q-129 -146 -129 -367t158 -221q196 -1 270 333t-133 334zM887 1061h258l-164 -766q-6 -31 -59 -295h-265q2 20 19 115q-53 -70 -122 -103t-181 -32q-143 0 -231 107q-87 108 -86 281q2 174 60 328t186 269t296 114q106 0 168 -37t84 -84z" />
    <glyph glyph-name="uni0259" unicode="&#x259;" horiz-adv-x="1056" 
d="M293 346q0 -164 158 -164q95 0 151 72t76 166h-377q-8 -35 -8 -74zM727 676q0 193 -158 192q-57 0 -99 -24t-58 -46q-16 -24 -37 -65h-271q123 346 488 346q403 0 403 -426q0 -214 -124 -425q-62 -108 -178 -178t-267 -68q-190 0 -291 105q-100 105 -100 271q0 99 35 236
h649q8 66 8 82z" />
    <glyph glyph-name="uni0261" unicode="&#x261;" horiz-adv-x="1155" 
d="M621 860q-133 0 -205 -136t-72 -278q0 -213 162 -213q199 0 264 297q68 330 -149 330zM38 -306q-77 99 -71 232h260q6 -145 168 -145q123 1 176 69t93 234l14 55q-96 -125 -287 -125q-156 0 -245 106t-89 319q0 212 133 419q64 98 166 160t218 61q116 0 186 -42t86 -97
q12 51 33 121h264q-31 -113 -76 -320l-139 -657q-27 -123 -61 -205t-94 -157q-117 -146 -380 -146t-355 118z" />
    <glyph glyph-name="uni02BB" unicode="&#x2bb;" horiz-adv-x="735" 
d="M537 1491h202q-119 -201 -200 -537h-240q37 150 103 298t135 239z" />
    <glyph glyph-name="uni02BC" unicode="&#x2bc;" horiz-adv-x="735" 
d="M498 954h-203q119 201 201 537h239q-37 -149 -102 -297t-135 -240z" />
    <glyph glyph-name="uni02BE" unicode="&#x2be;" horiz-adv-x="661" 
d="M635 1368q0 -96 -81 -160t-212 -59l29 133q98 8 98 84q0 51 -70 61l31 136q90 -3 148 -51t57 -144z" />
    <glyph glyph-name="uni02BF" unicode="&#x2bf;" horiz-adv-x="661" 
d="M381 1335q0 95 81 159t212 60l-29 -133q-98 -8 -98 -84q-1 -51 69 -61l-30 -135q-90 2 -148 50q-57 48 -57 144z" />
    <glyph glyph-name="circumflex" unicode="&#x2c6;" 
d="M487 1489h279l131 -303h-242l-61 149l-127 -149h-264z" />
    <glyph glyph-name="caron" unicode="&#x2c7;" 
d="M678 1186h-279l-131 305h240l63 -150l127 150h263z" />
    <glyph glyph-name="uni02C8" unicode="&#x2c8;" horiz-adv-x="653" 
d="M575 1139h-239l82 385h241z" />
    <glyph glyph-name="uni02C9" unicode="&#x2c9;" horiz-adv-x="995" 
d="M401 1446h586l-45 -215h-588z" />
    <glyph glyph-name="uni02CA" unicode="&#x2ca;" horiz-adv-x="974" 
d="M682 1501h328l-396 -301h-258z" />
    <glyph glyph-name="uni02CB" unicode="&#x2cb;" horiz-adv-x="944" 
d="M338 1501h313l213 -301h-221z" />
    <glyph glyph-name="uni02CC" unicode="&#x2cc;" horiz-adv-x="651" 
d="M225 -500h-239l82 385h241z" />
    <glyph glyph-name="breve" unicode="&#x2d8;" 
d="M492 1464q0 -104 94 -104q59 0 90 28t53 76h193q-98 -301 -365 -301q-152 0 -215 88t-45 213h195z" />
    <glyph glyph-name="dotaccent" unicode="&#x2d9;" 
d="M692 1225h-270l55 256h271z" />
    <glyph glyph-name="ring" unicode="&#x2da;" 
d="M680 1347q0 80 -90 80q-46 1 -76 -27q-31 -28 -31 -67q1 -39 23 -61t65 -23q43 0 76 29t33 69zM821 1368q1 -109 -77 -172t-186 -63t-163 50q-53 50 -53 141t75 156q75 64 183 64t164 -50t57 -126z" />
    <glyph glyph-name="ogonek" unicode="&#x2db;" 
d="M283 -203q1 -35 27 -59t84 -23q58 0 104 15l-39 -179q-67 -33 -175 -33t-176 53q-68 52 -69 159q0 188 260 344l152 -74q-168 -104 -168 -203z" />
    <glyph glyph-name="tilde" unicode="&#x2dc;" 
d="M438 1497q66 0 156 -43t115 -43q51 0 61 72l2 16h180l-14 -80q-20 -129 -76 -174t-131 -45q-76 0 -163 41t-109 41q-43 0 -53 -51l-5 -25h-184l14 90q33 201 207 201z" />
    <glyph glyph-name="hungarumlaut" unicode="&#x2dd;" 
d="M1116 1468l-291 -301h-225l250 301h266zM715 1468l-295 -301h-221l247 301h269z" />
    <glyph glyph-name="uni0300" unicode="&#x300;" horiz-adv-x="0" 
d="M-160 1501h314l213 -301h-222z" />
    <glyph glyph-name="uni0301" unicode="&#x301;" horiz-adv-x="0" 
d="M209 1501h328l-396 -301h-258z" />
    <glyph glyph-name="uni0302" unicode="&#x302;" horiz-adv-x="0" 
d="M78 1489h278l131 -303h-241l-62 149l-127 -149h-264z" />
    <glyph glyph-name="uni0303" unicode="&#x303;" horiz-adv-x="0" 
d="M29 1497q65 0 155 -43t115 -43q51 0 61 72l2 16h181l-15 -80q-20 -129 -75 -174t-131 -45t-164 41q-86 41 -109 41q-43 0 -53 -51l-4 -25h-185l15 90q33 201 207 201z" />
    <glyph glyph-name="uni0304" unicode="&#x304;" horiz-adv-x="0" 
d="M-96 1446h585l-45 -215h-587z" />
    <glyph glyph-name="uni0306" unicode="&#x306;" horiz-adv-x="0" 
d="M82 1464q0 -104 94 -104q59 0 90 28t53 76h193q-98 -301 -365 -301q-152 0 -215 88t-45 213h195z" />
    <glyph glyph-name="uni0307" unicode="&#x307;" horiz-adv-x="0" 
d="M283 1225h-271l56 256h270z" />
    <glyph glyph-name="uni0308" unicode="&#x308;" horiz-adv-x="0" 
d="M436 1223h-211l56 256h211zM70 1223h-211l55 256h211z" />
    <glyph glyph-name="uni0309" unicode="&#x309;" horiz-adv-x="0" 
d="M160 1348q0 47 -71 47t-128 -35l35 172q74 43 184 43t158 -47q49 -47 49 -117q1 -137 -149 -237h-234q156 102 156 174z" />
    <glyph glyph-name="uni030A" unicode="&#x30a;" horiz-adv-x="0" 
d="M181 1427q-46 1 -77 -27q-30 -28 -30 -67t22 -61t66 -23q43 0 76 29t32 76q0 73 -89 73zM148 1133q-108 0 -162 50t-54 141t75 156q75 64 183 64t165 -50q56 -50 57 -126q0 -109 -78 -172t-186 -63z" />
    <glyph glyph-name="uni030B" unicode="&#x30b;" horiz-adv-x="0" 
d="M645 1468l-291 -301h-225l250 301h266zM244 1468l-295 -301h-221l247 301h269z" />
    <glyph glyph-name="uni030C" unicode="&#x30c;" horiz-adv-x="0" 
d="M268 1186h-278l-131 305h239l64 -150l127 150h262z" />
    <glyph glyph-name="uni031B" unicode="&#x31b;" horiz-adv-x="0" 
d="M92 1300q0 16 -4 50h227q2 -14 2 -54q1 -162 -87 -257t-246 -111l-39 190q87 10 117 54t30 128z" />
    <glyph glyph-name="uni0323" unicode="&#x323;" horiz-adv-x="0" 
d="M-57 -412h-285l59 287h287z" />
    <glyph glyph-name="uni0324" unicode="&#x324;" horiz-adv-x="0" 
d="M88 -418h-211l55 256h211zM-279 -418h-210l55 256h211z" />
    <glyph glyph-name="uni0326" unicode="&#x326;" horiz-adv-x="0" 
d="M-178 -483h-252q115 174 168 374h264q-57 -231 -180 -374z" />
    <glyph glyph-name="uni0327" unicode="&#x327;" horiz-adv-x="0" 
d="M137 -262q0 -96 -78 -150q-77 -54 -201 -55q-124 0 -204 37l51 149q45 -16 98 -16q80 0 80 55q0 49 -147 68l10 45l117 156l178 -27l-70 -82q166 -43 166 -180z" />
    <glyph glyph-name="uni0328" unicode="&#x328;" horiz-adv-x="0" 
d="M-150 -203q0 -35 27 -59t85 -23q58 0 104 15l-39 -179q-67 -33 -175 -33t-177 53q-69 52 -68 159q0 188 260 344l151 -74q-168 -104 -168 -203z" />
    <glyph glyph-name="uni032E" unicode="&#x32e;" horiz-adv-x="0" 
d="M-256 -123q0 -104 94 -104q59 -1 90 27t54 77h192q-98 -301 -364 -301q-152 0 -216 88q-63 88 -45 213h195z" />
    <glyph glyph-name="uni0331" unicode="&#x331;" horiz-adv-x="0" 
d="M-438 -156h585l-45 -215h-587z" />
    <glyph glyph-name="pi" unicode="&#x3c0;" horiz-adv-x="1116" 
d="M436 1061h748l-45 -209h-127l-178 -852h-273l182 852h-258l-180 -852h-268l180 852q-119 0 -137 -2l43 203q63 8 313 8z" />
    <glyph glyph-name="uni1E0C" unicode="&#x1e0c;" horiz-adv-x="1398" 
d="M635 -412h-285l60 287h286zM586 217q154 0 264 87q206 163 205 507q0 191 -89 281t-233 90h-166l-205 -965h224zM776 1403q276 0 424 -163q148 -164 148 -404t-81 -421t-254 -298t-413 -117h-561l297 1403h440z" />
    <glyph glyph-name="uni1E0D" unicode="&#x1e0d;" horiz-adv-x="1163" 
d="M578 -422h-285l59 287h287zM642 860q-106 0 -174 -79q-126 -144 -126 -366t158 -222q117 0 177 91t93 246q38 152 8 241t-136 89zM55 370q-1 180 57 332q58 154 184 266t294 111q106 0 173 -37t87 -84l115 531h270l-254 -1194q-6 -25 -59 -295h-265q2 20 19 115
q-53 -70 -121 -103t-176 -32q-152 0 -238 105t-86 285z" />
    <glyph glyph-name="uni1E0E" unicode="&#x1e0e;" horiz-adv-x="1398" 
d="M215 -156h586l-45 -215h-588zM586 217q154 0 264 87q206 163 205 507q0 191 -89 281t-233 90h-166l-205 -965h224zM776 1403q276 0 424 -163q148 -164 148 -404t-81 -421t-254 -298t-413 -117h-561l297 1403h440z" />
    <glyph glyph-name="uni1E0F" unicode="&#x1e0f;" horiz-adv-x="1163" 
d="M176 -156h586l-45 -215h-588zM642 860q-106 0 -174 -79q-126 -144 -126 -366t158 -222q117 0 177 91t93 246q38 152 8 241t-136 89zM55 370q-1 180 57 332q58 154 184 266t294 111q106 0 173 -37t87 -84l115 531h270l-254 -1194q-6 -25 -59 -295h-265q2 20 19 115
q-53 -70 -121 -103t-176 -32q-152 0 -238 105t-86 285z" />
    <glyph glyph-name="uni1E20" unicode="&#x1e20;" horiz-adv-x="1372" 
d="M627 1753h598l-41 -201h-598zM391 539q0 -342 272 -342q140 0 214 94t106 256l2 8h-291l54 229h561q-156 -717 -166 -784h-209q2 41 18 139q-68 -86 -158 -123t-229 -36q-229 0 -345 150t-116 405q0 256 125 497q125 240 354 336q126 53 273 53q233 0 363 -119
q129 -120 131 -321h-273q-10 219 -243 219q-113 0 -202 -62t-139 -162q-102 -206 -102 -437z" />
    <glyph glyph-name="uni1E21" unicode="&#x1e21;" horiz-adv-x="1155" 
d="M451 1446h585l-45 -215h-588zM621 860q-133 0 -205 -136t-72 -278q0 -213 162 -213q199 0 264 297q68 330 -149 330zM38 -306q-77 99 -71 232h260q6 -145 168 -145q123 1 176 69t93 234l14 55q-96 -125 -287 -125q-156 0 -245 106t-89 319q0 212 133 419q64 98 166 160
t218 61q116 0 186 -42t86 -97q12 51 33 121h264q-31 -113 -76 -320l-139 -657q-27 -123 -61 -205t-94 -157q-117 -146 -380 -146t-355 118z" />
    <glyph glyph-name="uni1E24" unicode="&#x1e24;" horiz-adv-x="1355" 
d="M641 -389h-285l60 287h286zM39 0l297 1403h276l-118 -557h497l119 557h279l-297 -1403h-279l129 616h-498l-129 -616h-276z" />
    <glyph glyph-name="uni1E25" unicode="&#x1e25;" horiz-adv-x="1138" 
d="M524 -391h-284l59 287h287zM653 858q-184 0 -241 -272l-125 -586h-271l316 1489h270l-119 -559q115 150 308 149q149 0 221 -101t28 -302l-143 -676h-266l139 659q20 94 -4 147q-25 52 -113 52z" />
    <glyph glyph-name="uni1E2A" unicode="&#x1e2a;" horiz-adv-x="1355" 
d="M442 -102q0 -104 95 -105q59 0 90 28t53 77h192q-98 -301 -364 -301q-152 0 -215 88t-45 213h194zM39 0l297 1403h276l-118 -557h497l119 557h279l-297 -1403h-279l129 616h-498l-129 -616h-276z" />
    <glyph glyph-name="uni1E2B" unicode="&#x1e2b;" horiz-adv-x="1138" 
d="M332 -123q0 -104 94 -104q59 -1 90 27t53 77h193q-98 -301 -365 -301q-152 0 -215 88t-45 213h195zM653 858q-184 0 -241 -272l-125 -586h-271l316 1489h270l-119 -559q115 150 308 149q149 0 221 -101t28 -302l-143 -676h-266l139 659q20 94 -4 147q-25 52 -113 52z" />
    <glyph glyph-name="uni1E36" unicode="&#x1e36;" horiz-adv-x="1073" 
d="M565 -408h-284l59 287h287zM39 0l297 1403h276l-250 -1176h609l-76 -227h-856z" />
    <glyph glyph-name="uni1E37" unicode="&#x1e37;" horiz-adv-x="530" 
d="M213 -412h-285l60 287h286zM287 0h-271l314 1489h272z" />
    <glyph glyph-name="uni1E38" unicode="&#x1e38;" horiz-adv-x="1073" 
d="M242 1733h598l-41 -201h-598zM565 -410h-284l59 287h287zM39 0l297 1403h276l-250 -1176h609l-76 -227h-856z" />
    <glyph glyph-name="uni1E39" unicode="&#x1e39;" horiz-adv-x="530" 
d="M213 -412h-285l60 287h286zM240 1829h585l-45 -215h-587zM287 0h-271l314 1489h272z" />
    <glyph glyph-name="uni1E3A" unicode="&#x1e3a;" horiz-adv-x="1073" 
d="M147 -174h586l-45 -215h-588zM39 0l297 1403h276l-250 -1176h609l-76 -227h-856z" />
    <glyph glyph-name="uni1E3B" unicode="&#x1e3b;" horiz-adv-x="530" 
d="M-164 -154h586l-45 -215h-588zM287 0h-271l314 1489h272z" />
    <glyph glyph-name="uni1E42" unicode="&#x1e42;" horiz-adv-x="1681" 
d="M760 -412h-285l60 287h286zM573 0q-34 1175 -34 1210h-13q-33 -236 -133 -710l-104 -500h-250l297 1403h409q45 -801 46 -1028h4q31 88 127 284q95 195 140 281q44 86 128 251t108 212h416l-297 -1403h-268l111 524q104 485 155 682h-10q-109 -256 -574 -1206h-258z" />
    <glyph glyph-name="uni1E43" unicode="&#x1e43;" horiz-adv-x="1669" 
d="M786 -412h-284l59 287h287zM1200 860q-90 0 -139 -62t-76 -190l-129 -608h-266l143 674q37 184 -106 184q-85 0 -137 -63t-80 -207l-125 -588h-269l156 731q55 270 66 330h262q-6 -59 -21 -133q119 152 298 152t216 -154q127 154 320 153q153 0 227 -93t31 -304
l-146 -682h-264l146 680q39 180 -107 180z" />
    <glyph glyph-name="uni1E44" unicode="&#x1e44;" horiz-adv-x="1388" 
d="M1022 1520h-277l56 262h276zM293 0h-254l297 1403h348l274 -1032h5q20 164 112 596l92 436h254l-297 -1403h-331l-279 1083h-4q-31 -203 -125 -647z" />
    <glyph glyph-name="uni1E45" unicode="&#x1e45;" horiz-adv-x="1138" 
d="M831 1225h-270l55 256h271zM647 852q-90 0 -147 -61t-88 -201l-125 -590h-271l156 729q41 190 66 332h264q-6 -66 -21 -135q109 154 299 153q162 0 233 -102t31 -283l-147 -694h-270l135 641q25 87 0 149t-115 62z" />
    <glyph glyph-name="uni1E46" unicode="&#x1e46;" horiz-adv-x="1388" 
d="M668 -410h-285l59 287h287zM293 0h-254l297 1403h348l274 -1032h5q20 164 112 596l92 436h254l-297 -1403h-331l-279 1083h-4q-31 -203 -125 -647z" />
    <glyph glyph-name="uni1E47" unicode="&#x1e47;" horiz-adv-x="1138" 
d="M520 -412h-284l59 287h287zM647 852q-90 0 -147 -61t-88 -201l-125 -590h-271l156 729q41 190 66 332h264q-6 -66 -21 -135q109 154 299 153q162 0 233 -102t31 -283l-147 -694h-270l135 641q25 87 0 149t-115 62z" />
    <glyph glyph-name="uni1E48" unicode="&#x1e48;" horiz-adv-x="1388" 
d="M313 -135h586l-45 -215h-588zM293 0h-254l297 1403h348l274 -1032h5q20 164 112 596l92 436h254l-297 -1403h-331l-279 1083h-4q-31 -203 -125 -647z" />
    <glyph glyph-name="uni1E49" unicode="&#x1e49;" horiz-adv-x="1138" 
d="M150 -156h585l-45 -215h-588zM647 852q-90 0 -147 -61t-88 -201l-125 -590h-271l156 729q41 190 66 332h264q-6 -66 -21 -135q109 154 299 153q162 0 233 -102t31 -283l-147 -694h-270l135 641q25 87 0 149t-115 62z" />
    <glyph glyph-name="uni1E5A" unicode="&#x1e5a;" horiz-adv-x="1236" 
d="M598 -389h-285l60 287h286zM692 805q270 0 271 215q1 86 -55 125t-140 39h-207l-80 -379h211zM631 586h-197l-123 -586h-272l297 1403h487q201 0 313 -97q112 -98 112 -244t-71 -242q-71 -95 -192 -140q150 -84 92 -369q-41 -190 -47 -311h-274q0 92 49 322q14 80 14 138
t-46 92t-142 34z" />
    <glyph glyph-name="uni1E5B" unicode="&#x1e5b;" horiz-adv-x="747" 
d="M215 -412h-285l60 287h286zM823 1077l-61 -278q-158 4 -247 -72t-126 -246l-102 -481h-271l150 700q57 274 72 361h260q-4 -61 -31 -193q120 209 356 209z" />
    <glyph glyph-name="uni1E5C" unicode="&#x1e5c;" horiz-adv-x="1236" 
d="M532 1751h598l-40 -201h-598zM598 -391h-285l60 287h286zM692 805q270 0 271 215q1 86 -55 125t-140 39h-207l-80 -379h211zM631 586h-197l-123 -586h-272l297 1403h487q201 0 313 -97q112 -98 112 -244t-71 -242q-71 -95 -192 -140q150 -84 92 -369q-41 -190 -47 -311
h-274q0 92 49 322q14 80 14 138t-46 92t-142 34z" />
    <glyph glyph-name="uni1E5D" unicode="&#x1e5d;" horiz-adv-x="747" 
d="M215 -412h-285l60 287h286zM299 1446h586l-45 -215h-588zM823 1077l-61 -278q-158 4 -247 -72t-126 -246l-102 -481h-271l150 700q57 274 72 361h260q-4 -61 -31 -193q120 209 356 209z" />
    <glyph glyph-name="uni1E5E" unicode="&#x1e5e;" horiz-adv-x="1236" 
d="M217 -135h586l-45 -215h-588zM692 805q270 0 271 215q1 86 -55 125t-140 39h-207l-80 -379h211zM631 586h-197l-123 -586h-272l297 1403h487q201 0 313 -97q112 -98 112 -244t-71 -242q-71 -95 -192 -140q150 -84 92 -369q-41 -190 -47 -311h-274q0 92 49 322
q14 80 14 138t-46 92t-142 34z" />
    <glyph glyph-name="uni1E5F" unicode="&#x1e5f;" horiz-adv-x="747" 
d="M-141 -156h585l-45 -215h-587zM823 1077l-61 -278q-158 4 -247 -72t-126 -246l-102 -481h-271l150 700q57 274 72 361h260q-4 -61 -31 -193q120 209 356 209z" />
    <glyph glyph-name="uni1E60" unicode="&#x1e60;" horiz-adv-x="1173" 
d="M877 1530h-277l55 262h277zM786 375q0 88 -46 138t-173 108q-201 88 -281 173t-79 220q0 178 125 293t351 115t349 -116t121 -294h-270q-14 201 -217 200q-90 0 -136 -44t-45 -112q0 -68 47 -109q47 -40 173 -95q213 -94 293 -192t79 -230q0 -201 -137 -326
q-137 -124 -389 -124t-374 118t-128 314h270q29 -223 250 -224q97 0 157 50t60 137z" />
    <glyph glyph-name="uni1E61" unicode="&#x1e61;" horiz-adv-x="954" 
d="M717 1225h-271l56 256h270zM444 176q139 0 140 113q0 49 -40 82t-164 85t-190 119q-66 68 -65 179q0 147 105 236t301 89t293 -97t94 -234h-263q-6 135 -141 135q-51 0 -86 -24t-35 -69q0 -44 32 -68t162 -80t203 -126q73 -72 72 -188q0 -150 -110 -248t-318 -98t-316 92
t-104 258h271q8 -156 159 -156z" />
    <glyph glyph-name="uni1E62" unicode="&#x1e62;" horiz-adv-x="1173" 
d="M571 -410h-284l59 287h287zM786 375q0 88 -46 138t-173 108q-201 88 -281 173t-79 220q0 178 125 293t351 115t349 -116t121 -294h-270q-14 201 -217 200q-90 0 -136 -44t-45 -112q0 -68 47 -109q47 -40 173 -95q213 -94 293 -192t79 -230q0 -201 -137 -326
q-137 -124 -389 -124t-374 118t-128 314h270q29 -223 250 -224q97 0 157 50t60 137z" />
    <glyph glyph-name="uni1E63" unicode="&#x1e63;" horiz-adv-x="954" 
d="M459 -412h-285l59 287h287zM444 176q139 0 140 113q0 49 -40 82t-164 85t-190 119q-66 68 -65 179q0 147 105 236t301 89t293 -97t94 -234h-263q-6 135 -141 135q-51 0 -86 -24t-35 -69q0 -44 32 -68t162 -80t203 -126q73 -72 72 -188q0 -150 -110 -248t-318 -98t-316 92
t-104 258h271q8 -156 159 -156z" />
    <glyph glyph-name="uni1E6C" unicode="&#x1e6c;" horiz-adv-x="1077" 
d="M483 -412h-284l59 287h287zM287 0l248 1176h-367l49 227h1016l-49 -227h-369l-248 -1176h-280z" />
    <glyph glyph-name="uni1E6D" unicode="&#x1e6d;" horiz-adv-x="645" 
d="M322 -410h-285l59 287h287zM451 188q12 0 98 13l-39 -185q-70 -27 -176 -26q-152 0 -211 68t-27 214l127 580h-157l47 209h161l66 287h260l-63 -287h190l-45 -209h-190l-123 -559q-12 -57 4 -81t78 -24z" />
    <glyph glyph-name="uni1E6E" unicode="&#x1e6e;" horiz-adv-x="1077" 
d="M121 -156h586l-45 -215h-588zM287 0l248 1176h-367l49 227h1016l-49 -227h-369l-248 -1176h-280z" />
    <glyph glyph-name="uni1E6F" unicode="&#x1e6f;" horiz-adv-x="645" 
d="M-55 -156h585l-45 -215h-587zM451 188q12 0 98 13l-39 -185q-70 -27 -176 -26q-152 0 -211 68t-27 214l127 580h-157l47 209h161l66 287h260l-63 -287h190l-45 -209h-190l-123 -559q-12 -57 4 -81t78 -24z" />
    <glyph glyph-name="Wgrave" unicode="&#x1e80;" horiz-adv-x="1765" 
d="M688 1804h311l213 -284h-245zM985 0q0 129 -9 505t-5 494h-2q-46 -130 -227 -535q-180 -405 -207 -464h-287l-23 1403h275q-14 -842 -49 -1096h2q59 151 243 563t236 533h250q18 -786 2 -1081h2q49 137 236 596t198 485h291l-637 -1403h-289z" />
    <glyph glyph-name="wgrave" unicode="&#x1e81;" horiz-adv-x="1531" 
d="M465 1501h313l213 -301h-221zM995 1061q0 -163 4 -411t0 -347h2q16 45 124 289t202 469h277l-521 -1061h-292q-6 598 -5 702h-4q-35 -94 -307 -702h-295l-55 1061h270q10 -602 4 -764h4q66 166 328 764h264z" />
    <glyph glyph-name="Wacute" unicode="&#x1e82;" horiz-adv-x="1765" 
d="M1251 1810h367l-422 -284h-278zM985 0q0 129 -9 505t-5 494h-2q-46 -130 -227 -535q-180 -405 -207 -464h-287l-23 1403h275q-14 -842 -49 -1096h2q59 151 243 563t236 533h250q18 -786 2 -1081h2q49 137 236 596t198 485h291l-637 -1403h-289z" />
    <glyph glyph-name="wacute" unicode="&#x1e83;" horiz-adv-x="1531" 
d="M1057 1501h327l-395 -301h-258zM995 1061q0 -163 4 -411t0 -347h2q16 45 124 289t202 469h277l-521 -1061h-292q-6 598 -5 702h-4q-35 -94 -307 -702h-295l-55 1061h270q10 -602 4 -764h4q66 166 328 764h264z" />
    <glyph glyph-name="Wdieresis" unicode="&#x1e84;" horiz-adv-x="1765" 
d="M1372 1520h-219l55 262h219zM989 1520h-217l55 262h220zM985 0q0 129 -9 505t-5 494h-2q-46 -130 -227 -535q-180 -405 -207 -464h-287l-23 1403h275q-14 -842 -49 -1096h2q59 151 243 563t236 533h250q18 -786 2 -1081h2q49 137 236 596t198 485h291l-637 -1403h-289z
" />
    <glyph glyph-name="wdieresis" unicode="&#x1e85;" horiz-adv-x="1531" 
d="M1171 1223h-210l55 256h211zM805 1223h-211l55 256h211zM995 1061q0 -163 4 -411t0 -347h2q16 45 124 289t202 469h277l-521 -1061h-292q-6 598 -5 702h-4q-35 -94 -307 -702h-295l-55 1061h270q10 -602 4 -764h4q66 166 328 764h264z" />
    <glyph glyph-name="uni1E8E" unicode="&#x1e8e;" horiz-adv-x="1138" 
d="M895 1520h-277l56 262h276zM590 0h-277l117 541q4 31 -2 45l-260 817h291q154 -584 159 -608q258 383 416 608h299l-610 -836q-16 -16 -21 -43z" />
    <glyph glyph-name="uni1E8F" unicode="&#x1e8f;" horiz-adv-x="1005" 
d="M733 1225h-270l55 256h270zM426 252h2q289 657 365 809h282l-581 -1141q-58 -120 -110 -188t-112 -103t-113 -44q-55 -9 -137 -9t-133 10l48 226q37 -6 99 -6t102 39q42 40 85 135l-119 1081h275q7 -141 27 -431q20 -289 20 -378z" />
    <glyph glyph-name="uni1E92" unicode="&#x1e92;" horiz-adv-x="1159" 
d="M578 -410h-285l59 287h287zM-45 0l39 197l850 979h-635l49 227h969l-47 -223l-828 -953h699l-82 -227h-1014z" />
    <glyph glyph-name="uni1E93" unicode="&#x1e93;" horiz-adv-x="915" 
d="M424 -412h-285l60 287h286zM-61 0l43 201q332 354 596 651h-463l45 209h776l-49 -207q-270 -307 -574 -645h500l-78 -209h-796z" />
    <glyph glyph-name="uni1E97" unicode="&#x1e97;" horiz-adv-x="645" 
d="M776 1432h-211l56 256h210zM410 1432h-211l55 256h211zM451 188q12 0 98 13l-39 -185q-70 -27 -176 -26q-152 0 -211 68t-27 214l127 580h-157l47 209h161l66 287h260l-63 -287h190l-45 -209h-190l-123 -559q-12 -57 4 -81t78 -24z" />
    <glyph glyph-name="uni1E9E" unicode="&#x1e9e;" horiz-adv-x="1306" 
d="M1196 364q0 -168 -110 -276t-328 -108t-330 92l51 229q27 -33 105 -70t164 -37t125 44q38 43 38 101t-27 102q-28 44 -91 100l-111 94q-61 53 -52 120t81 113l270 170q2 10 2 29q0 53 -48 98t-166 45q-117 0 -169 -54t-72 -150l-213 -1006h-276l223 1032q14 64 30 112
t54 103q119 176 439 175q227 -1 350 -101t122 -254q0 -59 -20 -121l-293 -182l-2 -6l90 -80q164 -146 164 -314z" />
    <glyph glyph-name="uni1EA0" unicode="&#x1ea0;" horiz-adv-x="1267" 
d="M633 -391h-285l60 287h286zM791 1190h-5q-108 -261 -292 -621h342q-45 569 -45 621zM842 342h-447l-170 -342h-286q705 1384 714 1403h359l139 -1403h-274z" />
    <glyph glyph-name="uni1EA1" unicode="&#x1ea1;" horiz-adv-x="1085" 
d="M508 -424h-285l60 287h286zM303 305q0 -119 125 -119q113 0 165 74t81 205l4 22q-111 0 -168 -8q-207 -29 -207 -174zM590 891q-57 0 -96 -25t-53 -48q-13 -24 -25 -60h-266q72 322 458 321q463 0 371 -428l-86 -399q-41 -188 -51 -252h-260q4 47 16 106
q-100 -125 -289 -124q-133 0 -209 78t-75 206q0 352 471 389q119 10 217 11l8 30q23 92 -5 144t-126 51z" />
    <glyph glyph-name="uni1EA2" unicode="&#x1ea2;" horiz-adv-x="1267" 
d="M854 1663q0 47 -70 47t-129 -35l35 172q74 43 184 43t158 -47q49 -47 49 -117q1 -137 -149 -237h-234q156 102 156 174zM791 1190h-5q-108 -261 -292 -621h342q-45 569 -45 621zM842 342h-447l-170 -342h-286q705 1384 714 1403h359l139 -1403h-274z" />
    <glyph glyph-name="uni1EA3" unicode="&#x1ea3;" horiz-adv-x="1085" 
d="M674 1348q0 47 -71 47t-128 -35l35 172q74 43 184 43t158 -47q49 -47 49 -117q1 -137 -149 -237h-234q156 102 156 174zM303 305q0 -119 125 -119q113 0 165 74t81 205l4 22q-111 0 -168 -8q-207 -29 -207 -174zM590 891q-57 0 -96 -25t-53 -48q-13 -24 -25 -60h-266
q72 322 458 321q463 0 371 -428l-86 -399q-41 -188 -51 -252h-260q4 47 16 106q-100 -125 -289 -124q-133 0 -209 78t-75 206q0 352 471 389q119 10 217 11l8 30q23 92 -5 144t-126 51z" />
    <glyph glyph-name="uni1EA4" unicode="&#x1ea4;" horiz-adv-x="1267" 
d="M1405 1923h293l-307 -237h-246zM737 1737h310l176 -248h-252l-97 125l-143 -125h-276zM791 1190h-5q-108 -261 -292 -621h342q-45 569 -45 621zM842 342h-447l-170 -342h-286q705 1384 714 1403h359l139 -1403h-274z" />
    <glyph glyph-name="uni1EA5" unicode="&#x1ea5;" horiz-adv-x="1085" 
d="M1200 1667h283l-328 -272h-233zM565 1446h283l141 -262h-233l-76 127l-127 -127h-252zM303 305q0 -119 125 -119q113 0 165 74t81 205l4 22q-111 0 -168 -8q-207 -29 -207 -174zM590 891q-57 0 -96 -25t-53 -48q-13 -24 -25 -60h-266q72 322 458 321q463 0 371 -428
l-86 -399q-41 -188 -51 -252h-260q4 47 16 106q-100 -125 -289 -124q-133 0 -209 78t-75 206q0 352 471 389q119 10 217 11l8 30q23 92 -5 144t-126 51z" />
    <glyph glyph-name="uni1EA6" unicode="&#x1ea6;" horiz-adv-x="1267" 
d="M1030 1929h289l186 -239h-225zM743 1741h310l176 -248h-252l-96 125l-144 -125h-276zM791 1190h-5q-108 -261 -292 -621h342q-45 569 -45 621zM842 342h-447l-170 -342h-286q705 1384 714 1403h359l139 -1403h-274z" />
    <glyph glyph-name="uni1EA7" unicode="&#x1ea7;" horiz-adv-x="1085" 
d="M825 1673h256l160 -278h-192zM571 1446h281l143 -262h-233l-76 127l-127 -127h-252zM303 305q0 -119 125 -119q113 0 165 74t81 205l4 22q-111 0 -168 -8q-207 -29 -207 -174zM590 891q-57 0 -96 -25t-53 -48q-13 -24 -25 -60h-266q72 322 458 321q463 0 371 -428
l-86 -399q-41 -188 -51 -252h-260q4 47 16 106q-100 -125 -289 -124q-133 0 -209 78t-75 206q0 352 471 389q119 10 217 11l8 30q23 92 -5 144t-126 51z" />
    <glyph glyph-name="uni1EA8" unicode="&#x1ea8;" horiz-adv-x="1267" 
d="M1241 1872q-62 0 -113 -29l31 152q63 37 159 37t140 -41q43 -41 43 -103q0 -119 -131 -207h-205q137 94 138 154q0 37 -62 37zM737 1743h310l176 -248h-252l-97 125l-143 -125h-276zM791 1190h-5q-108 -261 -292 -621h342q-45 569 -45 621zM842 342h-447l-170 -342h-286
q705 1384 714 1403h359l139 -1403h-274z" />
    <glyph glyph-name="uni1EA9" unicode="&#x1ea9;" horiz-adv-x="1085" 
d="M1069 1542q-1 39 -61 39t-111 -29l31 150q62 37 158 37t139 -41t43 -101q0 -120 -131 -208h-203q135 98 135 153zM565 1446h283l141 -262h-233l-76 127l-127 -127h-252zM303 305q0 -119 125 -119q113 0 165 74t81 205l4 22q-111 0 -168 -8q-207 -29 -207 -174zM590 891
q-57 0 -96 -25t-53 -48q-13 -24 -25 -60h-266q72 322 458 321q463 0 371 -428l-86 -399q-41 -188 -51 -252h-260q4 47 16 106q-100 -125 -289 -124q-133 0 -209 78t-75 206q0 352 471 389q119 10 217 11l8 30q23 92 -5 144t-126 51z" />
    <glyph glyph-name="uni1EAA" unicode="&#x1eaa;" horiz-adv-x="1267" 
d="M725 1698h309l174 -213h-258l-88 102l-133 -102h-278zM744 1995q78 0 184 -32t153 -32t56 60h149l-4 -27q-18 -113 -65 -156t-121 -43t-189 31t-151 31q-43 0 -51 -49l-3 -11h-151l4 21q19 111 65 159t124 48zM791 1190h-5q-108 -261 -292 -621h342q-45 569 -45 621z
M842 342h-447l-170 -342h-286q705 1384 714 1403h359l139 -1403h-274z" />
    <glyph glyph-name="uni1EAB" unicode="&#x1eab;" horiz-adv-x="1085" 
d="M551 1395h280l170 -230h-241l-86 113l-139 -113h-256zM838 1628q49 0 57 62h145l-4 -27q-29 -197 -186 -197q-53 0 -131 31t-105 31q-45 0 -53 -47l-2 -15h-151l6 35q18 105 64 149t116 44t146 -33t98 -33zM303 305q0 -119 125 -119q113 0 165 74t81 205l4 22
q-111 0 -168 -8q-207 -29 -207 -174zM590 891q-57 0 -96 -25t-53 -48q-13 -24 -25 -60h-266q72 322 458 321q463 0 371 -428l-86 -399q-41 -188 -51 -252h-260q4 47 16 106q-100 -125 -289 -124q-133 0 -209 78t-75 206q0 352 471 389q119 10 217 11l8 30q23 92 -5 144
t-126 51z" />
    <glyph glyph-name="uni1EAC" unicode="&#x1eac;" horiz-adv-x="1267" 
d="M745 1782h285l180 -285h-252l-88 143l-147 -143h-274zM623 -412h-285l59 287h287zM791 1190h-5q-108 -261 -292 -621h342q-45 569 -45 621zM842 342h-447l-170 -342h-286q705 1384 714 1403h359l139 -1403h-274z" />
    <glyph glyph-name="uni1EAD" unicode="&#x1ead;" horiz-adv-x="1085" 
d="M600 1489h279l131 -303h-242l-61 149l-127 -149h-265zM508 -412h-285l60 287h286zM303 305q0 -119 125 -119q113 0 165 74t81 205l4 22q-111 0 -168 -8q-207 -29 -207 -174zM590 891q-57 0 -96 -25t-53 -48q-13 -24 -25 -60h-266q72 322 458 321q463 0 371 -428l-86 -399
q-41 -188 -51 -252h-260q4 47 16 106q-100 -125 -289 -124q-133 0 -209 78t-75 206q0 352 471 389q119 10 217 11l8 30q23 92 -5 144t-126 51z" />
    <glyph glyph-name="uni1EAE" unicode="&#x1eae;" horiz-adv-x="1267" 
d="M855 1659q110 0 161 88h209q-117 -266 -402 -266q-88 1 -150 27t-90 69q-52 80 -44 170h196q10 -88 120 -88zM1028 2007h336l-365 -201h-245zM791 1190h-5q-108 -261 -292 -621h342q-45 569 -45 621zM842 342h-447l-170 -342h-286q705 1384 714 1403h359l139 -1403h-274z
" />
    <glyph glyph-name="uni1EAF" unicode="&#x1eaf;" horiz-adv-x="1085" 
d="M680 1329q104 0 147 94h193q-100 -266 -371 -266q-147 1 -215 79t-61 187h196q7 -94 111 -94zM815 1702h289l-301 -225h-232zM303 305q0 -119 125 -119q113 0 165 74t81 205l4 22q-111 0 -168 -8q-207 -29 -207 -174zM590 891q-57 0 -96 -25t-53 -48q-13 -24 -25 -60
h-266q72 322 458 321q463 0 371 -428l-86 -399q-41 -188 -51 -252h-260q4 47 16 106q-100 -125 -289 -124q-133 0 -209 78t-75 206q0 352 471 389q119 10 217 11l8 30q23 92 -5 144t-126 51z" />
    <glyph glyph-name="uni1EB0" unicode="&#x1eb0;" horiz-adv-x="1267" 
d="M870 1665q110 0 160 88h209q-117 -266 -401 -266q-88 1 -150 27t-91 69q-52 80 -44 170h197q10 -88 120 -88zM514 2013h317l199 -203h-223zM791 1190h-5q-108 -261 -292 -621h342q-45 569 -45 621zM842 342h-447l-170 -342h-286q705 1384 714 1403h359l139 -1403h-274z
" />
    <glyph glyph-name="uni1EB1" unicode="&#x1eb1;" horiz-adv-x="1085" 
d="M680 1329q104 0 147 94h193q-96 -266 -371 -266q-147 1 -215 79t-61 187h196q7 -94 111 -94zM369 1702h272l188 -225h-215zM303 305q0 -119 125 -119q113 0 165 74t81 205l4 22q-111 0 -168 -8q-207 -29 -207 -174zM590 891q-57 0 -96 -25t-53 -48q-13 -24 -25 -60h-266
q72 322 458 321q463 0 371 -428l-86 -399q-41 -188 -51 -252h-260q4 47 16 106q-100 -125 -289 -124q-133 0 -209 78t-75 206q0 352 471 389q119 10 217 11l8 30q23 92 -5 144t-126 51z" />
    <glyph glyph-name="uni1EB2" unicode="&#x1eb2;" horiz-adv-x="1267" 
d="M870 1667q110 0 160 88h209q-117 -266 -401 -266q-88 0 -150 27q-62 28 -91 70q-52 79 -44 169h197q10 -88 120 -88zM857 1995q-63 0 -114 -29l31 150q72 38 165 38t136 -40t43 -103q0 -123 -131 -207h-203q135 92 136 152q0 39 -63 39zM791 1190h-5q-108 -261 -292 -621
h342q-45 569 -45 621zM842 342h-447l-170 -342h-286q705 1384 714 1403h359l139 -1403h-274z" />
    <glyph glyph-name="uni1EB3" unicode="&#x1eb3;" horiz-adv-x="1085" 
d="M678 1329q106 0 149 94h193q-100 -266 -367 -266q-147 0 -218 80q-70 80 -64 186h196q5 -94 111 -94zM648 1659q-61 0 -113 -29l32 150q63 37 159 37t139 -40q42 -40 42 -102q0 -121 -131 -209h-203q135 98 136 154q0 39 -61 39zM303 305q0 -119 125 -119q113 0 165 74
t81 205l4 22q-111 0 -168 -8q-207 -29 -207 -174zM590 891q-57 0 -96 -25t-53 -48q-13 -24 -25 -60h-266q72 322 458 321q463 0 371 -428l-86 -399q-41 -188 -51 -252h-260q4 47 16 106q-100 -125 -289 -124q-133 0 -209 78t-75 206q0 352 471 389q119 10 217 11l8 30
q23 92 -5 144t-126 51z" />
    <glyph glyph-name="uni1EB4" unicode="&#x1eb4;" horiz-adv-x="1267" 
d="M864 1647q113 0 154 82h182q-90 -248 -369 -248q-143 0 -213 73q-69 75 -61 175h178q16 -82 129 -82zM1061 1980q49 0 57 60h146l-4 -33q-16 -106 -64 -148t-112 -42q-64 -1 -165 31t-128 32q-51 0 -58 -41l-4 -22h-151l8 47q31 180 186 180q66 0 167 -32t122 -32z
M791 1190h-5q-108 -261 -292 -621h342q-45 569 -45 621zM842 342h-447l-170 -342h-286q705 1384 714 1403h359l139 -1403h-274z" />
    <glyph glyph-name="uni1EB5" unicode="&#x1eb5;" horiz-adv-x="1085" 
d="M678 1317q100 0 141 82h180q-88 -250 -346 -250q-135 0 -199 75t-55 175h179q8 -41 29 -62q22 -20 71 -20zM608 1712q70 0 151 -32t101 -31q47 0 55 47l3 12h147l-4 -27q-33 -195 -187 -194q-53 0 -135 32t-106 31q-51 0 -58 -41l-4 -22h-151l8 47q16 102 64 140
q46 38 116 38zM303 305q0 -119 125 -119q113 0 165 74t81 205l4 22q-111 0 -168 -8q-207 -29 -207 -174zM590 891q-57 0 -96 -25t-53 -48q-13 -24 -25 -60h-266q72 322 458 321q463 0 371 -428l-86 -399q-41 -188 -51 -252h-260q4 47 16 106q-100 -125 -289 -124
q-133 0 -209 78t-75 206q0 352 471 389q119 10 217 11l8 30q23 92 -5 144t-126 51z" />
    <glyph glyph-name="uni1EB6" unicode="&#x1eb6;" horiz-adv-x="1267" 
d="M752 1790q0 -113 116 -113t164 113h197q-109 -297 -383 -297q-166 0 -238 88q-71 88 -55 209h199zM637 -389h-285l60 287h286zM791 1190h-5q-108 -261 -292 -621h342q-45 569 -45 621zM842 342h-447l-170 -342h-286q705 1384 714 1403h359l139 -1403h-274z" />
    <glyph glyph-name="uni1EB7" unicode="&#x1eb7;" horiz-adv-x="1085" 
d="M506 -412h-285l60 287h286zM590 1464q0 -104 94 -104q59 0 90 28t53 76h193q-98 -301 -365 -301q-152 0 -215 88t-45 213h195zM303 305q0 -119 125 -119q113 0 165 74t81 205l4 22q-111 0 -168 -8q-207 -29 -207 -174zM590 891q-57 0 -96 -25t-53 -48q-13 -24 -25 -60
h-266q72 322 458 321q463 0 371 -428l-86 -399q-41 -188 -51 -252h-260q4 47 16 106q-100 -125 -289 -124q-133 0 -209 78t-75 206q0 352 471 389q119 10 217 11l8 30q23 92 -5 144t-126 51z" />
    <glyph glyph-name="uni1EB8" unicode="&#x1eb8;" horiz-adv-x="1153" 
d="M602 -410h-285l60 287h287zM1067 846l-47 -230h-582l-82 -389h684l-82 -227h-919l297 1403h874l-49 -227h-604l-72 -330h582z" />
    <glyph glyph-name="uni1EB9" unicode="&#x1eb9;" horiz-adv-x="1069" 
d="M518 -412h-285l60 287h287zM756 715q0 164 -158 164q-96 0 -152 -72t-75 -166h377q8 35 8 74zM322 385q0 -193 157 -192q57 -1 99 23t59 48q16 24 37 64h270q-123 -346 -487 -346q-403 0 -404 426q0 209 124 425q62 107 178 177t268 69q190 0 290 -105t101 -272
q0 -98 -35 -235h-649q-8 -66 -8 -82z" />
    <glyph glyph-name="uni1EBA" unicode="&#x1eba;" horiz-adv-x="1153" 
d="M795 1679q0 47 -71 47t-128 -34l35 172q73 43 183 43t159 -47t49 -117q0 -138 -150 -238h-233q156 102 156 174zM1067 846l-47 -230h-582l-82 -389h684l-82 -227h-919l297 1403h874l-49 -227h-604l-72 -330h582z" />
    <glyph glyph-name="uni1EBB" unicode="&#x1ebb;" horiz-adv-x="1069" 
d="M668 1348q0 47 -71 47t-128 -35l35 172q74 43 184 43t158 -47q49 -47 49 -117q0 -137 -150 -237h-233q156 102 156 174zM756 715q0 164 -158 164q-96 0 -152 -72t-75 -166h377q8 35 8 74zM322 385q0 -193 157 -192q57 -1 99 23t59 48q16 24 37 64h270
q-123 -346 -487 -346q-403 0 -404 426q0 209 124 425q62 107 178 177t268 69q190 0 290 -105t101 -272q0 -98 -35 -235h-649q-8 -66 -8 -82z" />
    <glyph glyph-name="uni1EBC" unicode="&#x1ebc;" horiz-adv-x="1153" 
d="M662 1810q76 0 172 -42t120 -42t36 15q11 15 24 71h186l-12 -57q-25 -131 -84 -180q-58 -49 -140 -49t-174 41t-114 41q-39 0 -49 -54l-4 -22h-185l15 80q23 114 77 156q56 42 132 42zM1067 846l-47 -230h-582l-82 -389h684l-82 -227h-919l297 1403h874l-49 -227h-604
l-72 -330h582z" />
    <glyph glyph-name="uni1EBD" unicode="&#x1ebd;" horiz-adv-x="1069" 
d="M524 1495q66 0 156 -43t115 -43q51 0 61 72l2 16h180l-14 -80q-20 -129 -76 -174t-131 -45q-76 0 -163 41t-109 41q-43 0 -53 -51l-5 -25h-184l14 90q33 201 207 201zM756 715q0 164 -158 164q-96 0 -152 -72t-75 -166h377q8 35 8 74zM322 385q0 -193 157 -192
q57 -1 99 23t59 48q16 24 37 64h270q-123 -346 -487 -346q-403 0 -404 426q0 209 124 425q62 107 178 177t268 69q190 0 290 -105t101 -272q0 -98 -35 -235h-649q-8 -66 -8 -82z" />
    <glyph glyph-name="uni1EBE" unicode="&#x1ebe;" horiz-adv-x="1153" 
d="M1354 1962h293l-308 -238h-245zM686 1776h309l176 -248h-251l-97 125l-143 -125h-277zM1067 846l-47 -230h-582l-82 -389h684l-82 -227h-919l297 1403h874l-49 -227h-604l-72 -330h582z" />
    <glyph glyph-name="uni1EBF" unicode="&#x1ebf;" horiz-adv-x="1069" 
d="M1206 1667h283l-328 -272h-233zM571 1446h283l141 -262h-233l-76 127l-127 -127h-252zM756 715q0 164 -158 164q-96 0 -152 -72t-75 -166h377q8 35 8 74zM322 385q0 -193 157 -192q57 -1 99 23t59 48q16 24 37 64h270q-123 -346 -487 -346q-403 0 -404 426q0 209 124 425
q62 107 178 177t268 69q190 0 290 -105t101 -272q0 -98 -35 -235h-649q-8 -66 -8 -82z" />
    <glyph glyph-name="uni1EC0" unicode="&#x1ec0;" horiz-adv-x="1153" 
d="M973 1964h289l186 -240h-225zM686 1776h309l176 -248h-251l-97 125l-143 -125h-277zM1067 846l-47 -230h-582l-82 -389h684l-82 -227h-919l297 1403h874l-49 -227h-604l-72 -330h582z" />
    <glyph glyph-name="uni1EC1" unicode="&#x1ec1;" horiz-adv-x="1069" 
d="M817 1673h256l160 -278h-193zM563 1446h281l143 -262h-233l-76 127l-127 -127h-252zM756 715q0 164 -158 164q-96 0 -152 -72t-75 -166h377q8 35 8 74zM322 385q0 -193 157 -192q57 -1 99 23t59 48q16 24 37 64h270q-123 -346 -487 -346q-403 0 -404 426q0 209 124 425
q62 107 178 177t268 69q190 0 290 -105t101 -272q0 -98 -35 -235h-649q-8 -66 -8 -82z" />
    <glyph glyph-name="uni1EC2" unicode="&#x1ec2;" horiz-adv-x="1153" 
d="M1251 1868q1 37 -61 37t-113 -29l31 152q64 36 160 36t139 -41t43 -102q0 -119 -131 -207h-205q137 94 137 154zM686 1776h309l176 -248h-251l-97 125l-143 -125h-277zM1067 846l-47 -230h-582l-82 -389h684l-82 -227h-919l297 1403h874l-49 -227h-604l-72 -330h582z" />
    <glyph glyph-name="uni1EC3" unicode="&#x1ec3;" horiz-adv-x="1069" 
d="M1061 1542q-1 39 -61 39t-111 -29l31 150q62 37 158 37t139 -41t43 -101q-1 -120 -132 -208h-202q135 98 135 153zM557 1446h283l141 -262h-233l-76 127l-127 -127h-252zM756 715q0 164 -158 164q-96 0 -152 -72t-75 -166h377q8 35 8 74zM322 385q0 -193 157 -192
q57 -1 99 23t59 48q16 24 37 64h270q-123 -346 -487 -346q-403 0 -404 426q0 209 124 425q62 107 178 177t268 69q190 0 290 -105t101 -272q0 -98 -35 -235h-649q-8 -66 -8 -82z" />
    <glyph glyph-name="uni1EC4" unicode="&#x1ec4;" horiz-adv-x="1153" 
d="M686 1716h309l174 -213h-258l-88 103l-133 -103h-278zM705 2013q78 0 184 -32q106 -31 152 -31t55 47l2 12h149l-4 -27q-18 -114 -65 -156q-46 -42 -120 -42t-190 31t-151 30q-43 0 -51 -49l-2 -10h-152l4 20q18 111 64 159t125 48zM1067 846l-47 -230h-582l-82 -389h684
l-82 -227h-919l297 1403h874l-49 -227h-604l-72 -330h582z" />
    <glyph glyph-name="uni1EC5" unicode="&#x1ec5;" horiz-adv-x="1069" 
d="M545 1403h280l170 -229h-241l-86 112l-140 -112h-256zM831 1636q50 0 58 62h145l-4 -27q-29 -197 -186 -196q-53 1 -131 31t-105 30q-45 0 -53 -47l-2 -14h-152l7 34q18 105 64 149t116 44t146 -33t97 -33zM756 715q0 164 -158 164q-96 0 -152 -72t-75 -166h377
q8 35 8 74zM322 385q0 -193 157 -192q57 -1 99 23t59 48q16 24 37 64h270q-123 -346 -487 -346q-403 0 -404 426q0 209 124 425q62 107 178 177t268 69q190 0 290 -105t101 -272q0 -98 -35 -235h-649q-8 -66 -8 -82z" />
    <glyph glyph-name="uni1EC6" unicode="&#x1ec6;" horiz-adv-x="1153" 
d="M702 1802h285l180 -284h-252l-88 143l-147 -143h-274zM602 -410h-285l60 287h287zM1067 846l-47 -230h-582l-82 -389h684l-82 -227h-919l297 1403h874l-49 -227h-604l-72 -330h582z" />
    <glyph glyph-name="uni1EC7" unicode="&#x1ec7;" horiz-adv-x="1069" 
d="M592 1489h278l131 -303h-241l-62 149l-127 -149h-264zM520 -412h-284l59 287h287zM756 715q0 164 -158 164q-96 0 -152 -72t-75 -166h377q8 35 8 74zM322 385q0 -193 157 -192q57 -1 99 23t59 48q16 24 37 64h270q-123 -346 -487 -346q-403 0 -404 426q0 209 124 425
q62 107 178 177t268 69q190 0 290 -105t101 -272q0 -98 -35 -235h-649q-8 -66 -8 -82z" />
    <glyph glyph-name="uni1EC8" unicode="&#x1ec8;" horiz-adv-x="581" 
d="M542 1911q110 0 158 -47q49 -47 50 -117q0 -138 -150 -238h-233q156 102 155 174q0 47 -70 47t-128 -34l34 172q74 43 184 43zM336 1403h276l-297 -1403h-276z" />
    <glyph glyph-name="uni1EC9" unicode="&#x1ec9;" horiz-adv-x="532" 
d="M426 1348q0 47 -71 47t-128 -35l35 172q74 43 184 43t158 -47q49 -47 49 -117q1 -137 -149 -237h-234q156 102 156 174zM16 0l226 1061h270l-225 -1061h-271z" />
    <glyph glyph-name="uni1ECA" unicode="&#x1eca;" horiz-adv-x="581" 
d="M236 -412h-285l59 287h287zM336 1403h276l-297 -1403h-276z" />
    <glyph glyph-name="uni1ECB" unicode="&#x1ecb;" horiz-adv-x="532" 
d="M213 -412h-285l60 287h286zM276 1233l54 256h272l-55 -256h-271zM16 0l226 1061h270l-225 -1061h-271z" />
    <glyph glyph-name="uni1ECC" unicode="&#x1ecc;" horiz-adv-x="1421" 
d="M684 -412h-285l60 287h286zM815 1202q-104 0 -187 -66t-129 -168q-96 -215 -96 -436q0 -334 267 -333q106 1 190 67t131 169q96 211 94 431q0 336 -270 336zM842 1421q266 -1 399 -155t133 -408t-103 -472q-56 -118 -139 -207t-209 -144t-282 -55q-264 0 -394 152
t-130 400q0 249 103 467q56 119 137 212t207 151t278 59z" />
    <glyph glyph-name="uni1ECD" unicode="&#x1ecd;" horiz-adv-x="1116" 
d="M520 -412h-284l59 287h287zM778 682q0 182 -167 182q-89 0 -157 -79q-123 -144 -121 -366q1 -222 165 -222q72 0 129 48q98 83 136 274q15 77 15 163zM641 1079q203 1 307 -113t104 -310t-83 -365q-98 -195 -276 -269q-99 -42 -220 -42q-211 0 -315 116t-104 325
q0 210 132 423q66 104 184 170t271 65z" />
    <glyph glyph-name="uni1ECE" unicode="&#x1ece;" horiz-adv-x="1421" 
d="M895 1694q0 47 -71 47t-128 -35l35 172q73 43 183 43t159 -47t49 -117q1 -137 -149 -237h-234q156 102 156 174zM815 1202q-104 0 -187 -66t-129 -168q-96 -215 -96 -436q0 -334 267 -333q106 1 190 67t131 169q96 211 94 431q0 336 -270 336zM842 1421q266 -1 399 -155
t133 -408t-103 -472q-56 -118 -139 -207t-209 -144t-282 -55q-264 0 -394 152t-130 400q0 249 103 467q56 119 137 212t207 151t278 59z" />
    <glyph glyph-name="uni1ECF" unicode="&#x1ecf;" horiz-adv-x="1116" 
d="M626 1395q-70 0 -128 -35l34 172q74 43 184 43t158 -47q49 -47 50 -117q0 -137 -150 -237h-233q156 102 155 174q0 47 -70 47zM778 682q0 182 -167 182q-89 0 -157 -79q-123 -144 -121 -366q1 -222 165 -222q72 0 129 48q98 83 136 274q15 77 15 163zM641 1079
q203 1 307 -113t104 -310t-83 -365q-98 -195 -276 -269q-99 -42 -220 -42q-211 0 -315 116t-104 325q0 210 132 423q66 104 184 170t271 65z" />
    <glyph glyph-name="uni1ED0" unicode="&#x1ed0;" horiz-adv-x="1421" 
d="M1438 1962h293l-308 -238h-245zM770 1776h309l176 -248h-251l-97 125l-143 -125h-277zM815 1202q-104 0 -187 -66t-129 -168q-96 -215 -96 -436q0 -334 267 -333q106 1 190 67t131 169q96 211 94 431q0 336 -270 336zM842 1421q266 -1 399 -155t133 -408t-103 -472
q-56 -118 -139 -207t-209 -144t-282 -55q-264 0 -394 152t-130 400q0 249 103 467q56 119 137 212t207 151t278 59z" />
    <glyph glyph-name="uni1ED1" unicode="&#x1ed1;" horiz-adv-x="1116" 
d="M1227 1667h282l-327 -272h-234zM592 1446h282l142 -262h-234l-75 127l-127 -127h-252zM778 682q0 182 -167 182q-89 0 -157 -79q-123 -144 -121 -366q1 -222 165 -222q72 0 129 48q98 83 136 274q15 77 15 163zM641 1079q203 1 307 -113t104 -310t-83 -365
q-98 -195 -276 -269q-99 -42 -220 -42q-211 0 -315 116t-104 325q0 210 132 423q66 104 184 170t271 65z" />
    <glyph glyph-name="uni1ED2" unicode="&#x1ed2;" horiz-adv-x="1421" 
d="M1059 1958h289l186 -240h-225zM772 1769h309l176 -247h-251l-97 125l-143 -125h-277zM815 1202q-104 0 -187 -66t-129 -168q-96 -215 -96 -436q0 -334 267 -333q106 1 190 67t131 169q96 211 94 431q0 336 -270 336zM842 1421q266 -1 399 -155t133 -408t-103 -472
q-56 -118 -139 -207t-209 -144t-282 -55q-264 0 -394 152t-130 400q0 249 103 467q56 119 137 212t207 151t278 59z" />
    <glyph glyph-name="uni1ED3" unicode="&#x1ed3;" horiz-adv-x="1116" 
d="M846 1673h256l160 -278h-193zM592 1446h280l144 -262h-234l-75 127l-127 -127h-252zM778 682q0 182 -167 182q-89 0 -157 -79q-123 -144 -121 -366q1 -222 165 -222q72 0 129 48q98 83 136 274q15 77 15 163zM641 1079q203 1 307 -113t104 -310t-83 -365
q-98 -195 -276 -269q-99 -42 -220 -42q-211 0 -315 116t-104 325q0 210 132 423q66 104 184 170t271 65z" />
    <glyph glyph-name="uni1ED4" unicode="&#x1ed4;" horiz-adv-x="1421" 
d="M1339 1860q1 36 -61 36t-113 -28l31 151q64 37 160 37t139 -41t43 -102q0 -119 -131 -207h-205q137 94 137 154zM774 1767h309l177 -247h-252l-97 125l-143 -125h-276zM815 1202q-104 0 -187 -66t-129 -168q-96 -215 -96 -436q0 -334 267 -333q106 1 190 67t131 169
q96 211 94 431q0 336 -270 336zM842 1421q266 -1 399 -155t133 -408t-103 -472q-56 -118 -139 -207t-209 -144t-282 -55q-264 0 -394 152t-130 400q0 249 103 467q56 119 137 212t207 151t278 59z" />
    <glyph glyph-name="uni1ED5" unicode="&#x1ed5;" horiz-adv-x="1116" 
d="M1029 1581q-61 0 -111 -29l30 150q62 37 158 37t139 -41t43 -101q0 -120 -131 -208h-203q135 98 136 153q0 39 -61 39zM586 1446h282l142 -262h-234l-76 127l-127 -127h-251zM778 682q0 182 -167 182q-89 0 -157 -79q-123 -144 -121 -366q1 -222 165 -222q72 0 129 48
q98 83 136 274q15 77 15 163zM641 1079q203 1 307 -113t104 -310t-83 -365q-98 -195 -276 -269q-99 -42 -220 -42q-211 0 -315 116t-104 325q0 210 132 423q66 104 184 170t271 65z" />
    <glyph glyph-name="uni1ED6" unicode="&#x1ed6;" horiz-adv-x="1421" 
d="M760 1724h309l174 -213h-258l-88 103l-133 -103h-279zM778 2021q78 1 184 -31t153 -32q46 0 54 47l2 12h150l-4 -26q-17 -113 -65 -156t-122 -43t-188 31q-115 31 -151 30q-43 0 -52 -49l-2 -10h-151l4 21q18 111 64 159t124 47zM815 1202q-104 0 -187 -66t-129 -168
q-96 -215 -96 -436q0 -334 267 -333q106 1 190 67t131 169q96 211 94 431q0 336 -270 336zM842 1421q266 -1 399 -155t133 -408t-103 -472q-56 -118 -139 -207t-209 -144t-282 -55q-264 0 -394 152t-130 400q0 249 103 467q56 119 137 212t207 151t278 59z" />
    <glyph glyph-name="uni1ED7" unicode="&#x1ed7;" horiz-adv-x="1116" 
d="M575 1395h281l170 -230h-242l-86 113l-139 -113h-256zM862 1628q50 0 58 62h145l-4 -27q-29 -197 -187 -197q-53 0 -131 31t-104 31q-45 0 -53 -47l-2 -15h-152l6 35q33 193 181 193q71 0 147 -33t96 -33zM778 682q0 182 -167 182q-89 0 -157 -79q-123 -144 -121 -366
q1 -222 165 -222q72 0 129 48q98 83 136 274q15 77 15 163zM641 1079q203 1 307 -113t104 -310t-83 -365q-98 -195 -276 -269q-99 -42 -220 -42q-211 0 -315 116t-104 325q0 210 132 423q66 104 184 170t271 65z" />
    <glyph glyph-name="uni1ED8" unicode="&#x1ed8;" horiz-adv-x="1421" 
d="M776 1794h285l180 -285h-252l-88 144l-147 -144h-275zM684 -412h-285l60 287h286zM815 1202q-104 0 -187 -66t-129 -168q-96 -215 -96 -436q0 -334 267 -333q106 1 190 67t131 169q96 211 94 431q0 336 -270 336zM842 1421q266 -1 399 -155t133 -408t-103 -472
q-56 -118 -139 -207t-209 -144t-282 -55q-264 0 -394 152t-130 400q0 249 103 467q56 119 137 212t207 151t278 59z" />
    <glyph glyph-name="uni1ED9" unicode="&#x1ed9;" horiz-adv-x="1116" 
d="M604 1489h279l131 -303h-242l-61 149l-127 -149h-265zM524 -410h-284l59 287h287zM778 682q0 182 -167 182q-89 0 -157 -79q-123 -144 -121 -366q1 -222 165 -222q72 0 129 48q98 83 136 274q15 77 15 163zM641 1079q203 1 307 -113t104 -310t-83 -365
q-98 -195 -276 -269q-99 -42 -220 -42q-211 0 -315 116t-104 325q0 210 132 423q66 104 184 170t271 65z" />
    <glyph glyph-name="uni1EDA" unicode="&#x1eda;" horiz-adv-x="1421" 
d="M1057 1810h366l-422 -284h-278zM815 1202q-104 0 -187 -66t-129 -168q-96 -215 -96 -436q0 -334 267 -333q106 1 190 67t131 169q96 211 94 431q0 336 -270 336zM842 1421q250 0 387 -143q63 16 90 67t14 158h228q2 -14 2 -53q0 -264 -228 -346q39 -104 39 -232t-24 -248
t-79 -238q-56 -118 -139 -207t-209 -144t-282 -55q-264 0 -394 152t-130 400q0 249 103 467q56 119 137 212t207 151t278 59z" />
    <glyph glyph-name="uni1EDB" unicode="&#x1edb;" horiz-adv-x="1116" 
d="M834 1520h327l-395 -301h-258zM778 682q0 182 -167 182q-89 0 -157 -79q-123 -144 -121 -366q1 -222 165 -222q72 0 129 48q98 83 136 274q15 77 15 163zM934 979q94 31 94 144q0 44 -4 77h227q2 -14 2 -53q0 -260 -217 -342q34 -150 -5 -341t-173 -332
q-66 -68 -165 -110t-220 -42q-211 0 -315 116t-104 325q0 210 132 423q66 104 184 170t288 65q169 0 276 -100z" />
    <glyph glyph-name="uni1EDC" unicode="&#x1edc;" horiz-adv-x="1421" 
d="M514 1806h311l213 -284h-245zM815 1202q-104 0 -187 -66t-129 -168q-96 -215 -96 -436q0 -334 267 -333q106 1 190 67t131 169q96 211 94 431q0 336 -270 336zM842 1421q250 0 387 -143q63 16 90 67t14 158h228q2 -14 2 -53q0 -264 -228 -346q39 -104 39 -232t-24 -248
t-79 -238q-56 -118 -139 -207t-209 -144t-282 -55q-264 0 -394 152t-130 400q0 249 103 467q56 119 137 212t207 151t278 59z" />
    <glyph glyph-name="uni1EDD" unicode="&#x1edd;" horiz-adv-x="1116" 
d="M299 1520h313l213 -301h-221zM778 682q0 182 -167 182q-89 0 -157 -79q-123 -144 -121 -366q1 -222 165 -222q72 0 129 48q98 83 136 274q15 77 15 163zM934 979q94 31 94 144q0 44 -4 77h227q2 -14 2 -53q0 -260 -217 -342q34 -150 -5 -341t-173 -332q-66 -68 -165 -110
t-220 -42q-211 0 -315 116t-104 325q0 210 132 423q66 104 184 170t288 65q169 0 276 -100z" />
    <glyph glyph-name="uni1EDE" unicode="&#x1ede;" horiz-adv-x="1421" 
d="M891 1683q0 47 -71 47t-128 -34l35 172q73 43 183 43t159 -47t49 -117q1 -138 -149 -238h-234q156 102 156 174zM815 1202q-104 0 -187 -66t-129 -168q-96 -215 -96 -436q0 -334 267 -333q106 1 190 67t131 169q96 211 94 431q0 336 -270 336zM842 1421q250 0 387 -143
q63 16 90 67t14 158h228q2 -14 2 -53q0 -264 -228 -346q39 -104 39 -232t-24 -248t-79 -238q-56 -118 -139 -207t-209 -144t-282 -55q-264 0 -394 152t-130 400q0 249 103 467q56 119 137 212t207 151t278 59z" />
    <glyph glyph-name="uni1EDF" unicode="&#x1edf;" horiz-adv-x="1116" 
d="M624 1395q-70 0 -128 -35l34 172q74 43 184 43t158 -47q49 -47 50 -117q0 -137 -150 -237h-233q156 102 155 174q0 47 -70 47zM778 682q0 182 -167 182q-89 0 -157 -79q-123 -144 -121 -366q1 -222 165 -222q72 0 129 48q98 83 136 274q15 77 15 163zM934 979
q94 31 94 144q0 44 -4 77h227q2 -14 2 -53q0 -260 -217 -342q34 -150 -5 -341t-173 -332q-66 -68 -165 -110t-220 -42q-211 0 -315 116t-104 325q0 210 132 423q66 104 184 170t288 65q169 0 276 -100z" />
    <glyph glyph-name="uni1EE0" unicode="&#x1ee0;" horiz-adv-x="1421" 
d="M770 1810q76 0 172 -42t121 -42t36 14t23 72h187l-13 -57q-25 -131 -84 -180t-140 -49t-173 41t-115 41q-39 0 -49 -54l-4 -22h-184l14 80q23 114 78 156t131 42zM815 1202q-104 0 -187 -66t-129 -168q-96 -215 -96 -436q0 -334 267 -333q106 1 190 67t131 169
q96 211 94 431q0 336 -270 336zM842 1421q250 0 387 -143q63 16 90 67t14 158h228q2 -14 2 -53q0 -264 -228 -346q39 -104 39 -232t-24 -248t-79 -238q-56 -118 -139 -207t-209 -144t-282 -55q-264 0 -394 152t-130 400q0 249 103 467q56 119 137 212t207 151t278 59z" />
    <glyph glyph-name="uni1EE1" unicode="&#x1ee1;" horiz-adv-x="1116" 
d="M565 1495q66 0 156 -43t115 -43q51 0 61 72l2 16h180l-14 -80q-19 -129 -75 -174t-132 -45t-163 41t-109 41q-43 0 -54 -51l-4 -25h-184l14 90q33 201 207 201zM778 682q0 182 -167 182q-89 0 -157 -79q-123 -144 -121 -366q1 -222 165 -222q72 0 129 48q98 83 136 274
q15 77 15 163zM934 979q94 31 94 144q0 44 -4 77h227q2 -14 2 -53q0 -260 -217 -342q34 -150 -5 -341t-173 -332q-66 -68 -165 -110t-220 -42q-211 0 -315 116t-104 325q0 210 132 423q66 104 184 170t288 65q169 0 276 -100z" />
    <glyph glyph-name="uni1EE2" unicode="&#x1ee2;" horiz-adv-x="1421" 
d="M696 -428h-284l59 287h287zM815 1202q-104 0 -187 -66t-129 -168q-96 -215 -96 -436q0 -334 267 -333q106 1 190 67t131 169q96 211 94 431q0 336 -270 336zM842 1421q250 0 387 -143q63 16 90 67t14 158h228q2 -14 2 -53q0 -264 -228 -346q39 -104 39 -232t-24 -248
t-79 -238q-56 -118 -139 -207t-209 -144t-282 -55q-264 0 -394 152t-130 400q0 249 103 467q56 119 137 212t207 151t278 59z" />
    <glyph glyph-name="uni1EE3" unicode="&#x1ee3;" horiz-adv-x="1116" 
d="M524 -412h-284l59 287h287zM778 682q0 182 -167 182q-89 0 -157 -79q-123 -144 -121 -366q1 -222 165 -222q72 0 129 48q98 83 136 274q15 77 15 163zM934 979q94 31 94 144q0 44 -4 77h227q2 -14 2 -53q0 -260 -217 -342q34 -150 -5 -341t-173 -332q-66 -68 -165 -110
t-220 -42q-211 0 -315 116t-104 325q0 210 132 423q66 104 184 170t288 65q169 0 276 -100z" />
    <glyph glyph-name="uni1EE4" unicode="&#x1ee4;" horiz-adv-x="1325" 
d="M627 -416h-285l59 287h287zM610 199q137 0 200 79q62 79 93 228l193 897h278l-190 -897q-27 -125 -62 -209q-88 -212 -275 -279q-110 -39 -265 -38q-291 0 -398 145q-106 145 -53 399l188 879h279l-192 -899q-68 -305 204 -305z" />
    <glyph glyph-name="uni1EE5" unicode="&#x1ee5;" horiz-adv-x="1120" 
d="M543 -412h-285l59 287h287zM1104 1061l-160 -748q-47 -217 -63 -313h-263q10 84 17 115q-59 -76 -130 -105t-173 -28q-150 0 -216 108t-28 285l145 686h269l-140 -660q-39 -201 107 -200q180 0 238 270l124 590h273z" />
    <glyph glyph-name="uni1EE6" unicode="&#x1ee6;" horiz-adv-x="1325" 
d="M792 1710q-70 0 -128 -35l34 172q74 43 184 43t158 -47q49 -47 50 -117q0 -137 -150 -237h-233q156 102 155 174q0 47 -70 47zM610 199q137 0 200 79q62 79 93 228l193 897h278l-190 -897q-27 -125 -62 -209q-88 -212 -275 -279q-110 -39 -265 -38q-291 0 -398 145
q-106 145 -53 399l188 879h279l-192 -899q-68 -305 204 -305z" />
    <glyph glyph-name="uni1EE7" unicode="&#x1ee7;" horiz-adv-x="1120" 
d="M626 1382q-70 0 -128 -34l34 172q74 43 184 43t158 -47q49 -47 50 -117q0 -138 -150 -238h-233q156 102 155 174q0 47 -70 47zM1104 1061l-160 -748q-47 -217 -63 -313h-263q10 84 17 115q-59 -76 -130 -105t-173 -28q-150 0 -216 108t-28 285l145 686h269l-140 -660
q-39 -201 107 -200q180 0 238 270l124 590h273z" />
    <glyph glyph-name="uni1EE8" unicode="&#x1ee8;" horiz-adv-x="1325" 
d="M1001 1790h367l-422 -285h-278zM610 199q137 0 200 79q62 79 93 228l193 897h121q87 10 117 54t30 128q0 16 -4 49h227q2 -14 2 -53q0 -283 -252 -352l-153 -723q-27 -125 -62 -209q-88 -212 -275 -279q-110 -39 -265 -38q-291 0 -398 145q-106 145 -53 399l188 879h279
l-192 -899q-68 -305 204 -305z" />
    <glyph glyph-name="uni1EE9" unicode="&#x1ee9;" horiz-adv-x="1120" 
d="M831 1520h328l-395 -301h-258zM1063 1241q0 16 -4 49h227q2 -14 2 -53q0 -260 -219 -342l-125 -582q-47 -217 -63 -313h-263q11 84 17 115q-59 -76 -130 -105t-173 -28q-150 0 -216 108t-28 285l145 686h269l-140 -660q-39 -201 107 -200q180 0 238 270l124 590h99
q80 12 106 55t27 125z" />
    <glyph glyph-name="uni1EEA" unicode="&#x1eea;" horiz-adv-x="1325" 
d="M483 1786h312l213 -285h-246zM610 199q137 0 200 79q62 79 93 228l193 897h121q87 10 117 54t30 128q0 16 -4 49h227q2 -14 2 -53q0 -283 -252 -352l-153 -723q-27 -125 -62 -209q-88 -212 -275 -279q-110 -39 -265 -38q-291 0 -398 145q-106 145 -53 399l188 879h279
l-192 -899q-68 -305 204 -305z" />
    <glyph glyph-name="uni1EEB" unicode="&#x1eeb;" horiz-adv-x="1120" 
d="M311 1501h314l213 -301h-222zM1063 1241q0 16 -4 49h227q2 -14 2 -53q0 -260 -219 -342l-125 -582q-47 -217 -63 -313h-263q11 84 17 115q-59 -76 -130 -105t-173 -28q-150 0 -216 108t-28 285l145 686h269l-140 -660q-39 -201 107 -200q180 0 238 270l124 590h99
q80 12 106 55t27 125z" />
    <glyph glyph-name="uni1EEC" unicode="&#x1eec;" horiz-adv-x="1325" 
d="M879 1663q0 47 -71 47t-128 -35l35 172q73 43 183 43t159 -47t49 -117q0 -137 -150 -237h-233q156 102 156 174zM610 199q137 0 200 79q62 79 93 228l193 897h121q87 10 117 54t30 128q0 16 -4 49h227q2 -14 2 -53q0 -283 -252 -352l-153 -723q-27 -125 -62 -209
q-88 -212 -275 -279q-110 -39 -265 -38q-291 0 -398 145q-106 145 -53 399l188 879h279l-192 -899q-68 -305 204 -305z" />
    <glyph glyph-name="uni1EED" unicode="&#x1eed;" horiz-adv-x="1120" 
d="M686 1329q0 47 -70 47t-129 -35l35 172q74 43 184 43t158 -47q49 -47 49 -116q1 -138 -149 -238h-234q156 102 156 174zM1063 1241q0 16 -4 49h227q2 -14 2 -53q0 -260 -219 -342l-125 -582q-47 -217 -63 -313h-263q11 84 17 115q-59 -76 -130 -105t-173 -28
q-150 0 -216 108t-28 285l145 686h269l-140 -660q-39 -201 107 -200q180 0 238 270l124 590h99q80 12 106 55t27 125z" />
    <glyph glyph-name="uni1EEE" unicode="&#x1eee;" horiz-adv-x="1325" 
d="M746 1808q76 0 172 -42t120 -42t36 15q11 15 24 71h186l-12 -57q-25 -131 -84 -180q-58 -49 -140 -49t-174 41t-114 41q-39 0 -49 -54l-4 -22h-185l15 80q23 114 77 156q56 42 132 42zM610 199q137 0 200 79q62 79 93 228l193 897h121q87 10 117 54t30 128q0 16 -4 49
h227q2 -14 2 -53q0 -283 -252 -352l-153 -723q-27 -125 -62 -209q-88 -212 -275 -279q-110 -39 -265 -38q-291 0 -398 145q-106 145 -53 399l188 879h279l-192 -899q-68 -305 204 -305z" />
    <glyph glyph-name="uni1EEF" unicode="&#x1eef;" horiz-adv-x="1120" 
d="M831 1411q53 0 64 88h180l-14 -80q-19 -129 -75 -174t-132 -45t-163 41t-109 41q-43 0 -54 -51l-4 -25h-184l14 90q33 201 207 201q66 0 156 -43t114 -43zM1063 1241q0 16 -4 49h227q2 -14 2 -53q0 -260 -219 -342l-125 -582q-47 -217 -63 -313h-263q11 84 17 115
q-59 -76 -130 -105t-173 -28q-150 0 -216 108t-28 285l145 686h269l-140 -660q-39 -201 107 -200q180 0 238 270l124 590h99q80 12 106 55t27 125z" />
    <glyph glyph-name="uni1EF0" unicode="&#x1ef0;" horiz-adv-x="1325" 
d="M631 -430h-285l60 287h286zM610 199q137 0 200 79q62 79 93 228l193 897h121q87 10 117 54t30 128q0 16 -4 49h227q2 -14 2 -53q0 -283 -252 -352l-153 -723q-27 -125 -62 -209q-88 -212 -275 -279q-110 -39 -265 -38q-291 0 -398 145q-106 145 -53 399l188 879h279
l-192 -899q-68 -305 204 -305z" />
    <glyph glyph-name="uni1EF1" unicode="&#x1ef1;" horiz-adv-x="1120" 
d="M543 -412h-285l59 287h287zM1063 1241q0 16 -4 49h227q2 -14 2 -53q0 -260 -219 -342l-125 -582q-47 -217 -63 -313h-263q11 84 17 115q-59 -76 -130 -105t-173 -28q-150 0 -216 108t-28 285l145 686h269l-140 -660q-39 -201 107 -200q180 0 238 270l124 590h99
q80 12 106 55t27 125z" />
    <glyph glyph-name="Ygrave" unicode="&#x1ef2;" horiz-adv-x="1138" 
d="M362 1788h312l213 -285h-246zM590 0h-277l117 541q4 31 -2 45l-260 817h291q154 -584 159 -608q258 383 416 608h299l-610 -836q-16 -16 -21 -43z" />
    <glyph glyph-name="ygrave" unicode="&#x1ef3;" horiz-adv-x="1005" 
d="M190 1501h314l213 -301h-221zM426 252h2q289 657 365 809h282l-581 -1141q-58 -120 -110 -188t-112 -103t-113 -44q-55 -9 -137 -9t-133 10l48 226q37 -6 99 -6t102 39q42 40 85 135l-119 1081h275q7 -141 27 -431q20 -289 20 -378z" />
    <glyph glyph-name="uni1EF4" unicode="&#x1ef4;" horiz-adv-x="1138" 
d="M512 -412h-285l60 287h286zM590 0h-277l117 541q4 31 -2 45l-260 817h291q154 -584 159 -608q258 383 416 608h299l-610 -836q-16 -16 -21 -43z" />
    <glyph glyph-name="uni1EF5" unicode="&#x1ef5;" horiz-adv-x="1005" 
d="M829 -373h-284l59 287h287zM426 252h2q289 657 365 809h282l-581 -1141q-58 -120 -110 -188t-112 -103t-113 -44q-55 -9 -137 -9t-133 10l48 226q37 -6 99 -6t102 39q42 40 85 135l-119 1081h275q7 -141 27 -431q20 -289 20 -378z" />
    <glyph glyph-name="uni1EF6" unicode="&#x1ef6;" horiz-adv-x="1138" 
d="M764 1661q0 47 -71 47t-128 -35l35 172q74 43 184 43t158 -47q49 -47 49 -117q1 -137 -149 -237h-234q156 102 156 174zM590 0h-277l117 541q4 31 -2 45l-260 817h291q154 -584 159 -608q258 383 416 608h299l-610 -836q-16 -16 -21 -43z" />
    <glyph glyph-name="uni1EF7" unicode="&#x1ef7;" horiz-adv-x="1005" 
d="M598 1331q0 47 -70 47t-129 -35l35 173q74 43 184 43q110 1 158 -47q49 -48 49 -117q1 -138 -149 -238h-234q156 102 156 174zM426 252h2q289 657 365 809h282l-581 -1141q-58 -120 -110 -188t-112 -103t-113 -44q-55 -9 -137 -9t-133 10l48 226q37 -6 99 -6t102 39
q42 40 85 135l-119 1081h275q7 -141 27 -431q20 -289 20 -378z" />
    <glyph glyph-name="uni1EF8" unicode="&#x1ef8;" horiz-adv-x="1138" 
d="M631 1800q76 0 172 -42t121 -42t36 15t23 71h186l-12 -57q-25 -131 -84 -180t-140 -49t-173 40t-115 41q-39 0 -49 -53l-4 -22h-184l14 80q23 114 78 156t131 42zM590 0h-277l117 541q4 31 -2 45l-260 817h291q154 -584 159 -608q258 383 416 608h299l-610 -836
q-16 -16 -21 -43z" />
    <glyph glyph-name="uni1EF9" unicode="&#x1ef9;" horiz-adv-x="1005" 
d="M496 1497q66 0 156 -43t114 -43q51 0 61 72l2 16h181l-15 -80q-20 -129 -75 -174q-56 -45 -132 -45t-162 41t-110 41q-43 0 -53 -51l-4 -25h-185l15 90q33 201 207 201zM426 252h2q289 657 365 809h282l-581 -1141q-58 -120 -110 -188t-112 -103t-113 -44q-55 -9 -137 -9
t-133 10l48 226q37 -6 99 -6t102 39q42 40 85 135l-119 1081h275q7 -141 27 -431q20 -289 20 -378z" />
    <glyph glyph-name="uni2007" unicode="&#x2007;" horiz-adv-x="1107" 
 />
    <glyph glyph-name="uni2010" unicode="&#x2010;" horiz-adv-x="681" 
d="M109 641h514l-50 -225h-516z" />
    <glyph glyph-name="figuredash" unicode="&#x2012;" horiz-adv-x="1107" 
d="M190 756h777l-49 -230h-777z" />
    <glyph glyph-name="endash" unicode="&#x2013;" horiz-adv-x="862" 
d="M111 641h690l-49 -223h-691z" />
    <glyph glyph-name="emdash" unicode="&#x2014;" horiz-adv-x="1495" 
d="M111 641h1323l-50 -223h-1323z" />
    <glyph glyph-name="uni2015" unicode="&#x2015;" horiz-adv-x="1495" 
d="M111 641h1323l-50 -223h-1323z" />
    <glyph glyph-name="quoteleft" unicode="&#x2018;" horiz-adv-x="442" 
d="M391 1491h203q-119 -201 -201 -537h-239q37 150 102 298t135 239z" />
    <glyph glyph-name="quoteright" unicode="&#x2019;" horiz-adv-x="442" 
d="M334 954h-203q119 201 201 537h239q-37 -149 -102 -297t-135 -240z" />
    <glyph glyph-name="quotesinglbase" unicode="&#x201a;" horiz-adv-x="440" 
d="M92 -168h-203q119 203 201 535h240q-36 -151 -102 -297t-136 -238z" />
    <glyph glyph-name="quotedblleft" unicode="&#x201c;" horiz-adv-x="786" 
d="M393 1491h201q-119 -201 -201 -537h-231q77 310 231 537zM745 1491h203q-117 -201 -200 -537h-232q31 133 96 283t133 254z" />
    <glyph glyph-name="quotedblright" unicode="&#x201d;" horiz-adv-x="786" 
d="M686 954h-201q117 201 201 537h232q-78 -310 -232 -537zM332 954h-201q117 201 201 537h231q-31 -133 -96 -284t-135 -253z" />
    <glyph glyph-name="quotedblbase" unicode="&#x201e;" horiz-adv-x="784" 
d="M444 -166h-200q117 201 200 537h232q-78 -310 -232 -537zM90 -166h-201q117 201 201 537h232q-30 -133 -96 -284t-136 -253z" />
    <glyph glyph-name="dagger" unicode="&#x2020;" horiz-adv-x="958" 
d="M512 1317h233l-102 -418l311 14l-47 -227l-307 16l-186 -952h-234l219 952l-311 -16l47 227l305 -14z" />
    <glyph glyph-name="daggerdbl" unicode="&#x2021;" horiz-adv-x="958" 
d="M326 352l84 396l-312 -13l47 228l306 -19l61 371h233l-90 -371l310 19l-47 -228l-306 13l-84 -396l310 15l-47 -226l-304 15l-75 -410h-234l107 410l-314 -15l47 226z" />
    <glyph glyph-name="bullet" unicode="&#x2022;" horiz-adv-x="624" 
d="M164 729h379l-84 -397h-377z" />
    <glyph glyph-name="ellipsis" unicode="&#x2026;" horiz-adv-x="1544" 
d="M1278 0h-264l67 324h265zM762 0h-264l67 324h264zM248 0h-264l67 324h264z" />
    <glyph glyph-name="perthousand" unicode="&#x2030;" horiz-adv-x="2666" 
d="M1475 635q-63 1 -107 -63q-75 -107 -78 -281q0 -133 99 -133q67 0 111 66q74 108 73 280q0 131 -98 131zM1495 813q129 0 209 -76t80 -213q0 -300 -176 -456q-98 -88 -236 -88t-218 78q-79 78 -79 233q0 201 115 361t305 161zM532 0h-206l1077 1362h207zM547 1202
q-90 0 -137 -112q-48 -112 -48 -239q0 -126 101 -126q65 0 109 65q74 111 75 281q0 131 -100 131zM567 1380q129 0 210 -76t81 -243q0 -168 -96 -333q-47 -81 -131 -131t-205 -50t-200 78t-79 233q-1 202 111 362t309 160zM2367 504q0 131 -92 131t-141 -112t-49 -226
q0 -139 98 -139q66 0 110 64q74 108 74 282zM2290 813q127 0 208 -79q80 -79 80 -217t-38 -252q-38 -113 -138 -199q-98 -86 -236 -86t-217 80t-79 235q0 201 115 359t305 159z" />
    <glyph glyph-name="uni2032" unicode="&#x2032;" horiz-adv-x="444" 
d="M358 903h-213l207 580h254z" />
    <glyph glyph-name="uni2033" unicode="&#x2033;" horiz-adv-x="790" 
d="M684 903h-197l201 580h248zM342 903h-197l203 580h246z" />
    <glyph glyph-name="guilsinglleft" unicode="&#x2039;" horiz-adv-x="681" 
d="M692 926l-387 -396l219 -389h-211l-239 394l377 391h241z" />
    <glyph glyph-name="guilsinglright" unicode="&#x203a;" horiz-adv-x="681" 
d="M10 143l385 396l-219 389h213l240 -393l-379 -392h-240z" />
    <glyph glyph-name="fraction" unicode="&#x2044;" horiz-adv-x="403" 
d="M-215 0h-188l1120 1366h190z" />
    <glyph glyph-name="zero.sups" unicode="&#x2070;" horiz-adv-x="784" 
d="M594 1546q-84 0 -131 -116t-47 -224q0 -147 96 -147q47 0 92 49t73 207q9 57 9 106q0 125 -92 125zM604 1710q147 0 219 -86t72 -241t-87 -315q-96 -175 -330 -175q-122 0 -200 82q-77 82 -77 244t91 317q46 78 127 126t185 48z" />
    <glyph glyph-name="four.sups" unicode="&#x2074;" horiz-adv-x="731" 
d="M377 1249h168l22 101q20 106 47 190q-24 -33 -237 -291zM668 903h-195l41 195h-369l33 153l381 449h277l-99 -451h109l-47 -151h-92z" />
    <glyph glyph-name="five.sups" unicode="&#x2075;" horiz-adv-x="745" 
d="M610 1434q96 0 162 -60t66 -181q0 -120 -92 -210t-248 -90t-230 71t-73 177h196q12 -96 105 -97q57 0 91 36t34 92q0 112 -105 112q-70 2 -117 -61l-176 24q41 117 139 453h533l-61 -166h-334q-16 -61 -41 -133q55 33 151 33z" />
    <glyph glyph-name="six.sups" unicode="&#x2076;" horiz-adv-x="753" 
d="M506 1049q61 1 97 39t36 94q0 120 -104 121q-61 0 -97 -36t-35 -98q1 -120 103 -120zM594 1561q-61 -1 -102 -51t-56 -128q80 62 180 62t166 -66t66 -186t-96 -210q-96 -89 -246 -89t-228 86q-77 85 -77 241t90 312q103 178 331 178q124 0 190 -64q67 -64 75 -159h-195
q-10 74 -98 74z" />
    <glyph glyph-name="seven.sups" unicode="&#x2077;" horiz-adv-x="675" 
d="M266 1700h588l-33 -154q-289 -301 -409 -643h-232q49 162 178 351t236 280h-365z" />
    <glyph glyph-name="eight.sups" unicode="&#x2078;" horiz-adv-x="739" 
d="M504 1255q-57 1 -93 -31t-36 -83q-1 -51 29 -80t85 -29t91 32q35 32 34 89q0 102 -110 102zM664 1497q0 35 -25 57t-73 21q-48 0 -79 -27q-31 -26 -31 -66t26 -63t69 -22q113 0 113 100zM817 1159q0 -129 -94 -197q-95 -68 -247 -69t-231 65t-79 151t47 142t129 84
q-34 17 -56 55t-22 83q0 113 86 177t227 64t210 -63t69 -142q0 -141 -141 -184q41 -20 71 -65t31 -101z" />
    <glyph glyph-name="nine.sups" unicode="&#x2079;" horiz-adv-x="753" 
d="M547 1552q-53 0 -86 -32t-33 -81q0 -102 102 -102q59 0 91 32q31 32 30 83q0 100 -104 100zM464 1188q-112 0 -178 66t-65 176q0 112 91 196t244 84q154 0 232 -90t78 -243t-82 -303q-96 -181 -342 -181q-132 1 -198 71t-70 162h207q10 -78 92 -77q117 0 160 196
q-57 -57 -169 -57z" />
    <glyph glyph-name="parenleft.sups" unicode="&#x207d;" horiz-adv-x="464" 
d="M496 1808h186q-145 -168 -211 -310q-65 -142 -65 -348t61 -364h-164q-74 147 -74 375q1 383 267 647z" />
    <glyph glyph-name="parenright.sups" unicode="&#x207e;" horiz-adv-x="464" 
d="M266 786h-186q145 168 211 310q65 142 65 354q0 211 -61 358h164q76 -143 76 -374q-1 -382 -269 -648z" />
    <glyph glyph-name="n.sups" unicode="&#x207f;" horiz-adv-x="759" 
d="M412 1239q0 -41 -11 -82q72 96 203 96q92 0 148 -59t26 -201l-90 -432h-194l84 402q29 129 -76 129q-47 0 -86 -40t-56 -120l-77 -371h-197l96 459q43 205 45 219h185z" />
    <glyph glyph-name="zero.subs" unicode="&#x2080;" horiz-adv-x="784" 
d="M334 315q-84 -1 -131 -117t-47 -223q0 -147 96 -147q47 0 92 49t73 207q9 57 9 106q0 125 -92 125zM344 479q147 0 219 -86t72 -241t-87 -315q-97 -175 -331 -175q-123 0 -200 82t-77 244t92 317q46 78 127 126t185 48z" />
    <glyph glyph-name="one.subs" unicode="&#x2081;" horiz-adv-x="489" 
d="M186 -328h-213l121 570q-37 -4 -123 -4l31 153q125 14 207 80h147z" />
    <glyph glyph-name="two.subs" unicode="&#x2082;" horiz-adv-x="720" 
d="M367 232q0 89 -82 87q-92 0 -121 -114h-197q27 131 113 203t222 72t208 -70t72 -171t-56 -161t-190 -132q-132 -73 -158 -114h352l-61 -160h-584l11 47q31 180 276 330q129 80 162 111t33 72z" />
    <glyph glyph-name="three.subs" unicode="&#x2083;" horiz-adv-x="716" 
d="M334 -72q0 90 -101 90h-65l33 158h61q106 0 107 84q0 72 -82 72t-115 -84h-192q17 74 62 129q88 106 259 104q141 0 212 -58t71 -151q0 -61 -40 -109t-106 -67q47 -16 79 -64t32 -108q0 -120 -96 -190t-240 -70q-94 0 -162 28q-67 28 -97 72q-54 79 -50 156h205
q3 -47 29 -79q26 -31 78 -31t85 30t33 88z" />
    <glyph glyph-name="four.subs" unicode="&#x2084;" horiz-adv-x="731" 
d="M117 18h168l22 101q20 106 47 190q-24 -33 -237 -291zM408 -328h-195l41 195h-369l33 153l381 449h276l-98 -451h109l-47 -151h-93z" />
    <glyph glyph-name="five.subs" unicode="&#x2085;" horiz-adv-x="745" 
d="M350 203q96 -1 162 -61t66 -180t-92 -210t-249 -90q-155 0 -229 71t-74 177h197q12 -96 105 -96q57 0 91 36q33 36 33 92q-1 114 -104 111q-70 2 -117 -61l-176 24q41 117 139 453h533l-62 -166h-333q-16 -61 -41 -133q55 33 151 33z" />
    <glyph glyph-name="six.subs" unicode="&#x2086;" horiz-adv-x="753" 
d="M246 -182q61 0 97 39t36 95q0 120 -105 120q-61 0 -96 -36t-35 -97q1 -121 103 -121zM334 330q-60 0 -102 -50t-56 -128q80 61 180 61t166 -66q66 -67 66 -187t-96 -209t-246 -89t-229 86q-77 86 -77 242t91 311q103 178 331 178q124 -1 190 -65q67 -64 75 -158h-195
q-10 74 -98 74z" />
    <glyph glyph-name="seven.subs" unicode="&#x2087;" horiz-adv-x="675" 
d="M6 469h588l-33 -154q-289 -301 -409 -643h-232q49 162 178 352t236 279h-365z" />
    <glyph glyph-name="eight.subs" unicode="&#x2088;" horiz-adv-x="739" 
d="M115 -90q-1 -51 29 -80t85 -29t90 32t35 89q0 102 -110 103q-57 0 -93 -32t-36 -83zM306 344q-48 0 -79 -27t-31 -67t26 -62q26 -23 69 -22q113 0 112 100q0 35 -24 57q-25 21 -73 21zM557 -72q0 -130 -94 -198q-95 -68 -247 -68t-231 66t-79 150t47 142q47 57 129 84
q-34 18 -56 56t-22 82q0 114 86 178t227 64t210 -64q69 -63 69 -141q0 -141 -141 -185q41 -20 71 -65t31 -101z" />
    <glyph glyph-name="nine.subs" unicode="&#x2089;" horiz-adv-x="753" 
d="M287 322q-53 0 -86 -33t-33 -81q0 -102 102 -102q57 0 89 31t32 84q0 101 -104 101zM213 -182q117 0 160 196q-57 -57 -169 -57t-178 66t-65 177q0 111 91 195t244 84q154 0 232 -90t78 -243t-82 -303q-96 -181 -342 -181q-132 0 -198 71t-70 163h207q10 -78 92 -78z" />
    <glyph glyph-name="parenleft.subs" unicode="&#x208d;" horiz-adv-x="464" 
d="M145 -81q0 -206 62 -363h-164q-74 147 -74 374q1 384 267 648h186q-145 -168 -211 -310t-66 -349z" />
    <glyph glyph-name="parenright.subs" unicode="&#x208e;" horiz-adv-x="464" 
d="M6 -444h-186q145 168 211 310q65 142 65 353t-61 359h164q76 -143 75 -375q0 -381 -268 -647z" />
    <glyph glyph-name="colonmonetary" unicode="&#x20a1;" horiz-adv-x="1091" 
d="M700 1167q-99 0 -182 -120q-82 -121 -117 -276t-34 -302q0 -270 163 -270q80 -1 126 35t85 124h258q-76 -285 -329 -346l-35 -170h-148l31 150h-35q-33 0 -47 2l-33 -152h-149l41 193q-199 106 -199 428q0 256 102 511q52 130 147 230t222 142l33 145h150l-27 -121h12
q27 0 72 -4l27 125h147l-35 -160q193 -84 178 -348h-252q0 90 -36 137q-37 47 -136 47z" />
    <glyph glyph-name="franc" unicode="&#x20a3;" horiz-adv-x="1077" 
d="M59 0l50 236h-156l37 176h157l201 946h797l-49 -228h-533l-67 -317h495l-47 -221h-495l-39 -180h229l-37 -176h-229l-49 -236h-265z" />
    <glyph glyph-name="lira" unicode="&#x20a4;" horiz-adv-x="1044" 
d="M692 1182q-70 0 -101 -54t-48 -247h262l-31 -148h-246q-4 -59 -8 -88h236l-31 -145h-225q-39 -174 -144 -279h631l-82 -221h-915l45 205q152 66 198 295h-182l31 145h172q0 24 8 88h-160l31 148h141q5 15 5 41q23 233 123 345q102 111 290 111t274 -95t78 -255h-231
q-8 154 -121 154z" />
    <glyph glyph-name="uni20A6" unicode="&#x20a6;" horiz-adv-x="1064" 
d="M449 651l-5 109h-94q-2 -16 -20 -109h119zM727 651q7 52 21 109h-117l4 -109h92zM778 907q0 15 6 27l88 424h203l-96 -451h98l-33 -147h-96l-22 -109h96l-33 -145h-94l-109 -506h-307l-22 506h-158l-106 -506h-207l108 506h-96l33 145h94l22 109h-96l33 147h94l96 451
h334l17 -451h153zM649 283h15q10 84 34 223h-57zM414 1116q-10 -78 -35 -209h59l-10 209h-14z" />
    <glyph glyph-name="peseta" unicode="&#x20a7;" horiz-adv-x="1138" 
d="M535 653q225 0 280 187h-369l-38 -187h127zM635 1171h-121l-35 -172h348q-8 82 -58 127t-134 45zM666 1358q178 0 294 -104t125 -255h93l-33 -159h-72q-74 -377 -555 -377h-153l-97 -463h-260l180 840h-127l35 159h127l76 359h367z" />
    <glyph glyph-name="dong" unicode="&#x20ab;" horiz-adv-x="1126" 
d="M575 735q-90 1 -147 -65q-104 -120 -103 -299q1 -178 142 -178q180 0 231 260q33 154 0 218t-123 64zM623 0q0 55 8 111q-96 -125 -275 -125q-145 0 -222 101t-77 257q0 333 218 510q114 92 264 92q93 0 153 -30t80 -74l49 231h-415l36 168h416l31 143h254l-31 -143h113
l-37 -168h-111l-168 -786q-47 -233 -53 -287h-233zM-4 -158h831l-36 -180h-834z" />
    <glyph glyph-name="Euro" unicode="&#x20ac;" horiz-adv-x="1110" 
d="M436 436q0 -244 156 -243q131 0 199 145h251q-59 -193 -183 -276q-124 -82 -307 -82t-282 121q-98 122 -98 323q0 51 2 76h-133l31 145h114q2 31 15 92h-109l31 146h113q68 225 206 359q139 134 340 134t295 -99t90 -257h-256q4 154 -149 154q-84 0 -152 -78t-110 -213
h354l-31 -146h-360q-6 -31 -14 -92h354l-31 -145h-334q-2 -20 -2 -64z" />
    <glyph glyph-name="uni20B1" unicode="&#x20b1;" horiz-adv-x="1177" 
d="M854 920h-371l-16 -78h379q8 45 8 78zM559 614q168 0 238 103h-357l-20 -103h139zM535 1161l-25 -114h334q-43 115 -205 114h-104zM680 1358q174 0 286 -84t136 -227h110l-26 -127h-78q0 -4 -6 -78h67l-26 -125h-76q-59 -150 -195 -228t-331 -77h-164l-88 -412h-262
l153 717h-102l26 125h103l16 78h-102l26 127h103l67 311h363z" />
    <glyph glyph-name="uni20B2" unicode="&#x20b2;" horiz-adv-x="1138" 
d="M373 496q0 -290 217 -291q70 0 112 20l101 467h254l-131 -618q-188 -70 -322 -80l-37 -170h-219l41 188q-287 86 -287 488q0 260 122 526q62 135 180 228t272 110l29 133h221l-33 -149q117 -36 176 -128t51 -227h-235q-8 182 -170 183q-111 0 -193 -121
q-149 -219 -149 -559z" />
    <glyph glyph-name="uni20B4" unicode="&#x20b4;" horiz-adv-x="1062" 
d="M632 1378q183 0 280 -89t98 -230q0 -102 -60 -189h115l-29 -141h-237q-55 -37 -146 -88h342l-28 -141h-541q-63 -49 -87 -91t-24 -103q0 -62 42 -96t112 -34q162 0 229 168h234q-86 -365 -500 -364q-158 0 -270 78t-113 237q0 104 70 205h-68l29 141h186q41 31 135 88
h-278l29 141h497q113 80 113 174q0 140 -146 140t-204 -154h-222q33 154 146 251t296 97z" />
    <glyph glyph-name="uni20B5" unicode="&#x20b5;" horiz-adv-x="1064" 
d="M707 1169q-84 1 -154 -77q-115 -127 -165 -425q-19 -114 -19 -206q0 -262 153 -262q78 0 123 38t82 119h258q-88 -319 -403 -358l-39 -184h-219l41 192q-129 37 -198 155q-69 117 -69 271t29 292t89 278t174 240t263 122l31 141h219l-33 -151q254 -61 238 -367h-254
q-2 88 -32 135t-115 47z" />
    <glyph glyph-name="uni20B9" unicode="&#x20b9;" horiz-adv-x="995" 
d="M303 723q131 0 213 56t88 171h-430l33 150h371q-47 82 -175 82h-180l37 176h868l-32 -154h-299q41 -51 57 -104h221l-33 -150h-172q-20 -313 -352 -403l289 -547h-275l-268 512h-184l45 211h178z" />
    <glyph glyph-name="uni20BA" unicode="&#x20ba;" horiz-adv-x="1124" 
d="M434 0h-311l115 535l-187 -64l35 166l186 63l21 93l-187 -64l35 166l187 63l86 400h266l-64 -299l263 90l-37 -166l-260 -90l-21 -92l262 90l-35 -166l-262 -90l-88 -414q172 0 263 78t141 252h243q-29 -165 -107 -292q-48 -79 -116 -132t-178 -90t-250 -37z" />
    <glyph glyph-name="uni20BD" unicode="&#x20bd;" horiz-adv-x="1169" 
d="M659 762q111 0 178 63t69 155q3 181 -193 181h-113l-84 -399h143zM752 1358q209 0 315 -96t107 -250q0 -209 -140 -325t-397 -116h-162l-26 -122h335l-36 -170h-334l-60 -279h-262l60 279h-142l37 170h141l25 122h-139l41 191h139l127 596h371z" />
    <glyph glyph-name="uni2113" unicode="&#x2113;" horiz-adv-x="911" 
d="M397 -16q-104 0 -175 32q-70 32 -98 83q-63 115 -28 237l4 26q-33 -20 -133 -67l49 231q77 38 131 70l95 440q53 250 154 348q102 98 240 98t219 -74q81 -75 80 -207q-2 -251 -162 -422t-392 -308l-19 -88q-39 -186 74 -186q51 0 80 40q28 40 55 128h242
q-43 -197 -138 -289t-278 -92zM635 1272q-84 0 -121 -174l-72 -334q252 207 252 432q4 76 -59 76z" />
    <glyph glyph-name="uni2116" unicode="&#x2116;" horiz-adv-x="2043" 
d="M1276 373h594l-39 -180h-594zM1726 1104q-90 0 -136 -95t-46 -206q0 -137 107 -137q88 0 132 97t44 184q0 157 -101 157zM1739 1284q135 0 221 -85t86 -228q0 -195 -112 -342t-318 -148q-133 0 -215 82t-82 249q1 168 111 320t309 152zM281 0h-246l289 1362h342l192 -977
h2q14 117 115 584l84 393h246l-289 -1362h-332l-195 1036h-2q-31 -199 -120 -626z" />
    <glyph glyph-name="uni2117" unicode="&#x2117;" horiz-adv-x="1507" 
d="M690 930v-209h117q117 0 117 104q0 47 -30 76t-87 29h-117zM514 344v729h330q114 0 188 -63q74 -64 74 -180t-78 -182t-209 -66h-129v-238h-176zM776 1282q-234 0 -380 -158t-146 -421t148 -425t380 -163q232 0 382 155q148 156 148 421t-149 428t-383 163zM780 1409
q287 0 476 -198q190 -198 190 -515t-188 -513q-188 -195 -479 -195q-290 0 -479 194t-189 511q0 316 191 516t478 200z" />
    <glyph glyph-name="uni2120" unicode="&#x2120;" horiz-adv-x="1067" 
d="M1167 1405v-492h-131v134q0 59 11 274h-5q-35 -145 -104 -408h-129q-80 348 -92 408h-6q10 -82 10 -301v-107h-125v492h215l72 -305h2q16 78 82 305h200zM330 1001q70 0 69 43q0 23 -21 35q-22 12 -71 25q-104 20 -139 60t-35 104t50 106q49 42 141 43q92 0 140 -43
t52 -114h-129q-6 33 -19 46q-14 13 -60 13t-46 -41q0 -18 16 -28t64 -23q110 -23 148 -62t38 -107t-50 -113q-50 -44 -145 -44t-153 42q-57 42 -61 128h131q10 -70 80 -70z" />
    <glyph glyph-name="trademark" unicode="&#x2122;" horiz-adv-x="1054" 
d="M741 1020v-107h-125v492h218q35 -123 69 -299h2q14 57 84 299h199v-492h-129v134q0 61 10 276h-4q-46 -195 -104 -410h-132l-90 410h-6q8 -180 8 -303zM141 1405h422v-113h-143v-379h-135v379h-144v113z" />
    <glyph glyph-name="uni2126" unicode="&#x2126;" horiz-adv-x="1398" 
d="M819 1421q269 0 409 -145q140 -144 140 -366t-102 -398t-293 -270h284l-51 -242h-551l60 279q365 193 364 612q0 311 -278 311q-131 0 -223 -86q-166 -155 -166 -467q0 -254 149 -370l-57 -279h-549l51 242h293q-74 57 -123 178t-49 253t44 264t127 242t218 176t303 66z
" />
    <glyph glyph-name="estimated" unicode="&#x212e;" horiz-adv-x="1703" 
d="M1329 782v293q0 27 -18 47q-150 174 -421 174t-435 -180q-16 -25 -17 -47v-287q0 -8 8 -8h875q8 0 8 8zM1659 672h-1213q-8 0 -8 -8v-357q0 -29 17 -45q158 -182 430 -182q150 0 256 48t198 159h191q-219 -311 -649 -312q-330 0 -552 209q-223 209 -223 505t228 504
t549 208q322 0 549 -208t227 -503v-18z" />
    <glyph glyph-name="onethird" unicode="&#x2153;" horiz-adv-x="1691" 
d="M1232 135q52 0 85 31t33 88q0 90 -101 90h-65l33 158h61q106 0 106 84q0 72 -82 72t-114 -85h-193q17 74 63 129q87 105 243 105q157 0 228 -58t70 -151q0 -61 -39 -110q-40 -48 -106 -66q47 -16 79 -64t32 -108q-1 -121 -97 -191t-239 -69q-94 0 -162 28q-67 28 -97 71
q-54 80 -50 157h204q2 -47 29 -79t79 -32zM401 561h-213l121 569q-37 -4 -123 -4l31 154q125 14 207 80h147zM309 0h-188l1120 1366h191z" />
    <glyph glyph-name="twothirds" unicode="&#x2154;" horiz-adv-x="1873" 
d="M1443 133q52 0 85 31t33 88q0 90 -101 90h-65l32 158h62q106 0 106 84q0 72 -82 72t-114 -85h-193q17 74 63 129q87 105 243 105q157 -1 228 -59t70 -150q0 -62 -40 -110t-105 -66q47 -16 79 -64t32 -108q0 -121 -96 -191t-240 -69q-248 0 -300 181q-12 38 -10 75h205
q2 -47 29 -79t79 -32zM586 1120q0 90 -82 88q-92 0 -121 -114h-197q27 130 113 202t222 72t208 -70t72 -171q-1 -101 -57 -160t-188 -132t-159 -114h353l-62 -160h-584l11 47q31 180 276 330q129 80 162 111t33 71zM549 0h-189l1121 1366h190z" />
    <glyph glyph-name="oneeighth" unicode="&#x215b;" horiz-adv-x="1646" 
d="M1198 133q55 0 90 32t35 89q0 102 -111 102q-57 0 -93 -32t-36 -82q0 -51 30 -80t85 -29zM1275 676q-48 0 -79 -27t-31 -67t26 -62t69 -22q113 0 112 100q0 34 -24 56t-73 22zM1526 260q0 -130 -94 -198t-246 -68t-233 65q-79 66 -79 151t48 142t129 84q-33 18 -56 56
t-22 81q0 113 86 178t227 65t210 -64q69 -63 69 -142q0 -141 -142 -184q41 -20 72 -66t31 -100zM401 561h-213l121 569q-37 -4 -123 -4l31 154q125 14 207 80h147zM291 0h-189l1121 1366h190z" />
    <glyph glyph-name="threeeighths" unicode="&#x215c;" horiz-adv-x="1828" 
d="M431 698q52 0 85 31t33 88q0 90 -100 90h-66l33 158h61q106 0 107 84q0 72 -82 72t-115 -84h-192q17 74 62 129q88 106 259 104q141 0 212 -58t71 -151q0 -61 -40 -109t-106 -67q47 -16 79 -64t32 -108q0 -121 -96 -191t-240 -69q-94 0 -162 28q-68 27 -98 71
q-54 79 -49 157h205q2 -47 28 -79t79 -32zM1286 235q0 -51 30 -79t85 -29q55 0 90 32t35 89q0 102 -111 102q-57 0 -93 -32t-36 -83zM1575 592q-1 34 -25 56t-72 22t-79 -27t-31 -67t26 -62t68 -22q113 0 113 100zM1729 254q-1 -130 -95 -198t-246 -68t-232 66
q-79 66 -79 150q0 85 47 142t129 84q-33 18 -55 55t-22 82q0 113 86 177t227 65t210 -63t68 -142q0 -141 -141 -184q41 -20 72 -66t31 -100zM506 0h-189l1121 1366h190z" />
    <glyph glyph-name="fiveeighths" unicode="&#x215d;" horiz-adv-x="1863" 
d="M1432 350q-58 0 -94 -32t-36 -83t30 -79t85 -29q55 0 90 32t35 89q0 102 -110 102zM1494 670q-48 0 -79 -27t-31 -67t26 -62t69 -22q113 0 112 100q-1 34 -25 56t-72 22zM1745 254q0 -130 -94 -198q-95 -68 -247 -68t-232 65q-78 66 -78 151t47 142t129 84q-33 18 -56 55
t-22 82q0 113 86 177t227 65t210 -63t69 -142q0 -141 -142 -184q41 -20 72 -66t31 -100zM561 1092q96 0 162 -60q65 -60 65 -181q0 -120 -92 -210t-248 -90t-230 71t-73 177h197q12 -96 104 -97q57 0 92 36q34 36 34 92q-1 111 -105 112q-70 2 -117 -61l-176 24
q41 117 139 453h533l-62 -166h-333q-16 -61 -41 -133q55 33 151 33zM524 0h-188l1120 1366h191z" />
    <glyph glyph-name="seveneighths" unicode="&#x215e;" horiz-adv-x="1695" 
d="M221 1358h588l-33 -154q-289 -301 -409 -643h-232q49 162 178 351t236 280h-365zM1247 133q55 0 90 32t35 89q0 102 -110 102q-57 0 -94 -31q-36 -32 -36 -83t30 -80t85 -29zM1324 676q-48 0 -79 -27t-31 -67t26 -62t69 -22q113 0 112 100q-1 34 -25 56t-72 22zM1575 260
q0 -130 -94 -198q-95 -68 -247 -68t-232 65q-78 66 -78 151t47 142t129 84q-33 18 -56 56t-22 81q0 113 86 178t227 65t210 -64q69 -63 69 -142q0 -141 -141 -184q41 -20 71 -66t31 -100zM317 0h-188l1120 1366h191z" />
    <glyph glyph-name="uni2190" unicode="&#x2190;" horiz-adv-x="1634" 
d="M1550 569h-1093q69 -61 305 -311t289 -301l-150 -137l-817 856v2l817 864l150 -153q-63 -61 -299 -307t-295 -300h1093v-213z" />
    <glyph glyph-name="arrowup" unicode="&#x2191;" horiz-adv-x="1808" 
d="M797 -76v1209q-455 -487 -559 -594l-156 155l821 813h2l821 -813l-161 -155q-63 67 -285 303t-272 291v-1209h-211z" />
    <glyph glyph-name="uni2192" unicode="&#x2192;" horiz-adv-x="1634" 
d="M84 786h1094q-68 62 -305 312t-289 301l149 137l817 -856v-2l-817 -864l-149 153q63 61 299 306t295 300h-1094v213z" />
    <glyph glyph-name="arrowdown" unicode="&#x2193;" horiz-adv-x="1808" 
d="M1012 1466v-1208q455 487 559 594l155 -156l-821 -813h-2l-821 813l162 156q224 -242 557 -594v1208h211z" />
    <glyph glyph-name="partialdiff" unicode="&#x2202;" horiz-adv-x="1118" 
d="M481 190q182 0 230 261q18 96 -29 149t-146 53q-98 0 -156 -89t-58 -184q0 -94 42 -142t117 -48zM344 1421q283 0 477 -166q95 -82 151 -217t56 -272q0 -138 -15 -236t-57 -199t-102 -176q-62 -75 -164 -123t-233 -48q-201 0 -305 106t-104 295t124 333q125 144 342 144
q100 0 166 -30t84 -68q2 2 2 39q0 159 -128 277t-345 118h-41l37 219q25 4 55 4z" />
    <glyph glyph-name="uni2206" unicode="&#x2206;" horiz-adv-x="1255" 
d="M276 229h570q-74 676 -82 949h-2q-66 -169 -486 -949zM1087 0h-1146l34 174l662 1229h340l149 -1231z" />
    <glyph glyph-name="product" unicode="&#x220f;" horiz-adv-x="1351" 
d="M332 1403h1054l-339 -1598h-281l289 1369h-496l-289 -1369h-278z" />
    <glyph glyph-name="summation" unicode="&#x2211;" horiz-adv-x="1093" 
d="M860 -195h-985l37 175l573 647l-292 600l38 176h949l-52 -229h-612l266 -549l-530 -590h692z" />
    <glyph glyph-name="minus" unicode="&#x2212;" horiz-adv-x="1208" 
d="M1098 412h-989v211h989v-211z" />
    <glyph glyph-name="uni2215" unicode="&#x2215;" horiz-adv-x="403" 
d="M-215 0h-188l1120 1366h190z" />
    <glyph glyph-name="uni2219" unicode="&#x2219;" horiz-adv-x="411" 
d="M307 410h-264l68 323h264z" />
    <glyph glyph-name="radical" unicode="&#x221a;" horiz-adv-x="1306" 
d="M1462 1735l-798 -2124h-156l-166 823l-197 -65l-49 184l441 160q88 -524 92 -701q39 178 618 1723h215z" />
    <glyph glyph-name="infinity" unicode="&#x221e;" horiz-adv-x="1599" 
d="M412 406q62 0 117 28q54 28 87 60q33 31 82 84q-4 4 -41 44t-79 77q-71 61 -149 61q-77 0 -125 -48t-48 -129t47 -129t109 -48zM1362 584q0 80 -45 128t-120 48t-137 -44t-145 -132l33 -33q29 -29 38 -37t34 -32t40 -32t47 -26t95 -18q64 0 112 49t48 129zM414 233
q-148 -1 -240 95t-92 251t95 251t235 98q140 0 230 -72t167 -151q59 59 72 68q12 9 42 36t42 34t40 26t73 35q65 24 130 24q148 0 238 -94t90 -249t-95 -253t-251 -99q-74 0 -147 37t-113 73t-123 120q-125 -127 -182 -164q-100 -66 -211 -66z" />
    <glyph glyph-name="integral" unicode="&#x222b;" horiz-adv-x="802" 
d="M784 1497q-60 0 -96 -57q-37 -57 -57 -191l-166 -1132q-32 -230 -103 -369t-262 -139q-90 0 -166 31l56 223q48 -17 112 -17t91 56t53 225l162 1100q37 258 122 379q86 121 265 120q98 1 151 -24l-53 -217q-49 12 -109 12z" />
    <glyph glyph-name="approxequal" unicode="&#x2248;" horiz-adv-x="1212" 
d="M295 575h-184v46q1 143 67 209t170 65q104 0 259 -59q155 -60 210 -60t77 20t21 74v15h187v-47q0 -281 -250 -281q-100 0 -254 61q-154 62 -206 62t-75 -25t-22 -63v-17zM295 166h-184v49q0 139 73 205q74 66 176 66t252 -61q152 -60 219 -60q84 0 84 88v18h187v-51
q0 -270 -230 -270q-110 0 -270 58t-223 58q-84 0 -84 -88v-12z" />
    <glyph glyph-name="notequal" unicode="&#x2260;" horiz-adv-x="1206" 
d="M1098 846v-211h-342l-109 -240h451v-211h-549l-78 -170h-190l77 170h-249v211h346l110 240h-456v211h553l86 188h192l-86 -188h244z" />
    <glyph glyph-name="lessequal" unicode="&#x2264;" horiz-adv-x="1130" 
d="M109 211h911v-211h-911v211zM109 676v198l911 396v-221l-668 -269l668 -280v-217z" />
    <glyph glyph-name="greaterequal" unicode="&#x2265;" horiz-adv-x="1130" 
d="M1020 0h-911v211h911v-211zM1020 874v-198l-911 -393v219l667 268l-667 281v219z" />
    <glyph glyph-name="uni25A0" unicode="&#x25a0;" horiz-adv-x="845" 
d="M162 266v525h522v-525h-522z" />
    <glyph glyph-name="triagup" unicode="&#x25b2;" horiz-adv-x="1312" 
d="M1194 2h-1163l569 1229h8z" />
    <glyph glyph-name="uni25B3" unicode="&#x25b3;" horiz-adv-x="1312" 
d="M309 178h582l-291 651zM1194 0h-1163l569 1229h8z" />
    <glyph glyph-name="uni25B6" unicode="&#x25b6;" horiz-adv-x="1398" 
d="M141 23v1165l1229 -570v-8z" />
    <glyph glyph-name="uni25B7" unicode="&#x25b7;" horiz-adv-x="1398" 
d="M328 903v-584l645 295zM141 23v1165l1229 -570v-8z" />
    <glyph glyph-name="triagdn" unicode="&#x25bc;" horiz-adv-x="1312" 
d="M113 1208h1161l-569 -1228h-9z" />
    <glyph glyph-name="uni25BD" unicode="&#x25bd;" horiz-adv-x="1312" 
d="M995 1032h-581l293 -653zM113 1208h1161l-569 -1228h-9z" />
    <glyph glyph-name="uni25C0" unicode="&#x25c0;" horiz-adv-x="1398" 
d="M1292 1188v-1165l-1229 569v8z" />
    <glyph glyph-name="uni25C1" unicode="&#x25c1;" horiz-adv-x="1398" 
d="M1106 307v584l-645 -295zM1292 1188v-1165l-1229 569v8z" />
    <glyph glyph-name="uni25C6" unicode="&#x25c6;" horiz-adv-x="921" 
d="M90 530l367 377l372 -387l-364 -379z" />
    <glyph glyph-name="uni25C9" unicode="&#x25c9;" horiz-adv-x="1130" 
d="M864 527q0 135 -85 231t-212 96t-210 -94t-83 -232t83 -232q83 -95 212 -95t212 95t83 231zM569 49q-195 0 -329 139t-134 340t136 340q136 140 327 140q193 0 325 -140t130 -341q-2 -200 -131 -339t-324 -139zM567 698q72 0 120 -50t48 -121t-47 -124t-120 -53
q-72 0 -118 52t-46 125t45 122q46 49 118 49z" />
    <glyph glyph-name="lozenge" unicode="&#x25ca;" horiz-adv-x="1150" 
d="M1067 672l-412 -760h-176l-395 756l405 759h177zM854 668l-223 430q-10 18 -32 63t-24 49h-6q-10 -31 -51 -112l-219 -426l221 -434q31 -63 49 -111h4q25 45 56 106z" />
    <glyph glyph-name="uni2610" unicode="&#x2610;" horiz-adv-x="1894" 
d="M291 1364v-1350h1278v1350h-1278zM1726 1511v-1486l-129 -134h-1431v1502l106 118h1454z" />
    <glyph glyph-name="uni2611" unicode="&#x2611;" horiz-adv-x="1894" 
d="M291 1364v-1350h1278v1350h-1278zM1726 1511v-1486l-129 -134h-1431v1502l106 118h1454zM1233 1241h197q-305 -479 -623 -1114h-68q-154 203 -295 469l164 123q86 -219 170 -334q246 534 455 856z" />
    <glyph glyph-name="uni2713" unicode="&#x2713;" horiz-adv-x="1413" 
d="M1155 1507h254q-440 -739 -870 -1638h-95q-166 227 -370 682l219 135q113 -332 203 -487q370 821 659 1308z" />
    <glyph glyph-name="uni2752" unicode="&#x2752;" horiz-adv-x="1030" 
d="M270 707v-431h406v431h-406zM883 922v-615l-152 -166h-586v609l166 172h572z" />
    <glyph glyph-name="fi" unicode="&#xfb01;" horiz-adv-x="1136" 
d="M885 1233l53 256h272l-55 -256h-270zM625 0l225 1061h270l-225 -1061h-270zM647 1503q90 0 146 -18l-45 -211q-31 6 -72 6q-90 0 -117 -123l-20 -96h180l-43 -209h-180l-183 -852h-266l180 852h-149l43 209h151l25 117q37 160 118 242t232 83z" />
    <glyph glyph-name="fl" unicode="&#xfb02;" horiz-adv-x="1136" 
d="M893 0h-270l313 1489h272zM647 1503q90 0 146 -18l-45 -211q-31 6 -72 6q-90 0 -117 -123l-20 -96h180l-43 -209h-180l-183 -852h-266l180 852h-149l43 209h151l25 117q37 160 118 242t232 83z" />
    <glyph glyph-name="uni00470303" horiz-adv-x="1372" 
d="M754 1810q76 0 172 -42t121 -42t36 15t23 71h186l-12 -57q-25 -131 -84 -180q-58 -49 -140 -49t-174 41t-114 41q-39 0 -49 -54l-4 -22h-185l15 80q23 114 78 156t131 42zM391 539q0 -342 272 -342q140 0 214 94t106 256l2 8h-291l54 229h561q-156 -717 -166 -784h-209
q2 41 18 139q-68 -86 -158 -123t-229 -36q-229 0 -345 150t-116 405q0 256 125 497q125 240 354 336q126 53 273 53q233 0 363 -119q129 -120 131 -321h-273q-10 219 -243 219q-113 0 -202 -62t-139 -162q-102 -206 -102 -437z" />
    <glyph glyph-name="uni00670303" horiz-adv-x="1155" 
d="M575 1497q68 0 158 -43t113 -43q51 0 61 72l2 16h181l-15 -80q-19 -129 -75 -174t-132 -45t-162 41t-110 41q-43 0 -53 -51l-4 -25h-185l15 90q33 201 206 201zM621 860q-133 0 -205 -136t-72 -278q0 -213 162 -213q199 0 264 297q68 330 -149 330zM38 -306
q-77 99 -71 232h260q6 -145 168 -145q123 1 176 69t93 234l14 55q-96 -125 -287 -125q-156 0 -245 106t-89 319q0 212 133 419q64 98 166 160t218 61q116 0 186 -42t86 -97q12 51 33 121h264q-31 -113 -76 -320l-139 -657q-27 -123 -61 -205t-94 -157q-117 -146 -380 -146
t-355 118z" />
    <glyph glyph-name="zero.slash" horiz-adv-x="1163" 
d="M519 188q105 0 186 128t117 323t38 291l-485 -662q39 -80 144 -80zM698 1169q-116 0 -200 -141t-116 -301t-36 -274l481 653q-41 63 -129 63zM711 1378q502 0 374 -735q-52 -275 -176 -453q-68 -98 -171 -154t-230 -56q-520 0 -385 731q48 251 177 442q70 101 176 163
t235 62z" />
    <glyph glyph-name="zero.slashtab" horiz-adv-x="1107" 
d="M495 188q105 0 185 128t117 323t39 291l-486 -662q40 -80 145 -80zM674 1169q-117 0 -201 -141t-116 -301t-35 -274l481 653q-41 63 -129 63zM686 1378q502 0 375 -735q-52 -271 -176 -453q-68 -98 -171 -154t-231 -56q-520 0 -385 731q47 247 177 442q69 101 175 163
t236 62z" />
    <glyph glyph-name="zero.tab" horiz-adv-x="1107" 
d="M674 1169q-126 0 -200 -153t-105 -324q-43 -209 -25 -357q18 -147 150 -147q199 0 290 482q74 376 -10 462q-36 36 -100 37zM672 1378q220 0 312 -117t101 -277q8 -160 -24 -341q-48 -234 -169 -429q-67 -105 -173 -170q-105 -64 -233 -64q-245 0 -341 152
q-121 192 -47 577q23 121 66 230q106 273 286 377q106 62 222 62z" />
    <glyph glyph-name="one.tab" horiz-adv-x="1107" 
d="M838 0h-766l47 225h256l180 838q-139 -18 -231 -14l43 202q211 12 338 117h176l-244 -1143h248z" />
    <glyph glyph-name="two.tab" horiz-adv-x="1107" 
d="M780 1001q0 162 -158 162t-212 -192h-269q43 184 165 296q122 111 337 111t316 -112t101 -260q0 -146 -77 -246q-78 -100 -254 -215q-303 -195 -379 -322h608l-77 -223h-897q46 230 164 376t391 326q131 88 186 153t55 146z" />
    <glyph glyph-name="three.tab" horiz-adv-x="1107" 
d="M648 1378q200 0 301 -96t102 -238q0 -238 -236 -319v-4q76 -37 128 -110t52 -183q0 -188 -134 -318q-135 -130 -371 -130t-349 114t-108 281h264q8 -86 57 -138q49 -53 149 -53q99 0 157 67t59 173q0 190 -230 190h-90l47 220h74q252 0 252 192q0 68 -39 109t-116 41
t-119 -40t-70 -114h-254q39 160 156 258q118 98 318 98z" />
    <glyph glyph-name="four.tab" horiz-adv-x="1107" 
d="M639 547l63 287q66 287 74 319q-60 -92 -250 -328t-223 -278h336zM772 0h-248l70 330h-598l49 235l666 797h352l-176 -815h143l-61 -217h-127z" />
    <glyph glyph-name="five.tab" horiz-adv-x="1107" 
d="M465 -20q-207 0 -320 102t-108 278h264q4 -82 49 -130t129 -48q125 0 183 96t59 206q0 216 -176 216q-147 0 -209 -125l-236 33q127 381 213 750h781l-56 -223h-532q-51 -199 -80 -289q92 68 242 68t243 -103q95 -102 95 -294t-121 -356q-61 -83 -170 -132t-250 -49z" />
    <glyph glyph-name="six.tab" horiz-adv-x="1107" 
d="M489 184q115 0 173 96t59 216q0 209 -172 211q-117 0 -174 -87q-57 -86 -57 -200t43 -175q44 -61 128 -61zM644 913q156 0 255 -105q98 -105 98 -262t-53 -277q-53 -119 -177 -203q-123 -84 -307 -84t-298 120t-113 351q0 230 77 455q44 130 111 232t179 170
q112 69 256 68q199 0 296 -98t99 -242h-258q-14 139 -158 140q-203 0 -282 -369q119 104 275 104z" />
    <glyph glyph-name="seven.tab" horiz-adv-x="1107" 
d="M262 1358h889l-45 -213q-176 -203 -364 -511t-314 -634h-293q115 305 321 630t375 505h-618z" />
    <glyph glyph-name="eight.tab" horiz-adv-x="1107" 
d="M473 180q115 0 176 72t61 172t-50 146t-148 46t-157 -72q-60 -72 -60 -167q0 -93 49 -145t129 -52zM438 980q0 -165 161 -165q85 0 134 58q49 57 49 139q0 170 -162 170q-82 0 -132 -62t-50 -140zM983 428q0 -204 -141 -326q-140 -122 -368 -122t-340 108t-112 254
q0 145 75 243q75 97 206 144q-53 37 -88 101t-35 139q0 178 127 294t342 115q174 0 286 -93t112 -233t-66 -225q-66 -84 -156 -118q57 -31 107 -105t51 -176z" />
    <glyph glyph-name="nine.tab" horiz-adv-x="1107" 
d="M623 1171q-106 0 -163 -78q-56 -79 -56 -181q-1 -206 171 -205q113 1 168 71t56 178q0 215 -176 215zM502 498q-168 0 -270 104q-101 104 -101 272q0 205 136 355q135 149 363 149t337 -134t108 -365q0 -130 -31 -282q-32 -151 -76 -247t-109 -182t-169 -137t-233 -51
q-205 0 -301 98t-103 254h262q18 -147 156 -148q81 0 147 68t100 156t54 196q-102 -106 -270 -106z" />
    <glyph glyph-name="zero.slashcap" horiz-adv-x="1200" 
d="M534 184q110 0 194 133q85 133 121 338t34 303l-500 -655q41 -119 151 -119zM721 1219q-123 0 -200 -128q-77 -129 -118 -321t-43 -274l492 639q-41 84 -131 84zM728 1423q130 0 217 -47t130 -121t59 -177q30 -185 -14 -430q-45 -245 -175 -441q-69 -103 -177 -165
t-242 -62q-539 0 -395 753q25 127 67 239q104 280 290 388q110 64 240 63z" />
    <glyph glyph-name="zero.cap" horiz-adv-x="1200" 
d="M715 1210q-213 0 -305 -491q-76 -385 17 -483q38 -41 108 -41q209 0 303 497q74 390 -18 480q-37 38 -105 38zM733 1423q522 0 389 -757q-47 -265 -180 -460q-70 -102 -178 -164t-235 -62q-128 0 -216 44t-134 114q-89 136 -77 374q23 396 207 678q69 106 179 170t245 63
z" />
    <glyph glyph-name="one.cap" horiz-adv-x="649" 
d="M369 0h-273l238 1116q-100 -14 -193 -10l43 199q166 12 295 108h189z" />
    <glyph glyph-name="two.cap" horiz-adv-x="1097" 
d="M635 1206q-162 0 -221 -213h-269q41 186 167 306t341 120t320 -113q104 -114 104 -269t-92 -261t-295 -239q-287 -186 -344 -312h633l-80 -225h-924l15 66q34 170 150 322t386 329q145 96 207 163q61 68 61 154t-42 129q-43 43 -117 43z" />
    <glyph glyph-name="three.cap" horiz-adv-x="1120" 
d="M670 1421q206 0 314 -98q108 -99 108 -235t-66 -220t-182 -114v-4q188 -88 188 -312q0 -184 -138 -321t-384 -137t-357 116q-112 116 -112 291h270q12 -195 209 -194q111 -1 172 71q62 72 62 172t-54 152t-182 53h-98l47 227h82q272 0 272 193q0 154 -168 153
q-147 1 -202 -151h-267q94 358 486 358z" />
    <glyph glyph-name="four.cap" horiz-adv-x="1159" 
d="M702 571l64 289q51 240 76 332q-57 -94 -257 -337t-231 -284h348zM840 0h-256l73 346h-618l51 246l684 815h363l-176 -836h165l-63 -225h-152z" />
    <glyph glyph-name="five.cap" horiz-adv-x="1159" 
d="M518 -20q-213 0 -328 110t-110 289h270q4 -84 51 -136t138 -53q127 0 190 104t63 216q0 113 -41 173q-42 60 -141 60q-156 0 -225 -141l-242 33q133 397 219 768h805l-57 -229h-549q-66 -246 -78 -283q86 67 241 67t253 -112t98 -308q0 -194 -124 -366q-62 -86 -175 -139
t-258 -53z" />
    <glyph glyph-name="six.cap" horiz-adv-x="1153" 
d="M551 193q119 0 180 100q61 99 61 211q1 219 -182 219q-121 0 -182 -88q-61 -87 -61 -201t49 -178t135 -63zM708 944q169 0 268 -110t99 -272q0 -339 -242 -497q-128 -85 -316 -85q-187 0 -303 126t-116 371q0 160 40 321t89 260q51 99 119 182t173 132t231 49
q207 0 301 -101t98 -257h-264q-6 150 -160 149q-215 0 -299 -387q113 119 282 119z" />
    <glyph glyph-name="seven.cap" horiz-adv-x="1003" 
d="M203 1403h917l-47 -215q-188 -230 -383 -548t-317 -640h-299q117 317 324 647q208 330 386 529h-632z" />
    <glyph glyph-name="eight.cap" horiz-adv-x="1159" 
d="M575 645q-113 0 -179 -73t-64 -172q0 -98 50 -156t154 -58t171 70q66 70 65 184q0 205 -197 205zM854 1046q0 172 -178 171q-88 1 -140 -61t-52 -140t40 -123q41 -45 131 -45t145 56q54 56 54 142zM528 -20q-234 0 -350 110q-117 110 -117 272q0 279 287 394
q-123 84 -123 257t134 291t333 118t313 -96q113 -94 113 -240t-66 -231t-163 -124q59 -31 110 -109t52 -180q-1 -206 -145 -334t-378 -128z" />
    <glyph glyph-name="nine.cap" horiz-adv-x="1171" 
d="M650 1206q-104 0 -163 -80t-59 -186t50 -158t128 -53q113 0 174 74q62 74 62 180t-44 165q-44 58 -148 58zM506 190q229 0 313 439q-101 -113 -281 -113t-284 109t-104 300t138 344t376 152q164 -1 270 -77t147 -189t41 -299t-67 -394q-154 -480 -561 -480
q-217 0 -319 99q-101 99 -107 259h266q16 -150 172 -150z" />
    <glyph glyph-name="period.sups" horiz-adv-x="360" 
d="M358 903h-211l54 250h209z" />
    <glyph glyph-name="comma.sups" horiz-adv-x="374" 
d="M283 768h-181q72 123 138 385h200q-63 -252 -157 -385z" />
    <glyph glyph-name="dollar.sups" horiz-adv-x="780" 
d="M508 1042q53 0 90 22t37 60t-31 61q-31 21 -138 47q-224 53 -224 222q0 114 82 180t217 74l16 82h174l-20 -94q195 -49 184 -240h-201q-10 111 -123 111t-112 -80q0 -51 140 -83q139 -32 199 -89t60 -161t-82 -172t-221 -81l-23 -100h-172l25 104q-115 23 -171 93
t-46 161h203q4 -117 137 -117z" />
    <glyph glyph-name="cent.sups" horiz-adv-x="761" 
d="M213 1237q0 152 85 256t234 129l19 88h172l-18 -92q102 -24 142 -92t34 -144h-193q-6 106 -94 106t-131 -77q-43 -78 -43 -164q0 -131 102 -131q88 0 129 98h195q-57 -190 -252 -229l-23 -113h-182l23 113q-96 20 -148 87q-51 67 -51 165z" />
    <glyph glyph-name="hyphen.sups" horiz-adv-x="466" 
d="M238 1391h342l-39 -181h-342z" />
    <glyph glyph-name="period.subs" horiz-adv-x="360" 
d="M98 -328h-211l54 250h209z" />
    <glyph glyph-name="comma.subs" horiz-adv-x="374" 
d="M23 -463h-181q72 123 138 385h200q-63 -252 -157 -385z" />
    <glyph glyph-name="dollar.subs" horiz-adv-x="780" 
d="M375 -106q0 38 -31 60t-138 48q-224 53 -224 221q0 115 82 181t217 73l16 82h174l-20 -94q195 -49 184 -240h-201q-10 111 -123 111t-112 -80q0 -51 140 -83q139 -32 199 -89q60 -56 60 -160t-82 -172t-221 -82l-23 -100h-172l25 104q-115 23 -171 94t-46 160h203
q4 -117 137 -116q53 0 90 22t37 60z" />
    <glyph glyph-name="cent.subs" horiz-adv-x="761" 
d="M-47 6q0 152 85 256t234 129l19 88h172l-19 -92q102 -23 143 -91q40 -69 34 -144h-193q-6 106 -98 106q-84 0 -127 -78t-43 -164q0 -131 102 -131q90 1 129 99h195q-57 -190 -252 -230l-23 -112h-182l23 112q-96 20 -148 87q-51 67 -51 165z" />
    <glyph glyph-name="hyphen.subs" horiz-adv-x="466" 
d="M-23 160h342l-38 -180h-342z" />
    <glyph glyph-name="zero.numr" horiz-adv-x="784" 
d="M528 1204q-84 0 -131 -117t-47 -223q0 -147 96 -147q125 0 165 256q9 57 10 106q-1 125 -93 125zM539 1368q147 0 219 -86t72 -243t-88 -313q-96 -175 -330 -175q-122 0 -200 82q-77 82 -77 243t91 318q46 78 128 126t185 48z" />
    <glyph glyph-name="one.numr" horiz-adv-x="489" 
d="M381 561h-213l121 569q-37 -4 -123 -4l31 154q125 14 206 80h148z" />
    <glyph glyph-name="two.numr" horiz-adv-x="720" 
d="M561 1120q0 89 -82 88q-92 0 -121 -114h-196q26 130 112 202t222 72t209 -70q71 -70 71 -171t-56 -160t-188 -132t-159 -114h352l-61 -160h-584l10 47q31 180 277 330q129 80 161 111t33 71z" />
    <glyph glyph-name="three.numr" horiz-adv-x="716" 
d="M411 698q52 0 85 31t32 88q0 90 -100 90h-66l33 158h62q106 0 106 84q0 72 -82 72t-114 -84h-193q17 73 63 128q88 107 259 105q141 0 212 -58t70 -151q0 -61 -40 -109t-105 -67q47 -16 79 -64t31 -108q0 -121 -96 -191t-239 -69q-94 0 -162 28q-110 45 -138 153
q-12 38 -10 75h205q2 -47 29 -79t79 -32z" />
    <glyph glyph-name="four.numr" horiz-adv-x="731" 
d="M311 907h168l23 101q20 106 47 190q-25 -33 -238 -291zM602 561h-194l41 195h-369l33 153l381 449h276l-98 -451h108l-47 -151h-92z" />
    <glyph glyph-name="five.numr" horiz-adv-x="745" 
d="M544 1092q96 0 163 -60q65 -60 65 -181q0 -120 -92 -210t-248 -90t-230 71t-73 177h197q12 -96 104 -97q57 0 91 36t34 92t-28 84t-76 28q-70 2 -117 -61l-176 24q41 117 139 453h532l-61 -166h-334q-16 -61 -41 -133q55 33 151 33z" />
    <glyph glyph-name="six.numr" horiz-adv-x="753" 
d="M440 707q61 0 98 38q36 39 36 95q-1 121 -105 121q-61 0 -96 -36t-35 -98q0 -120 102 -120zM528 1219q-61 -1 -102 -51t-55 -128q80 62 180 62t166 -66q65 -66 65 -186t-96 -210q-96 -89 -246 -89t-228 86q-77 86 -77 240t90 313q103 178 331 178q124 0 190 -64t75 -159
h-194q-10 74 -99 74z" />
    <glyph glyph-name="seven.numr" horiz-adv-x="675" 
d="M201 1358h587l-32 -154q-289 -301 -410 -643h-231q49 162 178 351t235 280h-364z" />
    <glyph glyph-name="eight.numr" horiz-adv-x="739" 
d="M424 690q55 0 90 32t35 89q0 102 -111 102q-57 1 -93 -31t-36 -83t30 -80t85 -29zM598 1155q0 35 -24 57t-73 21q-48 0 -79 -27q-31 -26 -31 -66t26 -63t68 -22q113 0 113 100zM752 817q0 -129 -94 -197t-248 -69q-152 -1 -231 65t-79 151t47 142t129 84q-34 17 -56 55
t-21 82q0 113 86 178q86 64 227 64t210 -63t69 -142q0 -141 -142 -184q41 -20 72 -65t31 -101z" />
    <glyph glyph-name="nine.numr" horiz-adv-x="753" 
d="M362 1097q0 -102 107 -102q55 0 86 31t31 84q-1 100 -105 100q-53 0 -86 -32t-33 -81zM398 846q-112 0 -178 66t-64 161q0 127 91 211t244 84t231 -90t79 -241q0 -151 -82 -305q-97 -181 -343 -181q-134 1 -198 71q-65 70 -69 162h206q10 -78 93 -77q117 0 159 196
q-57 -57 -169 -57z" />
    <glyph glyph-name="parenleft.numr" horiz-adv-x="464" 
d="M340 808q0 -206 61 -364h-163q-74 147 -74 375q0 383 266 647h186q-144 -168 -210 -310t-66 -348z" />
    <glyph glyph-name="parenright.numr" horiz-adv-x="464" 
d="M291 1108q0 211 -62 358h164q76 -143 76 -374q0 -382 -268 -648h-187q145 168 211 310t66 354z" />
    <glyph glyph-name="period.numr" horiz-adv-x="360" 
d="M293 561h-211l53 250h209z" />
    <glyph glyph-name="comma.numr" horiz-adv-x="374" 
d="M217 426h-180q72 123 137 385h201q-64 -252 -158 -385z" />
    <glyph glyph-name="dollar.numr" horiz-adv-x="780" 
d="M442 700q53 0 90 22t37 60t-30 61q-31 21 -139 47q-224 53 -224 222q0 114 82 180t217 74l17 82h174l-21 -94q195 -49 184 -240h-200q-10 111 -123 111t-113 -80q1 -51 141 -83t199 -89t59 -161t-81 -172q-82 -68 -222 -81l-22 -100h-172l24 104q-115 23 -171 93t-46 161
h203q4 -117 137 -117z" />
    <glyph glyph-name="cent.numr" horiz-adv-x="761" 
d="M354 905q0 -131 103 -131q88 0 129 98h194q-57 -190 -252 -229l-22 -113h-182l22 113q-96 20 -147 87t-52 165q0 152 85 256t235 129l18 88h172l-18 -92q102 -24 142 -92t34 -144h-192q-7 106 -95 106t-131 -77q-43 -78 -43 -164z" />
    <glyph glyph-name="hyphen.numr" horiz-adv-x="466" 
d="M172 1049h342l-39 -181h-342z" />
    <glyph glyph-name="zero.dnom" horiz-adv-x="784" 
d="M399 643q-84 0 -131 -117t-47 -223q0 -147 96 -147q125 0 165 256q9 57 10 106q-1 125 -93 125zM410 807q147 0 219 -86q71 -86 71 -243t-87 -313q-97 -175 -331 -175q-122 0 -199 82t-77 243t91 318q45 78 127 126t186 48z" />
    <glyph glyph-name="one.dnom" horiz-adv-x="489" 
d="M252 0h-213l121 569q-37 -4 -123 -4l31 154q125 14 206 80h148z" />
    <glyph glyph-name="two.dnom" horiz-adv-x="720" 
d="M432 559q0 90 -82 88q-92 0 -121 -115h-196q27 131 112 203q87 72 223 72t208 -70t71 -171q0 -101 -56 -160q-57 -59 -189 -132t-158 -114h352l-61 -160h-584l10 47q31 180 277 330q130 81 162 111t32 71z" />
    <glyph glyph-name="three.dnom" horiz-adv-x="716" 
d="M282 137q52 0 85 31t32 88q0 90 -100 90h-66l33 158h62q106 0 106 84q0 72 -82 72t-114 -85h-193q17 74 63 129q87 105 243 105q157 0 228 -58t70 -151q0 -62 -40 -110t-105 -66q47 -16 79 -64t31 -108q0 -121 -96 -191t-239 -69q-94 0 -162 28t-98 71q-54 79 -50 157
h205q2 -47 29 -79t79 -32z" />
    <glyph glyph-name="four.dnom" horiz-adv-x="731" 
d="M182 346h168l23 100q20 106 47 191q-25 -33 -238 -291zM473 0h-194l40 195h-368l33 153l381 449h276l-98 -451h108l-47 -151h-92z" />
    <glyph glyph-name="five.dnom" horiz-adv-x="745" 
d="M303 -10q-155 0 -229 70t-74 178h197q12 -96 104 -97q57 0 91 36t34 92t-28 84t-76 28q-70 2 -117 -62l-176 25q41 117 139 453h532l-61 -166h-334q-16 -61 -41 -133q56 32 152 32t162 -60t66 -180t-93 -210q-92 -90 -248 -90z" />
    <glyph glyph-name="six.dnom" horiz-adv-x="753" 
d="M311 145q61 0 98 39q35 40 35 96q-1 121 -104 119q-61 1 -96 -35t-35 -98q0 -121 102 -121zM310 -10q-150 0 -227 86t-77 240t90 313q103 178 331 178q125 -1 191 -65t74 -158h-194q-10 74 -99 73q-61 0 -102 -50t-55 -128q80 61 180 61t166 -65q66 -67 66 -187t-97 -209
t-247 -89z" />
    <glyph glyph-name="seven.dnom" horiz-adv-x="675" 
d="M72 797h587l-32 -154q-289 -301 -410 -643h-231q49 162 178 351t235 280h-364z" />
    <glyph glyph-name="eight.dnom" horiz-adv-x="739" 
d="M309 352q-57 0 -93 -32t-36 -82q0 -52 30 -80t85 -29q55 0 90 32t35 89q0 102 -111 102zM469 594q-1 34 -25 56t-72 22t-79 -27t-31 -67t26 -62t68 -22q113 0 113 100zM623 256q-1 -130 -95 -198t-246 -68t-232 66q-79 66 -79 150q0 85 47 142t129 84q-33 18 -55 55
t-22 82q0 113 86 177t227 65q141 0 210 -63t69 -142q0 -141 -142 -184q41 -20 72 -66t31 -100z" />
    <glyph glyph-name="nine.dnom" horiz-adv-x="753" 
d="M352 649q-53 0 -86 -33t-33 -81q0 -101 103 -101q57 0 89 31t32 84q-1 100 -105 100zM279 145q117 0 159 197q-57 -57 -169 -57q-111 -1 -177 65t-65 162q0 127 91 211t244 84q154 0 232 -90t78 -241t-82 -305q-96 -181 -342 -181q-134 0 -199 70t-69 163h206
q10 -78 93 -78z" />
    <glyph glyph-name="parenleft.dnom" horiz-adv-x="464" 
d="M35 258q0 383 266 647h186q-145 -168 -211 -310t-66 -348t62 -364h-163q-74 147 -74 375z" />
    <glyph glyph-name="parenright.dnom" horiz-adv-x="464" 
d="M162 547q0 211 -62 358h164q76 -143 76 -375q0 -381 -268 -647h-187q145 169 211 311t66 353z" />
    <glyph glyph-name="period.dnom" horiz-adv-x="360" 
d="M164 0h-211l53 250h209z" />
    <glyph glyph-name="comma.dnom" horiz-adv-x="374" 
d="M88 -135h-180q72 123 137 385h201q-64 -252 -158 -385z" />
    <glyph glyph-name="dollar.dnom" horiz-adv-x="780" 
d="M313 139q53 0 90 22q37 23 37 61t-30 60t-138 48q-224 53 -225 221q0 115 82 181t217 73l16 82h175l-21 -94q195 -49 184 -240h-200q-10 111 -123 111t-113 -80q0 -51 140 -83t200 -89t60 -161q0 -103 -82 -171t-222 -82l-22 -100h-172l24 104q-115 24 -171 94t-46 160
h203q4 -117 137 -117z" />
    <glyph glyph-name="cent.dnom" horiz-adv-x="761" 
d="M225 344q0 -131 103 -131q88 0 129 98h194q-57 -190 -252 -229l-22 -113h-182l22 113q-96 20 -147 87t-52 165q0 152 85 256t235 129l18 88h172l-18 -92q102 -23 142 -91t34 -145h-192q-6 107 -94 107t-132 -78q-43 -78 -43 -164z" />
    <glyph glyph-name="hyphen.dnom" horiz-adv-x="466" 
d="M43 487h342l-39 -180h-342z" />
    <glyph glyph-name="a.sups" horiz-adv-x="720" 
d="M299 762q0 -61 72 -62q49 0 89 37t56 113l6 22q-80 0 -123 -6t-71 -34t-29 -70zM461 561q0 10 3 32t3 34q-45 -45 -84 -63t-115 -17q-76 0 -126 52t-50 138q0 193 225 238q86 16 224 20l10 35q16 92 -78 92q-47 0 -69 -22t-35 -72h-195q47 225 305 225q309 0 254 -276
l-53 -238q-18 -92 -33 -178h-186z" />
    <glyph glyph-name="b.sups" horiz-adv-x="759" 
d="M430 705q80 -1 124 83t44 196t-92 112q-66 0 -103 -47t-55 -142q-43 -202 82 -202zM600 1253q86 0 146 -63t61 -189q0 -186 -93 -318t-259 -132q-131 0 -162 84l-25 -74h-186q8 33 28 123q19 90 29 133l148 701h194l-73 -349q70 84 192 84z" />
    <glyph glyph-name="c.sups" horiz-adv-x="686" 
d="M375 549q-131 0 -197 73t-66 208t89 271q43 67 117 109t167 43q143 0 207 -71q63 -72 58 -174h-191q0 102 -76 102q-55 0 -95 -59q-66 -98 -69 -244q0 -117 82 -117q66 1 117 105h191q-80 -246 -334 -246z" />
    <glyph glyph-name="d.sups" horiz-adv-x="774" 
d="M498 1096q-84 0 -130 -88t-46 -183q0 -121 90 -120q127 -1 168 195t-82 196zM516 561q0 23 8 80q-68 -92 -181 -92t-172 67q-58 68 -58 191q0 170 97 308t261 138q127 0 158 -65l69 330h197l-160 -762q-35 -150 -39 -195h-180z" />
    </font>
</defs>
</svg>
